<svg xmlns="http://www.w3.org/2000/svg" width="145.951" height="145.951" viewBox="0 0 145.951 145.951">
  <g id="drd_logo_white" transform="translate(-47.92 -47.93)">
    <path id="Path_874" data-name="Path 874" d="M120.9,47.93a72.96,72.96,0,1,0,.013,0Zm0,141a68.023,68.023,0,1,1,68.014-68.02,68.025,68.025,0,0,1-68.014,68.02Z" fill="#fff"/>
    <path id="Path_875" data-name="Path 875" d="M146.754,77.125a9.44,9.44,0,0,1-3.286-1.723c-1.8-1.174-4.734-.7-9,0a56.646,56.646,0,0,1-5.681.511l.123-4.479a7.67,7.67,0,1,0-10.548.246l.114,4.441h-2.121a21.072,21.072,0,0,0-2.765.369,17.044,17.044,0,0,0-5.359,1.979,18.862,18.862,0,0,0-7.717,8.522,16.2,16.2,0,0,0-.8,12.234,15.623,15.623,0,0,0,3.324,5.454c.341.369.7.72,1.042,1.061a14.085,14.085,0,0,0,4.166,2.841,23.141,23.141,0,0,0,5.681,1.515,45.344,45.344,0,0,0,5.189.473h.246l.436,17.4a2.284,2.284,0,0,0-.634.18,26.892,26.892,0,0,0-4.886,2.017,15.15,15.15,0,0,0-4.545,3.56A10.643,10.643,0,0,0,108.1,136.5a8.929,8.929,0,0,0-.606,3.2,13.436,13.436,0,0,0,.066,1.43,10.146,10.146,0,0,0,.17,1.392,12.763,12.763,0,0,0,.294,1.382l.445,1.392a11.447,11.447,0,0,0,7.367,6.808c.237.066.464.142.72.189a6.438,6.438,0,0,0,.833.133l.237.047h.246c.824-.076,1.666-.133,2.528-.142l.511,20.367c-.947.341-1.894.634-2.841.947-1.07.133-3.6.729-3.314.947a42.019,42.019,0,0,0,4.27.123h1.951l.246,9.838a2.334,2.334,0,1,0,4.668,0L126.178,174a19.087,19.087,0,0,0,4.28-1.6,14.2,14.2,0,0,0,3.39-2.462,11.362,11.362,0,0,0,2.462-3.674,12.565,12.565,0,0,0,.881-4.27,13.341,13.341,0,0,0-.454-4.3,12.2,12.2,0,0,0-5.056-6.95,13.258,13.258,0,0,0-3.787-1.78c-.331-.095-.663-.18-1-.246l.436-16.012c.757-.085,1.515-.133,2.272-.17h1.581a5.569,5.569,0,0,0,.947-.057,12.215,12.215,0,0,0,3.163-.871,19.884,19.884,0,0,0,4.9-2.964,18.18,18.18,0,0,0,3.892-4.422,12.092,12.092,0,0,0,1.837-6.325,12.754,12.754,0,0,0-1.752-6.391,15.632,15.632,0,0,0-4.232-4.611,25.073,25.073,0,0,0-10.416-4.261l-1.373-.237.521-20.708a21.286,21.286,0,0,1,6.836.246c3.513,1.023,7.66,1.335,9.611.8s.312-1.487-.549-2.519.161-.776,1.648-1.174S147.918,77.447,146.754,77.125Zm-31.5,24.164a17.849,17.849,0,0,1-3.56-.862,4.971,4.971,0,0,1-1.079-.559c-.161-.114-.379-.294-.653-.53a8.81,8.81,0,0,1-.663-.625,8.522,8.522,0,0,1-1.78-2.5,7.575,7.575,0,0,1-.606-3,10.293,10.293,0,0,1,.6-3.361,13.142,13.142,0,0,1,1.695-3.276,11.23,11.23,0,0,1,2.566-2.661,11.419,11.419,0,0,1,3.324-1.837,15.386,15.386,0,0,1,1.894-.549l1-.161.511-.076h.1l.511,20.4C117.8,101.573,116.492,101.46,115.251,101.289Zm2.557,46.9h0l-.246-.066a4.345,4.345,0,0,1-.426-.133,7.187,7.187,0,0,1-2.32-1.4,6.467,6.467,0,0,1-1.894-2.964,11.685,11.685,0,0,1-.426-3.787,4.242,4.242,0,0,1,1.231-2.68,9.932,9.932,0,0,1,3.058-2.083,20.053,20.053,0,0,1,3.153-1.165l.36,14.288c-.814-.028-1.619-.038-2.49-.009Zm11.022,5.681c.085.057.18.142.265.208a8.844,8.844,0,0,1,3.068,4.687,11.154,11.154,0,0,1,.312,2.9,9.818,9.818,0,0,1-.445,2.841,9.393,9.393,0,0,1-3.589,4.5,19.569,19.569,0,0,1-2.2,1.373l.473-17.3a13.426,13.426,0,0,1,2.112.8Zm-.644-43.1a17.574,17.574,0,0,1,7.281,2.273,6.314,6.314,0,0,1,3.3,4.81,5.047,5.047,0,0,1-.663,2.746,10.8,10.8,0,0,1-2.272,2.841,12.706,12.706,0,0,1-3.134,2.121,6.3,6.3,0,0,1-1.382.5h-.9c-.445,0-.871.057-1.3.085s-1.127.114-1.685.189l.426-15.633Z" transform="translate(-2.707 -0.552)" fill="#fff"/>
  </g>
</svg>
