<svg xmlns="http://www.w3.org/2000/svg" xmlns:xlink="http://www.w3.org/1999/xlink" width="316.086" height="309.764" viewBox="0 0 316.086 309.764">
  <defs>
    <linearGradient id="linear-gradient" x1="0.5" y1="0.466" x2="0.5" y2="-0.307" gradientUnits="objectBoundingBox">
      <stop offset="0" stop-color="#f8afac"/>
      <stop offset="1" stop-color="#ef4b64"/>
    </linearGradient>
  </defs>
  <g id="Graphic" transform="translate(0 0)">
    <rect id="Rectangle_200" data-name="Rectangle 200" width="0.832" height="284.026" transform="translate(6.245 252.027) rotate(-89.89)" fill="#e7f3fc"/>
    <path id="Path_876" data-name="Path 876" d="M806.838,2403.854s-31.712,7.655-22.382,18.032,38.031,3.041,48.358,7.71,53.342,3.568,48.509-8.221S859.244,2399.455,806.838,2403.854Z" transform="translate(-733.914 -2122.403)" fill="#aaceed"/>
    <ellipse id="Ellipse_129" data-name="Ellipse 129" cx="12.801" cy="3.807" rx="12.801" ry="3.807" transform="translate(273.762 264.885)" fill="#aaceed"/>
    <path id="Path_877" data-name="Path 877" d="M2490.583,1269.039c-.573,0-1.039-.123-1.139-.487l-.009-.05a3.284,3.284,0,0,1,.485-1.837,4.188,4.188,0,0,0,.445-1.189,13.13,13.13,0,0,1-7.826-.928,4.2,4.2,0,0,0,.139,1.221,3.269,3.269,0,0,1,.024,1.9l-.021.047c-.166.294-.58.36-1.227.2a7.6,7.6,0,0,1-1.784-.757c-.936-.531-2.417-1.611-2.028-2.294l.029-.043a3.271,3.271,0,0,1,1.643-.955,5.5,5.5,0,0,0,1.17-.471,13.125,13.125,0,0,1-4.865-6.273,4.175,4.175,0,0,0-.792.993,3.27,3.27,0,0,1-1.327,1.359l-.049.019c-.326.09-.664-.157-1.006-.729a8.539,8.539,0,0,1-1.026-3.711c0-.668.163-1.054.489-1.144l.05-.008a3.271,3.271,0,0,1,1.837.485,5.6,5.6,0,0,0,1.223.513,13.121,13.121,0,0,1,1.056-7.9,4.485,4.485,0,0,0-1.386.139,3.272,3.272,0,0,1-1.9.023l-.047-.021c-.683-.388.032-2.08.561-3.011s1.612-2.417,2.3-2.028l.041.029a3.279,3.279,0,0,1,.957,1.641,5.893,5.893,0,0,0,.564,1.349,13.128,13.128,0,0,1,6.355-4.852,4.659,4.659,0,0,0-1.169-.971,3.274,3.274,0,0,1-1.358-1.328l-.018-.047c-.209-.758,1.489-1.446,2.526-1.732s2.847-.57,3.057.189l.009.05a3.263,3.263,0,0,1-.485,1.837,6.392,6.392,0,0,0-.588,1.472,13.117,13.117,0,0,1,8.041,1.04,6.4,6.4,0,0,0-.213-1.616,3.261,3.261,0,0,1-.022-1.9l.021-.047c.167-.294.579-.359,1.227-.2a8.514,8.514,0,0,1,3.349,1.9c.473.471.628.859.462,1.153l-.029.043a3.268,3.268,0,0,1-1.641.955,4.934,4.934,0,0,0-1.424.693,13.117,13.117,0,0,1,4.948,6.316,6.335,6.335,0,0,0,.961-1.261,3.271,3.271,0,0,1,1.328-1.36l.047-.018c.327-.09.665.155,1.006.729a8.546,8.546,0,0,1,1.026,3.711c0,.668-.163,1.054-.489,1.142l-.051.01a3.271,3.271,0,0,1-1.836-.485,4.8,4.8,0,0,0-1.437-.5,13.131,13.131,0,0,1-.906,7.949,5.981,5.981,0,0,0,1.447-.208,3.278,3.278,0,0,1,1.9-.024l.046.021c.293.168.361.58.2,1.229a8.538,8.538,0,0,1-1.9,3.349c-.471.473-.859.629-1.153.462l-.043-.029a3.282,3.282,0,0,1-.956-1.642,4.5,4.5,0,0,0-.585-1.26,13.129,13.129,0,0,1-6.229,4.963,5.666,5.666,0,0,0,1.068.785,3.277,3.277,0,0,1,1.36,1.328l.018.047c.091.326-.155.664-.729,1.007a7.638,7.638,0,0,1-1.8.725A7.844,7.844,0,0,1,2490.583,1269.039Zm-.6-.643a6.288,6.288,0,0,0,4.5-1.242,2.808,2.808,0,0,0-1.088-1.027,7.207,7.207,0,0,1-1.525-1.184l-.327-.314.429-.147a12.565,12.565,0,0,0,6.6-5.246l.221-.355.241.342a5.787,5.787,0,0,1,.908,1.8,2.764,2.764,0,0,0,.73,1.306c.192-.039.832-.564,1.541-1.8a4.138,4.138,0,0,0,.761-2.25,2.791,2.791,0,0,0-1.5.043,7.6,7.6,0,0,1-2.056.244h-.449l.2-.4a12.563,12.563,0,0,0,.97-8.4l-.094-.4.407.065a5.967,5.967,0,0,1,2.043.652,2.763,2.763,0,0,0,1.44.406,6.292,6.292,0,0,0-1.244-4.5,2.8,2.8,0,0,0-1.026,1.088,7.838,7.838,0,0,1-1.372,1.718l-.319.316-.139-.426a12.548,12.548,0,0,0-5.214-6.675l-.344-.218.329-.241a6.181,6.181,0,0,1,1.954-1.02,2.787,2.787,0,0,0,1.3-.731c-.04-.193-.566-.832-1.8-1.54a4.067,4.067,0,0,0-2.25-.761,2.807,2.807,0,0,0,.043,1.5,8.087,8.087,0,0,1,.244,2.235v.452l-.4-.208a12.56,12.56,0,0,0-8.518-1.1l-.437.1.107-.435a8.078,8.078,0,0,1,.769-2.06,2.746,2.746,0,0,0,.407-1.44,6.292,6.292,0,0,0-4.5,1.243,2.8,2.8,0,0,0,1.088,1.027,5.975,5.975,0,0,1,1.607,1.418l.264.316-.392.126a12.558,12.558,0,0,0-6.709,5.145l-.243.377-.229-.387a7.827,7.827,0,0,1-.847-1.89,2.743,2.743,0,0,0-.731-1.306c-.191.039-.832.564-1.54,1.8a4.068,4.068,0,0,0-.761,2.25,2.791,2.791,0,0,0,1.5-.043,5.647,5.647,0,0,1,2.01-.139l.416.032-.193.371a12.563,12.563,0,0,0-1.109,8.357l.1.444-.438-.118a7.165,7.165,0,0,1-1.8-.7,2.8,2.8,0,0,0-1.441-.406,6.314,6.314,0,0,0,1.244,4.5,2.81,2.81,0,0,0,1.027-1.088,5.369,5.369,0,0,1,1.221-1.437l.316-.277.139.4a12.566,12.566,0,0,0,5.164,6.642l.388.247-.4.227a6.908,6.908,0,0,1-1.716.747,2.79,2.79,0,0,0-1.306.731c.04.191.566.832,1.8,1.54a4.133,4.133,0,0,0,2.25.761,2.792,2.792,0,0,0-.043-1.5,5.434,5.434,0,0,1-.154-1.836l.022-.416.375.184a12.568,12.568,0,0,0,8.268.979l.416-.093-.079.416a5.224,5.224,0,0,1-.606,1.787,2.774,2.774,0,0,0-.423,1.421Z" transform="translate(-2188.489 -1117.261)" fill="#dfedf8"/>
    <ellipse id="Ellipse_130" data-name="Ellipse 130" cx="2.326" cy="3.62" rx="2.326" ry="3.62" transform="translate(297.346 130.958) rotate(-60.45)" fill="#dfedf8"/>
    <ellipse id="Ellipse_131" data-name="Ellipse 131" cx="1.04" cy="1.618" rx="1.04" ry="1.618" transform="translate(293.311 135.886) rotate(-60.45)" fill="#dfedf8"/>
    <ellipse id="Ellipse_132" data-name="Ellipse 132" cx="1.04" cy="1.618" rx="1.04" ry="1.618" transform="translate(300.433 136.913) rotate(-60.45)" fill="#dfedf8"/>
    <ellipse id="Ellipse_133" data-name="Ellipse 133" cx="1.6" cy="2.49" rx="1.6" ry="2.49" transform="translate(299.482 142.838) rotate(-60.45)" fill="#dfedf8"/>
    <ellipse id="Ellipse_134" data-name="Ellipse 134" cx="1.153" cy="1.794" rx="1.153" ry="1.794" transform="translate(303.631 140.566) rotate(-60.45)" fill="#dfedf8"/>
    <path id="Path_878" data-name="Path 878" d="M2513.538,725.747a1.468,1.468,0,0,0-.729.427,3.658,3.658,0,0,1-.786.577,6.255,6.255,0,0,0-1.651-3.9,2.825,2.825,0,0,1,.97-.208,1.472,1.472,0,0,0,.82-.214c.138-.139-.158-.656-.658-1.156s-1.019-.8-1.156-.658a1.469,1.469,0,0,0-.213.818,3.808,3.808,0,0,1-.165,1.023,6.25,6.25,0,0,0-3.92-1.621,2.9,2.9,0,0,1,.554-.864,1.474,1.474,0,0,0,.429-.731c0-.194-.575-.352-1.284-.352s-1.282.158-1.282.352a1.463,1.463,0,0,0,.427.731,3.88,3.88,0,0,1,.618.86,6.261,6.261,0,0,0-3.983,1.625,3.817,3.817,0,0,1-.165-1.023,1.472,1.472,0,0,0-.214-.818c-.138-.139-.656.157-1.156.658s-.8,1.019-.659,1.156a1.471,1.471,0,0,0,.826.218,2.838,2.838,0,0,1,.971.208,6.266,6.266,0,0,0-1.653,3.9,3.688,3.688,0,0,1-.785-.577,1.468,1.468,0,0,0-.73-.427c-.194,0-.352.574-.352,1.282s.158,1.284.352,1.284a1.478,1.478,0,0,0,.73-.428,2.749,2.749,0,0,1,.781-.517,6.253,6.253,0,0,0,1.579,3.916,3.5,3.5,0,0,1-.9.139,1.47,1.47,0,0,0-.818.214c-.139.139.157.654.659,1.156s1.019.8,1.156.658a1.473,1.473,0,0,0,.214-.819,2.611,2.611,0,0,1,.166-.858,6.261,6.261,0,0,0,3.9,1.607,3.355,3.355,0,0,1-.527.7,1.466,1.466,0,0,0-.427.729c0,.2.574.352,1.282.352s1.284-.157,1.284-.352a1.479,1.479,0,0,0-.428-.729,2.562,2.562,0,0,1-.48-.706,6.258,6.258,0,0,0,3.844-1.615,2.656,2.656,0,0,1,.165.864,1.472,1.472,0,0,0,.213.819c.139.139.655-.158,1.156-.659s.8-1.019.658-1.156a1.472,1.472,0,0,0-.82-.214,3.5,3.5,0,0,1-.9-.139,6.263,6.263,0,0,0,1.575-3.92,2.772,2.772,0,0,1,.781.517,1.477,1.477,0,0,0,.729.428c.2,0,.352-.574.352-1.284S2513.733,725.747,2513.538,725.747Z" transform="translate(-2211.048 -671.934)" fill="#dfedf8"/>
    <ellipse id="Ellipse_135" data-name="Ellipse 135" cx="1.773" cy="1.14" rx="1.773" ry="1.14" transform="translate(292.755 51.533)" fill="#c4def4"/>
    <ellipse id="Ellipse_136" data-name="Ellipse 136" cx="0.793" cy="0.509" rx="0.793" ry="0.509" transform="translate(292.225 55.871)" fill="#c4def4"/>
    <ellipse id="Ellipse_137" data-name="Ellipse 137" cx="0.793" cy="0.509" rx="0.793" ry="0.509" transform="translate(295.508 54.587)" fill="#c4def4"/>
    <ellipse id="Ellipse_138" data-name="Ellipse 138" cx="1.22" cy="0.785" rx="1.22" ry="0.785" transform="translate(296.534 56.791)" fill="#c4def4"/>
    <ellipse id="Ellipse_139" data-name="Ellipse 139" cx="0.879" cy="0.566" rx="0.879" ry="0.566" transform="translate(297.755 55.259)" fill="#c4def4"/>
    <path id="Path_879" data-name="Path 879" d="M1612.611,660.726h-94.132a16.127,16.127,0,0,1-16.109-16.108V447a16.128,16.128,0,0,1,16.109-16.109h94.132A16.127,16.127,0,0,1,1628.719,447V644.618A16.126,16.126,0,0,1,1612.611,660.726Zm-94.132-226.509A12.8,12.8,0,0,0,1505.7,447V644.618a12.8,12.8,0,0,0,12.782,12.781h94.132a12.8,12.8,0,0,0,12.781-12.781V447a12.8,12.8,0,0,0-12.781-12.782Z" transform="translate(-1353.782 -423.86)" fill="#e7f3fc"/>
    <rect id="Rectangle_201" data-name="Rectangle 201" width="99.181" height="178.464" rx="49.59" transform="translate(162.773 23.552)" fill="#cbe6f5"/>
    <path id="Path_880" data-name="Path 880" d="M1496.851,918.54a8.079,8.079,0,0,1-.555-5.868,29.235,29.235,0,0,0,.139-10.061c-.241-.218-2.156.671-2.373,2.131s-.335,3.189-1.062,3.521-1.956-1.006-2.4-2.292-1.845-5.645-2.292-7.434-1.119-2.682-2.236-1.51c0,0-.832-1.109-1.565-.53s.335,2.207.335,2.207-1.23-.057-1.23,1.453.336,10.952.782,12.072,6.764,10.675,6.764,10.675Z" transform="translate(-1337.622 -824.775)" fill="#f8afac"/>
    <path id="Path_881" data-name="Path 881" d="M1502.956,906.155a.207.207,0,0,1-.187-.119,43.424,43.424,0,0,1-3.025-10.151l-.014-.085.052-.069c.062-.086.628-.832,1.248-.75.337.046.6.315.782.8a.208.208,0,0,1-.39.147c-.086-.227-.233-.5-.448-.534-.277-.04-.643.32-.806.517a42.771,42.771,0,0,0,2.975,9.948.207.207,0,0,1-.1.277A.2.2,0,0,1,1502.956,906.155Z" transform="translate(-1351.508 -823.607)" fill="#f37f85"/>
    <path id="Path_882" data-name="Path 882" d="M1493.879,921.293a.208.208,0,0,1-.179-.1c-.525-.872-2.665-8.694-2.756-9.026a.208.208,0,0,1,.4-.109c.614,2.25,2.3,8.239,2.71,8.922a.206.206,0,0,1-.071.277.2.2,0,0,1-.107.038Z" transform="translate(-1343.933 -838.188)" fill="#f37f85"/>
    <path id="Path_883" data-name="Path 883" d="M1486.71,949.806a.209.209,0,0,1-.173-.091,12.842,12.842,0,0,1-1.792-4.262c-.018-.251-.025-.546-.032-.858-.018-.807-.043-1.912-.337-2.17a.159.159,0,0,0-.132-.04c-.473.05-.621,1.3-.618,1.894a.208.208,0,0,1-.208.208.212.212,0,0,1-.208-.207c0-.226.017-2.206.991-2.308a.572.572,0,0,1,.45.139c.43.379.453,1.443.477,2.473,0,.306.012.595.03.832a12.407,12.407,0,0,0,1.725,4.061.208.208,0,0,1-.058.288A.2.2,0,0,1,1486.71,949.806Z" transform="translate(-1337.278 -864.085)" fill="#f37f85"/>
    <path id="Path_884" data-name="Path 884" d="M1983.849,658.65s7.238,9.191,5.708,18.057-1.386,9.427,2.922,12.061,5.843,9.6.693,11.687-12.272,3.34-15.736-2.922S1968.125,670.267,1983.849,658.65Z" transform="translate(-1759.55 -620.045)" fill="#efb04b"/>
    <path id="Path_885" data-name="Path 885" d="M1771.837,638.391a1.169,1.169,0,0,0,.022.9c.588,1.506.012,3.18.33,4.744.365,1.8,1.051,3.525.152,5.287-1.341,2.634-3.781,4.436-5.077,7.158a18.451,18.451,0,0,0-1.74,9.394,8.884,8.884,0,0,0,2.62,6.125c4.076,3.489,11.666.5,14.232,6.2,1.248,2.782,10.087,3.478,12.8-.693s6.326-34.991-2.3-41.113c-3.818-2.71-8.7-2.7-13.075-1.579a31.087,31.087,0,0,0-5.312,1.92C1773.6,637.144,1772.186,637.56,1771.837,638.391Z" transform="translate(-1580.405 -598.906)" fill="#efb04b"/>
    <path id="Path_886" data-name="Path 886" d="M1847.753,640.829a29.576,29.576,0,0,0,3.122,19.12c1.941,3.058,5.117,5.891,8.917,5.347a7.314,7.314,0,0,1-.632,4.008c-.948,1.582-3.8,5.906-4.219,9.288h0a3.5,3.5,0,0,0,3.4,3.934,15.032,15.032,0,0,0,3.222-.277,4.337,4.337,0,0,0,2.013-.984c2.182-1.9,8.024-7.422,9.566-13.417a4.11,4.11,0,0,0-.056-2.25c-.712-2.275-2.373-8.166-2.207-13.233a3.226,3.226,0,0,0,3.327-2.854c.625-3.075,1.087-5.838-.706-6.049,0,0,.738-7.171-1.583-9.914-2.189-2.588-6.422-3.239-9.58-3.446a14.626,14.626,0,0,0-12.223,5.527A12.838,12.838,0,0,0,1847.753,640.829Z" transform="translate(-1650.887 -595.43)" fill="#f8afac"/>
    <path id="Path_887" data-name="Path 887" d="M1844.416,619.027s.139-11.9,16.349-10.5v-6.18l-10.227-1.4-4.73,7.418-1.386,4.2S1843.372,617.358,1844.416,619.027Z" transform="translate(-1648.01 -570.335)" fill="#ce963d"/>
    <path id="Path_888" data-name="Path 888" d="M1826.9,577.327s-.075-4.382-7.977-5.913c-4.926-.954-10.031,1.178-13.758,4.321-2.55,2.152-4.979,5.335-5.353,8.792-.455,4.206,3.094,7.183,6.548,8.873,0,0-2.319-19.9,16.067-11.2Z" transform="translate(-1609.956 -544.706)" fill="#efb04b"/>
    <path id="Path_889" data-name="Path 889" d="M1896.75,735.537a.206.206,0,0,1-.071-.012c-.154-.055-1.513-.571-1.779-1.4a.958.958,0,0,1,.148-.86c.6-.866.627-4.372.589-5.651a.208.208,0,0,1,.2-.213.211.211,0,0,1,.215.2c0,.194.139,4.743-.663,5.9a.546.546,0,0,0-.1.5c.173.541,1.159,1,1.525,1.137a.208.208,0,0,1-.071.4Z" transform="translate(-1691.857 -679.263)" fill="#f37f85"/>
    <ellipse id="Ellipse_140" data-name="Ellipse 140" cx="0.821" cy="0.499" rx="0.821" ry="0.499" transform="matrix(0.014, -1, 1, 0.014, 208.322, 50.336)" fill="#3f3092"/>
    <ellipse id="Ellipse_141" data-name="Ellipse 141" cx="0.821" cy="0.499" rx="0.821" ry="0.499" transform="matrix(0.014, -1, 1, 0.014, 199.637, 50.738)" fill="#3f3092"/>
    <path id="Path_890" data-name="Path 890" d="M1925.434,709.662a.336.336,0,0,1-.186-.054,4.523,4.523,0,0,0-4.529-.065.347.347,0,1,1-.362-.591,5.172,5.172,0,0,1,5.268.071.346.346,0,0,1-.186.639Z" transform="translate(-1713.669 -662.771)" fill="#e09824"/>
    <path id="Path_891" data-name="Path 891" d="M1861.024,713.014a.352.352,0,0,1-.186-.054,3.965,3.965,0,0,0-3.965-.057.347.347,0,0,1-.363-.592,4.614,4.614,0,0,1,4.7.064.347.347,0,0,1-.186.639Z" transform="translate(-1658.684 -665.729)" fill="#e09824"/>
    <path id="Path_892" data-name="Path 892" d="M1887.008,815.338a5.289,5.289,0,0,1-3.075-1.045.208.208,0,0,1,.265-.32h0a4.509,4.509,0,0,0,5.873-.277.208.208,0,1,1,.269.316A5.065,5.065,0,0,1,1887.008,815.338Z" transform="translate(-1682.388 -753.545)" fill="#f37f85"/>
    <path id="Path_893" data-name="Path 893" d="M2022.943,744.537a.209.209,0,1,1-.047-.416,1.8,1.8,0,0,0,.879-1.489c.037-.348-.031-.38-.255-.482a1.338,1.338,0,0,1-.693-.6.678.678,0,0,1-.049-.578c.229-.629,1.331-1.062,1.456-1.109a.208.208,0,0,1,.147.388c-.4.154-1.088.523-1.212.862a.261.261,0,0,0,.021.233.923.923,0,0,0,.5.426.739.739,0,0,1,.5.9,2.132,2.132,0,0,1-1.2,1.851A.185.185,0,0,1,2022.943,744.537Z" transform="translate(-1801.985 -689.991)" fill="#f37f85"/>
    <path id="Path_894" data-name="Path 894" d="M1963.689,622.5s1.629,7.793,7.562,9.462c0,0,1.365-1.277,2.092-1.077,0,0,2.792-4.628,1.681-9.427s-4.9-5.843-7.347-5.983S1961.95,619.713,1963.689,622.5Z" transform="translate(-1750.726 -582.848)" fill="#efb04b"/>
    <circle id="Ellipse_142" data-name="Ellipse 142" cx="1.643" cy="1.643" r="1.643" transform="translate(210.82 53.377)" fill="#f48c94"/>
    <circle id="Ellipse_143" data-name="Ellipse 143" cx="1.643" cy="1.643" r="1.643" transform="translate(197.031 53.377)" fill="#f48c94"/>
    <path id="Path_895" data-name="Path 895" d="M1966.02,660.7c-3.142-.61-5.3-1.934-6.419-3.937a8.568,8.568,0,0,1-.365-6.5l.259.1a8.3,8.3,0,0,0,.349,6.268c1.076,1.927,3.171,3.205,6.228,3.8Z" transform="translate(-1746.892 -612.818)" fill="#e09824"/>
    <path id="Path_896" data-name="Path 896" d="M1936.907,854.285a12.268,12.268,0,0,0,7.429-4.805s-2.559,6.218-4.926,8.118-2.591-.821-2.591-.821A7.428,7.428,0,0,0,1936.907,854.285Z" transform="translate(-1728.002 -784.419)" fill="#d89e9c"/>
    <path id="Path_897" data-name="Path 897" d="M1937.284,841.69l-.064-.416a11.984,11.984,0,0,0,8.387-6.654l.38.169A12.406,12.406,0,0,1,1937.284,841.69Z" transform="translate(-1728.347 -771.62)" fill="#f26a66"/>
    <path id="Path_898" data-name="Path 898" d="M2030.007,630.07s5.167,3.986,4.727,7.974C2034.735,638.044,2027.7,636.057,2030.007,630.07Z" transform="translate(-1807.87 -595.427)" fill="#efb04b"/>
    <path id="Path_899" data-name="Path 899" d="M1843.5,597.991l-.17-.219c2.968-2.321,7.625-4.734,12.973-3.05a13.242,13.242,0,0,1,5.167,3.064l-.2.19a12.991,12.991,0,0,0-5.06-2.993C1853.325,594.077,1848.778,593.86,1843.5,597.991Z" transform="translate(-1647.473 -564.495)" fill="#f5bc93"/>
    <path id="Path_900" data-name="Path 900" d="M2015.459,685.9c-3.158-2.122-4.923-4.575-5.545-7.729-.566-2.835-.157-5.989.277-9.33.216-1.664.439-3.385.564-5.188a12.676,12.676,0,0,0-4.211-10.09,18.9,18.9,0,0,0-4.714-3.3l.114-.254a19.272,19.272,0,0,1,4.78,3.345,12.929,12.929,0,0,1,4.3,10.314c-.126,1.811-.351,3.535-.567,5.2-.89,6.849-1.593,12.258,5.153,16.793Z" transform="translate(-1784 -612.603)" fill="#f5bc93"/>
    <path id="Path_901" data-name="Path 901" d="M2046.223,820.018a14.211,14.211,0,0,1-8.464-11.4,22.6,22.6,0,0,1,.175-7.594l.277.062a22.321,22.321,0,0,0-.171,7.5,13.946,13.946,0,0,0,8.3,11.184Z" transform="translate(-1814.741 -742.678)" fill="#f5bc93"/>
    <path id="Path_902" data-name="Path 902" d="M1810.25,721.415c-2.437-.991-4.863-4.35-5.644-7.812-.591-2.617-.159-4.884,1.21-6.377,3.531-3.858,1.792-14.881,1.774-14.992l.277-.044a42.768,42.768,0,0,1,.455,6.093c0,4.393-.773,7.464-2.3,9.13-1.307,1.429-1.715,3.6-1.145,6.133.762,3.381,3.116,6.654,5.477,7.617Z" transform="translate(-1613.896 -648.935)" fill="#f5bc93"/>
    <path id="Path_903" data-name="Path 903" d="M1842.854,836.706a13.622,13.622,0,0,1-6.991-7.942,10.711,10.711,0,0,1-.475-4.464l.277.044a10.728,10.728,0,0,0,.471,4.352,13.331,13.331,0,0,0,6.854,7.763Z" transform="translate(-1640.578 -762.73)" fill="#f5bc93"/>
    <path id="Path_904" data-name="Path 904" d="M1618.169,1018.211h-75.131l8.9-55.09.554-8.9s-10.852,10.624-17.251-1.923-13.636-38.425-13.636-38.425l8.9-5.566L1546.1,934.46s8.911-28.988,17.754-36.7c5.969-5.2,8.7-8.3,15.423-9.947a5.409,5.409,0,0,1-.649,2.258c-.95,1.582-3.8,5.906-4.219,9.288h0a3.5,3.5,0,0,0,3.4,3.934,15.03,15.03,0,0,0,3.222-.277,4.337,4.337,0,0,0,2.013-.984c2.182-1.9,8.024-7.422,9.566-13.417a4.111,4.111,0,0,0-.056-2.25s20.612,3.562,28.125,16.917,9.183,40.905-2.505,53.428Z" transform="translate(-1370.354 -816.195)" fill="#69afe1"/>
    <path id="Path_905" data-name="Path 905" d="M1873.392,887.047c-1.963-.514-3.188-.726-3.188-.726a4.11,4.11,0,0,1,.055,2.25c-1.54,5.995-7.382,11.52-9.566,13.417a4.338,4.338,0,0,1-2.013.984,15.036,15.036,0,0,1-3.222.277,3.5,3.5,0,0,1-3.4-3.941c.416-3.376,3.269-7.7,4.219-9.288a5.412,5.412,0,0,0,.649-2.258,22.012,22.012,0,0,0-6.8,2.836c-3.034,8.613,1.191,18.643,1.931,25.518.757,7.034-8.107,102.047-8.107,102.047h11.874s4.381-98.506,8.517-106.02S1873.392,887.047,1873.392,887.047Z" transform="translate(-1648.007 -816.152)" fill="#fcfdfb"/>
    <path id="Path_906" data-name="Path 906" d="M1870.177,886.32a4.066,4.066,0,0,1,.184,1.12v.284a4.193,4.193,0,0,1-.126.846c-.121.467-.268.933-.437,1.395-.067.184-.139.367-.214.555-.094.233-.2.464-.3.693-.165.36-.342.717-.53,1.069l-.13.244c-.089.161-.179.32-.271.48l-.17.29c-.219.366-.448.728-.684,1.081q-.217.327-.443.647c-.139.2-.277.394-.424.586l-.09.121c-.089.119-.179.237-.269.354-.139.173-.266.342-.4.51-.23.288-.463.57-.693.843l-.054.062-.416.485-.277.309c-.12.139-.239.263-.356.391l-.442.471c-1.187,1.248-2.261,2.226-2.96,2.834a4.307,4.307,0,0,1-.45.344,4.524,4.524,0,0,1-.491.277,4.366,4.366,0,0,1-.877.316c-.065.015-.129.032-.194.044-.112.022-.223.042-.335.061a15.13,15.13,0,0,1-2.512.212h-.374a3.554,3.554,0,0,1-.714-.09,3.506,3.506,0,0,1-2.649-2.752,2.856,2.856,0,0,1-.046-.312.327.327,0,0,1,0-.035,3.455,3.455,0,0,1,.014-.746c.416-3.376,3.269-7.7,4.219-9.288.047-.078.089-.158.13-.24,0-.013.013-.025.02-.037.038-.079.074-.159.106-.24,0-.015.012-.031.018-.046q.05-.122.092-.25a.226.226,0,0,1,.01-.029c.028-.086.052-.172.076-.259a.043.043,0,0,0,0-.013c.025-.089.046-.179.065-.269a.252.252,0,0,1,0-.033c.018-.089.035-.177.05-.265v-.028c.031-.187.053-.372.069-.555a22.015,22.015,0,0,0-6.8,2.836c-3.034,8.613,1.191,18.643,1.931,25.518.757,7.034-8.107,102.046-8.107,102.046h11.874s4.381-98.506,8.518-106.02,9.05-25.1,9.05-25.1C1871.4,886.532,1870.177,886.32,1870.177,886.32Z" transform="translate(-1647.981 -816.152)" fill="#fcfdfb"/>
    <path id="Path_907" data-name="Path 907" d="M1828.165,1076.259l-.416-.026c1.235-18.87-3.482-46.778-3.531-47.058l-.014-.08,4.74-7.348-4.824-2.285,5.766-8.963.349.224-5.508,8.565,4.823,2.285-4.908,7.616C1824.924,1030.86,1829.371,1057.843,1828.165,1076.259Z" transform="translate(-1630.926 -923.117)" fill="#c2def4"/>
    <path id="Path_908" data-name="Path 908" d="M1528.072,650.58l-.412-.06,7.917-54.63,5.8-.622-4.992-4.2,9.391-2.34-4.716-14.292.395-.13,4.856,14.717-9.035,2.251,5.115,4.3-6.452.69Z" transform="translate(-1315.876 -494.692)" fill="#c2def4"/>
    <path id="Path_909" data-name="Path 909" d="M1849.328,895.871a.672.672,0,0,1-.384-.367c-.124-.277-.416-.921,1.87-6.473,1.981-4.823,10-5.629,10.346-5.66l.116,1.248c-.093.01-7.615.772-9.308,4.892-1.89,4.6-1.866,5.5-1.858,5.584a.541.541,0,0,0-.362-.392Zm11.949-11.259-.058-.621Z" transform="translate(-1652.237 -813.611)" fill="#2f2e7a"/>
    <path id="Path_910" data-name="Path 910" d="M1812.477,972.716l-1.241-.139c.654-6.026-1.289-7.671-3.033-7.989-3.1-.566-4.629,2.861-5.361,5.838l-1.212-.3c1.216-4.942,3.63-7.348,6.793-6.767C1811.63,963.95,1813.067,967.27,1812.477,972.716Z" transform="translate(-1611.554 -882.439)" fill="#2f2e7a"/>
    <path id="Path_911" data-name="Path 911" d="M1790.029,1022.223a.426.426,0,0,1-.148-.028c-.247-.094-2.41-.97-2.357-2.512.05-1.329,2.068-8.287,2.155-8.584a.416.416,0,1,1,.8.233c-.578,1.985-2.079,7.363-2.122,8.383-.031.808,1.335,1.525,1.816,1.7a.416.416,0,0,1-.148.8Z" transform="translate(-1599.403 -923.374)" fill="#3f3092"/>
    <path id="Path_912" data-name="Path 912" d="M1838.727,1037.841a5.667,5.667,0,0,1-.624-.033.419.419,0,0,1,.1-.832c.51.06,2.051.065,2.4-.667a80.926,80.926,0,0,0,1.941-8.231.416.416,0,1,1,.815.162,85.817,85.817,0,0,1-2.012,8.426C1840.872,1037.678,1839.536,1037.841,1838.727,1037.841Z" transform="translate(-1642.653 -937.955)" fill="#3f3092"/>
    <circle id="Ellipse_144" data-name="Ellipse 144" cx="0.99" cy="0.99" r="0.99" transform="translate(189.492 97.363)" fill="#3f3092"/>
    <circle id="Ellipse_145" data-name="Ellipse 145" cx="0.99" cy="0.99" r="0.99" transform="translate(194.443 98.582)" fill="#3f3092"/>
    <path id="Path_913" data-name="Path 913" d="M2036.634,904.966l-.405-1.18a.553.553,0,0,0-.277.211c.083-.139.851-1.8,2.2-15.261.554-5.536-.3-9.516-2.547-11.834a6.841,6.841,0,0,0-4.941-2.067l-.09-1.248a7.985,7.985,0,0,1,5.907,2.425c2.526,2.59,3.506,6.912,2.911,12.844-.636,6.367-1.224,10.938-1.748,13.586C2037.207,904.62,2036.959,904.856,2036.634,904.966Z" transform="translate(-1808.755 -805.184)" fill="#2f2e7a"/>
    <circle id="Ellipse_146" data-name="Ellipse 146" cx="2.543" cy="2.543" r="2.543" transform="translate(225.085 96.923)" fill="#dfe4f3"/>
    <circle id="Ellipse_147" data-name="Ellipse 147" cx="1.267" cy="1.267" r="1.267" transform="translate(226.36 98.198)" fill="#cbcee0"/>
    <path id="Path_914" data-name="Path 914" d="M1867.405,1303.291l18.672-14.173a1.062,1.062,0,0,1,1.542.277l18.332,29.443a1.061,1.061,0,0,1-.172,1.331l-16.47,15.591a1.059,1.059,0,0,1-1.611-.183l-20.534-30.859A1.059,1.059,0,0,1,1867.405,1303.291Z" transform="translate(-1667.851 -1162.922)" fill="#f0577c"/>
    <path id="Path_915" data-name="Path 915" d="M1455.26,939.454l17.332-13.154,17.4,27.462-15.309,14.486Z" transform="translate(-1253.513 -797.884)" fill="#fcfdfb"/>
    <path id="Path_916" data-name="Path 916" d="M1497.376,942.44l1.582,2.179-5.461,4.069-1.657-2.046Z" transform="translate(-1285.021 -811.787)" fill="#3f3092"/>
    <rect id="Rectangle_202" data-name="Rectangle 202" width="18.381" height="0.416" transform="matrix(0.793, -0.609, 0.609, 0.793, 205.185, 142.483)" fill="#3f3092"/>
    <rect id="Rectangle_203" data-name="Rectangle 203" width="18.38" height="0.416" transform="matrix(0.793, -0.609, 0.609, 0.793, 206.484, 144.361)" fill="#3f3092"/>
    <rect id="Rectangle_204" data-name="Rectangle 204" width="18.381" height="0.416" transform="matrix(0.793, -0.609, 0.609, 0.793, 207.781, 146.239)" fill="#3f3092"/>
    <rect id="Rectangle_205" data-name="Rectangle 205" width="18.381" height="0.416" transform="matrix(0.793, -0.609, 0.609, 0.793, 209.08, 148.118)" fill="#3f3092"/>
    <rect id="Rectangle_206" data-name="Rectangle 206" width="18.38" height="0.416" transform="matrix(0.793, -0.609, 0.609, 0.793, 210.378, 149.996)" fill="#3f3092"/>
    <rect id="Rectangle_207" data-name="Rectangle 207" width="18.38" height="0.416" transform="matrix(0.793, -0.609, 0.609, 0.793, 211.678, 151.875)" fill="#3f3092"/>
    <rect id="Rectangle_208" data-name="Rectangle 208" width="18.381" height="0.416" transform="matrix(0.793, -0.609, 0.609, 0.793, 212.975, 153.753)" fill="#3f3092"/>
    <path id="Path_917" data-name="Path 917" d="M1983.463,1472.25a10.365,10.365,0,0,1-3.656,1.784c-1.808.348-2.574-.277-3.965-.488s.069,1.525,1.877,2.365-.97,3.2-3.617,4.662a7,7,0,0,0-2.135,1.654,1.166,1.166,0,0,0-.194.34c-.051.139-.08.331.138.416a.464.464,0,0,0,.254.019,17.76,17.76,0,0,0,4.944-2.158.157.157,0,0,1,.2.226,9.075,9.075,0,0,1-3.068,2.842c-2.435,1.386-2.08,4.036.071,2.3,1.737-1.4,4.289-3.571,5.214-4.36a.125.125,0,0,1,.2.139,11.947,11.947,0,0,1-2.864,3.708c-.8.815.416.832.97.586a19.631,19.631,0,0,0,4.194-2.971c.139-.108.535-.485.728-.437.291.073-.058.523-.187.675-.693.823-1.543,1.511-2.274,2.3a.833.833,0,0,0-.183.259.287.287,0,0,0,.044.3.416.416,0,0,0,.34.072,7.323,7.323,0,0,0,3.638-1.679c1.705-1.338,3.2-2.919,4.931-4.23Z" transform="translate(-1758.078 -1320.853)" fill="#f8afac"/>
    <path id="Path_918" data-name="Path 918" d="M2087.308,1137.05c-.9.3-4.7,1.894-3.556,7.109,1.291,5.9,3.265,6.822-.212,13s-5.056,14.3-2.975,17.156h0c3.837-6.685,8.612-15.466,8.942-18.325C2089.942,1152.3,2088.169,1141.805,2087.308,1137.05Z" transform="translate(-1851.016 -1032.123)" fill="#4189c8"/>
    <path id="Path_919" data-name="Path 919" d="M2097.031,1397.824s.448,11.368-2.319,20.038-11.207,13.133-8.369,21.872-4.693,15.552-4.693,15.552h18.919v-61.5Z" transform="translate(-1852.754 -1253.27)" fill="#4189c8"/>
    <path id="Path_920" data-name="Path 920" d="M2062.608,1119.8s3.2,16.5,2.644,21.33-13.781,26.526-13.781,26.526l6.269,9.323,16.834-19.2" transform="translate(-1826.758 -1017.264)" fill="#69aee0"/>
    <path id="Path_921" data-name="Path 921" d="M2056.183,1177.083l-6.493-9.657.069-.114c.139-.216,13.208-21.72,13.752-26.447s-2.609-21.1-2.634-21.266l.409-.079c.13.675,3.2,16.59,2.645,21.394-.234,2.028-2.634,7.127-7.125,15.153-3.072,5.487-6.122,10.536-6.617,11.349l6.043,8.988,16.658-18.993.312.277Z" transform="translate(-1825.225 -1017.023)" fill="#c2def4"/>
    <path id="Path_922" data-name="Path 922" d="M1698.26,1233.21s1.73,5.2.987,9.376" transform="translate(-1522.515 -1114.952)" fill="#69aee0"/>
    <path id="Path_923" data-name="Path 923" d="M1698.219,1242.175l-.409-.074c.726-4.079-.962-9.222-.98-9.273l.4-.139C1697.3,1232.911,1698.965,1237.991,1698.219,1242.175Z" transform="translate(-1521.283 -1114.504)" fill="#c2def4"/>
    <path id="Path_924" data-name="Path 924" d="M1648.645,1218.951l-.208,3.327,5.3-28.558s-4.6,6.624-5.089,10.774-.487,12.405-4.174,14.455-7.285,2.594-11.241.94h0C1639.67,1227.736,1648.645,1218.951,1648.645,1218.951Z" transform="translate(-1466.5 -1080.936)" fill="#4189c8"/>
    <line id="Line_46" data-name="Line 46" x1="7.673" y2="38.045" transform="translate(182.145 99.97)" fill="#69aee0"/>
    <rect id="Rectangle_209" data-name="Rectangle 209" width="38.812" height="0.416" transform="translate(181.933 137.96) rotate(-78.61)" fill="#c2def4"/>
    <path id="Path_925" data-name="Path 925" d="M1920.69,723.721a2.981,2.981,0,1,1,2.981-2.981A2.98,2.98,0,0,1,1920.69,723.721Zm0-5.684a2.7,2.7,0,1,0,2.7,2.7A2.7,2.7,0,0,0,1920.69,718.037Z" transform="translate(-1711.542 -670.96)" fill="#fcfdfb"/>
    <path id="Path_926" data-name="Path 926" d="M1855.961,725.821a2.981,2.981,0,1,1,2.98-2.981A2.981,2.981,0,0,1,1855.961,725.821Zm0-5.684a2.7,2.7,0,1,0,2.7,2.7,2.7,2.7,0,0,0-2.7-2.7Z" transform="translate(-1655.785 -672.769)" fill="#fcfdfb"/>
    <path id="Path_927" data-name="Path 927" d="M1894.539,736.209l-.169-.22c.02-.015,1.916-1.436,3.456-.293l-.165.222C1896.286,734.9,1894.556,736.2,1894.539,736.209Z" transform="translate(-1691.437 -686.027)" fill="#fcfdfb"/>
    <rect id="Rectangle_210" data-name="Rectangle 210" width="8.534" height="0.277" transform="translate(211.991 48.971)" fill="#fcfdfb"/>
    <rect id="Rectangle_211" data-name="Rectangle 211" width="1.016" height="0.277" transform="translate(196.317 49.933)" fill="#fcfdfb"/>
    <path id="Path_928" data-name="Path 928" d="M1390.906,380.18h-44.255a2.942,2.942,0,0,0-2.942,2.943v44.253a2.942,2.942,0,0,0,2.942,2.943h31.193l11.484,8.669a1.012,1.012,0,0,0,1.6-1.026l-1.689-7.643h1.664a2.943,2.943,0,0,0,2.943-2.943V383.123A2.943,2.943,0,0,0,1390.906,380.18Z" transform="translate(-1217.117 -380.18)" fill="#f3fafe"/>
    <circle id="Ellipse_148" data-name="Ellipse 148" cx="10.47" cy="10.47" r="10.47" transform="translate(198.929 207.394)" fill="#fff"/>
    <path id="Path_929" data-name="Path 929" d="M1169.414,1700.24s-2.044,30.294-3.474,43.392-5.459,57.5-5.459,57.5l-18.264-1.082-1.289-78.506-1.248-21.3Z" transform="translate(-1041.372 -1517.236)" fill="#4eafeb"/>
    <path id="Path_930" data-name="Path 930" d="M895.81,1708.568s.774,14.07,4.8,26.453,4.02,70.165,4.02,70.165l21.765-1.424,10.873-96.555S908.334,1701.334,895.81,1708.568Z" transform="translate(-831.311 -1521.299)" fill="#4eafeb"/>
    <path id="Path_931" data-name="Path 931" d="M1166.2,1732.69s1.123,13.734-2.452,25.231-4.349,9.7-5.239,23.243,3.929,47.364,3.929,47.364l-9.04-.535-.738-44.957,5.849-49.478Z" transform="translate(-1052.553 -1545.187)" fill="#458ebc"/>
    <rect id="Rectangle_212" data-name="Rectangle 212" width="39.885" height="0.555" transform="matrix(0.119, -0.993, 0.993, 0.119, 100.936, 227.924)" fill="#2489c7"/>
    <path id="Path_932" data-name="Path 932" d="M961.049,2009.438l-.555-.061c1.763-15.624-2.511-53.957-2.555-54.344l.554-.062C958.539,1955.357,962.821,1993.753,961.049,2009.438Z" transform="translate(-884.828 -1736.652)" fill="#2489c7"/>
    <rect id="Rectangle_213" data-name="Rectangle 213" width="70.137" height="0.555" transform="translate(116.389 277.855) rotate(-83.52)" fill="#2489c7"/>
    <path id="Path_933" data-name="Path 933" d="M940.291,1104.047c4.176-1.963,3.829-4.549,3.829-4.549-1.087-10.515-5.974-21.455-9-27.39a38.113,38.113,0,0,0-2.429-4.474l-.008-.014h0a24.129,24.129,0,0,0-6.415-6.908c-6.013-4.206-14.36-4.11-21.3-2.8-6.272,1.182-10.725,4.788-14.608,9.7,0,0-9.011,8.267-11.566,36.4-.366,4.009.139,8.734,3.987,10.579-1.629,20.622-1.714,35.938-1.714,35.938s47.744,5.545,63.543-4.269C944.611,1146.272,942.832,1124.565,940.291,1104.047Z" transform="translate(-816.569 -963.268)" fill="#3f3092"/>
    <path id="Path_934" data-name="Path 934" d="M1009.443,858.581a40.562,40.562,0,0,1,.944,12.18,3.744,3.744,0,0,0,.442,2,14.23,14.23,0,0,0,1.213,1.862h14.909c-1.313-1.583-2.759-2.943-3.444-3.632a6.654,6.654,0,0,1-1.436-3.4c3.478-.351,5.667-3.549,6.714-6.678a26.937,26.937,0,0,0-1.421-17.587,11.636,11.636,0,0,0-3.229-4.08,13.336,13.336,0,0,0-12.015-2.218c-2.748.875-6.347,2.375-7.716,5.142-1.45,2.938.768,9.118.768,9.118-1.539.578-.534,2.921.693,5.5A2.953,2.953,0,0,0,1009.443,858.581Z" transform="translate(-924.426 -773.193)" fill="url(#linear-gradient)"/>
    <path id="Path_935" data-name="Path 935" d="M1125.478,917.768a.208.208,0,0,1-.205-.173c-.078-.468.125-.844.567-1.664l.1-.176c.126-.236.169-.4.13-.5-.071-.186-.471-.334-.97-.521-.139-.053-.3-.111-.469-.176-1.352-.525-2.286-2.935-2.325-3.037a.208.208,0,0,1,.388-.148c.01.024.908,2.34,2.088,2.8.165.065.319.122.462.175.653.241,1.084.4,1.221.764a1.021,1.021,0,0,1-.153.848l-.1.177c-.416.757-.578,1.07-.523,1.4a.208.208,0,0,1-.17.24Z" transform="translate(-1026.394 -837.619)" fill="#f37f85"/>
    <ellipse id="Ellipse_149" data-name="Ellipse 149" cx="0.747" cy="0.455" rx="0.747" ry="0.455" transform="matrix(0.014, -1, 1, 0.014, 99.437, 74.492)" fill="#3f3092"/>
    <ellipse id="Ellipse_150" data-name="Ellipse 150" cx="0.747" cy="0.455" rx="0.747" ry="0.455" transform="matrix(0.014, -1, 1, 0.014, 92.747, 76.621)" fill="#3f3092"/>
    <path id="Path_936" data-name="Path 936" d="M1131.282,892.262a3.73,3.73,0,0,1-2.281-.606.278.278,0,0,1,.349-.431,2.494,2.494,0,0,0,.927.377,6,6,0,0,0,2.95-.19.277.277,0,0,1,.151.534A7.716,7.716,0,0,1,1131.282,892.262Z" transform="translate(-1032.086 -820.324)" fill="#3f3092"/>
    <path id="Path_937" data-name="Path 937" d="M1074.925,901.064a.278.278,0,1,1-.047-.555,6.036,6.036,0,0,0,2.741-1.109,2.505,2.505,0,0,0,.671-.742.277.277,0,1,1,.5.236c-.032.066-.8,1.634-3.818,2.163Z" transform="translate(-985.334 -826.643)" fill="#3f3092"/>
    <path id="Path_938" data-name="Path 938" d="M1017.419,956.226a.211.211,0,0,1-.127-.043c-.671-.523-.437-1.02-.211-1.5a3.05,3.05,0,0,0,.322-.97c.049-.383-.2-.479-.764-.611-.416-.1-.993-.23-.9-.821a.769.769,0,0,1,.406-.622,1.021,1.021,0,0,1,.854.1.208.208,0,1,1-.211.359h0a.63.63,0,0,0-.469-.08c-.084.04-.139.146-.17.315s.075.23.578.347c.471.108,1.184.277,1.084,1.068a3.5,3.5,0,0,1-.358,1.092c-.226.478-.319.678.089,1a.207.207,0,0,1,.037.291A.21.21,0,0,1,1017.419,956.226Z" transform="translate(-934.608 -872.378)" fill="#f37f85"/>
    <path id="Path_939" data-name="Path 939" d="M990.8,811.117s1.7-.5,2.263.782,1.842,4.127,2.7,2.989a3.737,3.737,0,0,0,0-4.554c-1.209-1.281-2.634-4.91-.139-6.191s3.772.356,4.981-1.068,1.14-2.911,4.056-2.7,6.832,1.921,8.61-.427,5.48-9.011-.64-9.982-7.33,3.086-8.179,3.8-4.838-1.779-9.607-.925-9.8,9.606-6.617,14.873A4.319,4.319,0,0,0,990.8,811.117Z" transform="translate(-910.057 -733.025)" fill="#3f3092"/>
    <path id="Path_940" data-name="Path 940" d="M620.53,581.43l-.95,2.088.474.427,1-1.8Z" transform="translate(-533.686 -500.824)" fill="#3f3092"/>
    <path id="Path_941" data-name="Path 941" d="M1129.615,969.755a.2.2,0,0,1-.147-.061.207.207,0,0,1,0-.294,2.171,2.171,0,0,1,1.278-.663.693.693,0,0,1,.519.247.9.9,0,0,0,.868.3.5.5,0,0,0,.373-.416c.151-.8.372-1.238.714-1.435a1.011,1.011,0,0,1,.876-.024c.376.139.527.1.584.075s.093-.116.139-.249a.633.633,0,0,1,.245-.4.208.208,0,1,1,.215.356.619.619,0,0,0-.061.161.736.736,0,0,1-.344.5,1.17,1.17,0,0,1-.911-.056.634.634,0,0,0-.531,0c-.22.128-.388.5-.512,1.152a.912.912,0,0,1-.672.738,1.307,1.307,0,0,1-1.289-.426.288.288,0,0,0-.219-.1,1.768,1.768,0,0,0-.97.541.2.2,0,0,1-.154.057Z" transform="translate(-1032.524 -885.479)" fill="#f37f85"/>
    <path id="Path_942" data-name="Path 942" d="M1060.746,929.36s-.5,1.6,0,2.242,1.14-.356.926-.89A6.689,6.689,0,0,0,1060.746,929.36Z" transform="translate(-973.19 -853.225)" fill="#fcfdfb"/>
    <path id="Path_943" data-name="Path 943" d="M1075.1,938.19s-.308,1.587.148,1.835.67-.367.634-.61A6.968,6.968,0,0,0,1075.1,938.19Z" transform="translate(-985.657 -860.831)" fill="#fcfdfb"/>
    <path id="Path_944" data-name="Path 944" d="M1082.049,1020.5h-.01a8.78,8.78,0,0,1-7.07-3.377,7.766,7.766,0,0,1-1.424-3.154.21.21,0,1,1,.416-.062,7.5,7.5,0,0,0,1.357,2.983,8.38,8.38,0,0,0,6.75,3.188.208.208,0,0,1-.008.416Z" transform="translate(-984.404 -925.897)" fill="#f37f85"/>
    <ellipse id="Ellipse_151" data-name="Ellipse 151" cx="2.798" cy="0.692" rx="2.798" ry="0.692" transform="matrix(0.934, -0.356, 0.356, 0.934, 90.476, 80.114)" fill="#ef4b64"/>
    <ellipse id="Ellipse_152" data-name="Ellipse 152" cx="1.788" cy="0.523" rx="1.788" ry="0.523" transform="translate(100.59 76.567) rotate(-13.55)" fill="#ef4b64"/>
    <path id="Path_945" data-name="Path 945" d="M1137.573,1014.465a.206.206,0,0,1-.118-.036.209.209,0,0,1-.053-.29,2.772,2.772,0,0,1,2.958-1.109.209.209,0,0,1-.139.394,1.941,1.941,0,0,0-1.78.277,2.91,2.91,0,0,0-.7.672A.209.209,0,0,1,1137.573,1014.465Z" transform="translate(-1039.379 -925.19)" fill="#f37f85"/>
    <path id="Path_946" data-name="Path 946" d="M1028.722,841.552l-.232-.154c.029-.043,2.9-4.267,6.483-3.327,2.964.775,9.4.853,11.878-.632a1.885,1.885,0,0,0,.958-1.109l.269.064a2.14,2.14,0,0,1-1.084,1.291c-2.536,1.525-9.083,1.447-12.092.661a4.847,4.847,0,0,0-4.366,1.264A10.135,10.135,0,0,0,1028.722,841.552Z" transform="translate(-945.597 -773.092)" fill="#6169b0"/>
    <path id="Path_947" data-name="Path 947" d="M1130.948,806.838a1.585,1.585,0,0,1-.728-.1l.19-.2a.064.064,0,0,0-.021-.014,7.276,7.276,0,0,0,4.215-.911,2.311,2.311,0,0,0,1.123-2.052c-.015-.724-.232-1.2-.625-1.366a2.1,2.1,0,0,0-1.941.639c-.534.481-.771,1.005-.655,1.371l-.263.084a1.755,1.755,0,0,1,.731-1.664,2.332,2.332,0,0,1,2.232-.693c.351.15.772.555.794,1.615a2.805,2.805,0,0,1-1.941,2.664A8.176,8.176,0,0,1,1130.948,806.838Z" transform="translate(-1033.224 -743.383)" fill="#6169b0"/>
    <path id="Path_948" data-name="Path 948" d="M1003.989,883.792c-2.462-2.344-.832-6.377-.819-6.422l.256.105c-.017.039-1.569,3.9.754,6.115Z" transform="translate(-923.322 -808.443)" fill="#6169b0"/>
    <path id="Path_949" data-name="Path 949" d="M890.563,2439.41l2.462,7.9s-17.113,9.127-30.4,7.568,16.445-12.641,16.445-12.641Z" transform="translate(-799.778 -2153.933)" fill="#3f3092"/>
    <path id="Path_950" data-name="Path 950" d="M1009.256,2409l.6,4.217s-5.986,5.317-11.5,2.827l-.665-4.7Z" transform="translate(-919.067 -2127.738)" fill="#f8afac"/>
    <path id="Path_951" data-name="Path 951" d="M1169.482,2452l-1.332,8.179s18.221,6.641,31.162,3.236-18.05-10.217-18.05-10.217Z" transform="translate(-1065.895 -2164.777)" fill="#3f3092"/>
    <path id="Path_952" data-name="Path 952" d="M905,1454.835s6.952,5.378,11.885,2.569,7.553-6.88,13.9-7.272,12.026-4.942,12.026-4.942l-16.956,1.248-16.3-1.248-4.117,3.69Z" transform="translate(-839.227 -1297.544)" fill="#2f2e7a"/>
    <path id="Path_953" data-name="Path 953" d="M1137.42,1102.862s9.06,11.03,9.273,22.345l9.394-2.135s-5.731-19.3-11.405-26.942Z" transform="translate(-1039.426 -996.875)" fill="#69afe1"/>
    <path id="Path_954" data-name="Path 954" d="M1146.123,1098.308q-.718-1.2-1.442-2.178l-7.262,6.732s.319.39.832,1.1C1138.367,1104.1,1145.481,1102.364,1146.123,1098.308Z" transform="translate(-1039.426 -996.875)" fill="#4189c8"/>
    <path id="Path_955" data-name="Path 955" d="M1018.227,1033.464a6.79,6.79,0,0,1,2.94,1.141c.869.62,1.461,1.546,2.292,2.21,1.109.886,2.3.622,3.6.578a40.612,40.612,0,0,0,5.07-.495,2.466,2.466,0,0,1,1.078-.019.773.773,0,0,1,.492,1.172,1.343,1.343,0,0,0-.3.832.95.95,0,0,0,.477.575c.8.525,1.739.817,2.544,1.338a2.749,2.749,0,0,1,1.171,1.352c.555,1.636-1.029,3.5-2.218,4.466a11.835,11.835,0,0,1-5.051,2.266c-6.026,1.281-10.913.9-14.376-1.234s-3.557-5.545-1.447-6.546,3.013-2.4,2.254-3.811c-.631-1.17-.717-3.646,1.076-3.825a1.707,1.707,0,0,1,.387,0Z" transform="translate(-932.335 -942.886)" fill="#69afe1"/>
    <path id="Path_956" data-name="Path 956" d="M1037.05,1065.281a17.973,17.973,0,0,0,6.919,1.3s-5.035-1.565-6.4-3.482A2.272,2.272,0,0,1,1037.05,1065.281Z" transform="translate(-952.97 -968.425)" fill="#4189c8"/>
    <path id="Path_957" data-name="Path 957" d="M1109.917,1085.27l-.078-.416c6.772-1.278,8.019-5.129,8.031-5.174l.4.122C1118.218,1079.975,1116.932,1083.943,1109.917,1085.27Z" transform="translate(-1015.669 -982.706)" fill="#c2def4"/>
    <path id="Path_958" data-name="Path 958" d="M1047.461,1065.01c-7.677-1.173-9.2-4.253-9.261-4.384l.377-.176c.014.029,1.525,3.015,8.946,4.149Z" transform="translate(-953.961 -966.142)" fill="#c2def4"/>
    <path id="Path_959" data-name="Path 959" d="M1250.593,1263.932c.165-.368,1.553-.858,2.289-2.454s1.963-2.412,1.921-1.185-1.022,3.148-.286,3.23a4.864,4.864,0,0,0,3.475-1.431c1.022-1.1,1.309-1.309,1.267-2.045s.9-.245,1.063.245a2.966,2.966,0,0,1,.205,1.51c-.08.658.04.493.286.944a1.17,1.17,0,0,1,0,1.441c-.416.4-.449.808-.082,1.135s.785.491.331,1.109-.74.613-.535,1.109.531.416-.287,1.023a10.069,10.069,0,0,1-6.337,2.534,9.292,9.292,0,0,1-2.613-3.373C1250.712,1266.268,1249.94,1265.38,1250.593,1263.932Z" transform="translate(-1136.694 -1137.746)" fill="#f8afac"/>
    <path id="Path_960" data-name="Path 960" d="M890.024,1132.91s-8.349,8.33-11.566,36.4c-3.488,30.413,54.983-7.417,54.983-7.417l-3.312-7.155-36.738,8.136s3.922-9.1,3.6-15.3" transform="translate(-816.235 -1028.557)" fill="#3f3092"/>
    <path id="Path_961" data-name="Path 961" d="M886.192,1272.473a11.554,11.554,0,0,1-6.153-1.454c-2.974-1.845-4.177-5.439-3.575-10.675l.555.064c-.574,5.01.542,8.425,3.316,10.146,6.216,3.857,19.8-1.177,30.092-6.079a213.871,213.871,0,0,0,20.952-11.618l-3.121-6.74-37.043,8.206.214-.5c.01-.022.987-2.3,1.913-5.3a31.506,31.506,0,0,0,1.664-9.876l.555-.028c.277,5.44-2.6,12.929-3.413,14.929l36.427-8.07,3.507,7.576-.2.13a214,214,0,0,1-21.211,11.784,92.538,92.538,0,0,1-17.191,6.5A31.508,31.508,0,0,1,886.192,1272.473Z" transform="translate(-814.518 -1119.612)" fill="#6169b0"/>
    <path id="Path_962" data-name="Path 962" d="M886.495,1381.688a5.148,5.148,0,0,1-4.485-1.536c-1.747-2.021-5.651-1.985-4.554-.509s3.6,2.613,1.849,3.04a9.507,9.507,0,0,1-8.152-2.052s-1.567.25-.427,1.483c0,0-.925.094-.416,1.091.1.2.566.742.416.738-.568-.018-.842.611-.049,1.065a8.06,8.06,0,0,0,.864.439.336.336,0,0,1,.162.469.528.528,0,0,0,.065.658c.427.427,8.95,4.5,15.1,1.232Z" transform="translate(-809.215 -1240.169)" fill="#f8afac"/>
    <path id="Path_963" data-name="Path 963" d="M1027.892,1309.716a118.612,118.612,0,0,1-16.294,5.258c-9.233,2.263-23.638,2.911-23.638,2.911l.377,6.119s24.283,4.684,46.064-6.858c0,0,3.936-1.7,3.829-4.548a51.153,51.153,0,0,0-1.49-8.078" transform="translate(-910.686 -1176.376)" fill="#3f3092"/>
    <path id="Path_964" data-name="Path 964" d="M998.764,1324.817a72.289,72.289,0,0,1-12.3-.946l-.211-.04-.408-6.615.277-.012c.139,0,14.484-.679,23.584-2.911a119.41,119.41,0,0,0,16.251-5.244l.218.51a119.964,119.964,0,0,1-16.336,5.268c-8.444,2.07-21.35,2.806-23.41,2.911l.347,5.621a76.651,76.651,0,0,0,14.608.855c7.99-.248,19.863-1.79,31.062-7.724l.019-.01c.037-.017,3.761-1.664,3.663-4.284a51.151,51.151,0,0,0-1.481-8.017l.536-.139a51.2,51.2,0,0,1,1.5,8.138c.111,2.956-3.708,4.687-3.986,4.809-11.3,5.983-23.261,7.536-31.312,7.784C1000.491,1324.8,999.612,1324.817,998.764,1324.817Z" transform="translate(-908.868 -1175.963)" fill="#6169b0"/>
    <path id="Path_965" data-name="Path 965" d="M1144.424,1544.656l-.524-.18c.914-2.659,2.394-3.258,11.2-5.774,4.065-1.162,6.251-2.5,6.5-3.972.19-1.135-.8-2.469-2.939-3.964a2.712,2.712,0,0,1-1.313-2.276c.01-2.827,4.518-5.961,4.714-6.1l.315.456c-.044.031-4.461,3.105-4.469,5.644a2.163,2.163,0,0,0,1.076,1.819c2.357,1.651,3.4,3.126,3.168,4.51-.288,1.727-2.542,3.171-6.891,4.413C1146.333,1541.786,1145.218,1542.345,1144.424,1544.656Z" transform="translate(-1045.007 -1364.042)" fill="#6169b0"/>
    <path id="Path_966" data-name="Path 966" d="M919.815,1191.715l-.555-.043c.116-1.485,1.3-2.784,2.441-4.04,1.723-1.891,2.681-3.137,1.461-4.49-2.7-3,4.237-9.7,4.533-9.982l.383.4a29.249,29.249,0,0,0-3.189,3.7c-1.262,1.783-2.513,4.186-1.318,5.512,1.644,1.824.065,3.559-1.463,5.235C921.033,1189.2,919.917,1190.422,919.815,1191.715Z" transform="translate(-851.51 -1063.227)" fill="#6169b0"/>
    <path id="Path_967" data-name="Path 967" d="M1177.76,2421.33v4.252s6.671,4.428,11.784,1.192v-4.752Z" transform="translate(-1074.173 -2138.359)" fill="#f8afac"/>
    <path id="Path_968" data-name="Path 968" d="M880.635,1405.428a16.989,16.989,0,0,1-7.316-2.1.138.138,0,1,1,.139-.24,16.752,16.752,0,0,0,7.177,2.067.139.139,0,1,1,0,.277Z" transform="translate(-811.878 -1261.259)" fill="#f37f85"/>
    <path id="Path_969" data-name="Path 969" d="M879.9,1418.322h-.017a37.269,37.269,0,0,1-6.55-1.786.139.139,0,1,1,.1-.261,37.006,37.006,0,0,0,6.487,1.772.139.139,0,0,1-.017.277Z" transform="translate(-811.876 -1272.631)" fill="#f37f85"/>
    <path id="Path_970" data-name="Path 970" d="M885.42,1431.967h-.008a28.078,28.078,0,0,1-5.013-1.248.139.139,0,0,1,.087-.264,29.041,29.041,0,0,0,4.942,1.228.142.142,0,0,1-.008.283Z" transform="translate(-817.955 -1284.847)" fill="#f37f85"/>
    <path id="Path_971" data-name="Path 971" d="M1307.417,1279.188a.138.138,0,0,1-.072-.257,7.016,7.016,0,0,0,2.079-2.127.138.138,0,1,1,.237.143,7.3,7.3,0,0,1-2.177,2.218A.139.139,0,0,1,1307.417,1279.188Z" transform="translate(-1185.735 -1152.445)" fill="#f37f85"/>
    <path id="Path_972" data-name="Path 972" d="M1307.414,1300.6a.139.139,0,0,1-.054-.266,15.651,15.651,0,0,1,2.383-.9.142.142,0,0,1,.058.277,15.647,15.647,0,0,0-2.332.886A.125.125,0,0,1,1307.414,1300.6Z" transform="translate(-1185.734 -1171.99)" fill="#f37f85"/>
    <circle id="Ellipse_153" data-name="Ellipse 153" cx="5.771" cy="5.771" r="5.771" transform="translate(58.103 74.77)" fill="#f3fafe"/>
    <path id="Path_973" data-name="Path 973" d="M873,752.7a2.947,2.947,0,0,1-2.947-2.947V721.687a2.947,2.947,0,1,1,5.895,0v28.061A2.947,2.947,0,0,1,873,752.7Z" transform="translate(-809.122 -671.804)" fill="#f3fafe"/>
    <circle id="Ellipse_154" data-name="Ellipse 154" cx="3.88" cy="3.88" r="3.88" transform="translate(59.994 76.661)" fill="#ef4b64"/>
    <rect id="Rectangle_214" data-name="Rectangle 214" width="2.218" height="22.205" transform="translate(62.765 55.74)" fill="#ef4b64"/>
    <rect id="Rectangle_215" data-name="Rectangle 215" width="1.525" height="0.416" transform="translate(64.273 51.764)" fill="#3f3092"/>
    <rect id="Rectangle_216" data-name="Rectangle 216" width="0.944" height="0.416" transform="translate(64.854 53.648)" fill="#3f3092"/>
    <rect id="Rectangle_217" data-name="Rectangle 217" width="1.525" height="0.416" transform="translate(64.273 55.865)" fill="#3f3092"/>
    <rect id="Rectangle_218" data-name="Rectangle 218" width="0.944" height="0.416" transform="translate(64.854 57.749)" fill="#3f3092"/>
    <rect id="Rectangle_219" data-name="Rectangle 219" width="1.525" height="0.416" transform="translate(64.273 59.967)" fill="#3f3092"/>
    <rect id="Rectangle_220" data-name="Rectangle 220" width="0.944" height="0.416" transform="translate(64.854 61.851)" fill="#3f3092"/>
    <rect id="Rectangle_221" data-name="Rectangle 221" width="1.525" height="0.416" transform="translate(64.273 64.069)" fill="#3f3092"/>
    <rect id="Rectangle_222" data-name="Rectangle 222" width="0.944" height="0.416" transform="translate(64.854 65.953)" fill="#3f3092"/>
    <rect id="Rectangle_223" data-name="Rectangle 223" width="1.525" height="0.416" transform="translate(64.273 68.17)" fill="#3f3092"/>
    <rect id="Rectangle_224" data-name="Rectangle 224" width="0.944" height="0.416" transform="translate(64.854 70.054)" fill="#3f3092"/>
    <rect id="Rectangle_225" data-name="Rectangle 225" width="1.525" height="0.416" transform="translate(64.273 72.272)" fill="#3f3092"/>
    <rect id="Rectangle_226" data-name="Rectangle 226" width="0.944" height="0.416" transform="translate(64.854 74.156)" fill="#3f3092"/>
    <path id="Path_974" data-name="Path 974" d="M1418.155,447.389h-36.1a.555.555,0,0,1,0-1.109h36.1a.555.555,0,1,1,0,1.109Z" transform="translate(-1249.668 -437.116)" fill="#b6d8ef"/>
    <path id="Path_975" data-name="Path 975" d="M1418.155,486.819h-36.1a.555.555,0,0,1,0-1.109h36.1a.555.555,0,1,1,0,1.109Z" transform="translate(-1249.668 -471.08)" fill="#b6d8ef"/>
    <path id="Path_976" data-name="Path 976" d="M1418.155,526.249h-36.1a.555.555,0,0,1,0-1.109h36.1a.555.555,0,1,1,0,1.109Z" transform="translate(-1249.668 -505.044)" fill="#b6d8ef"/>
    <path id="Path_977" data-name="Path 977" d="M1418.155,565.679h-36.1a.555.555,0,0,1,0-1.109h36.1a.555.555,0,1,1,0,1.109Z" transform="translate(-1249.668 -539.007)" fill="#b6d8ef"/>
    <path id="Path_978" data-name="Path 978" d="M1418.155,605.109h-36.1a.555.555,0,0,1,0-1.109h36.1a.555.555,0,1,1,0,1.109Z" transform="translate(-1249.668 -572.971)" fill="#b6d8ef"/>
    <path id="Path_979" data-name="Path 979" d="M1418.155,644.539h-36.1a.555.555,0,0,1,0-1.109h36.1a.555.555,0,1,1,0,1.109Z" transform="translate(-1249.668 -606.935)" fill="#b6d8ef"/>
    <path id="Path_980" data-name="Path 980" d="M2371.458,2052.17H2357.55l6.061,35.336a.308.308,0,0,0-.058.169c0,.769,3.519,1.386,7.86,1.386s7.862-.624,7.862-1.386l6.091-35.505Z" transform="translate(-2090.406 -1820.377)" fill="#f3fafe"/>
    <ellipse id="Ellipse_155" data-name="Ellipse 155" cx="13.908" cy="2.591" rx="13.908" ry="2.591" transform="translate(267.145 229.202)" fill="#aaceed"/>
    <path id="Path_981" data-name="Path 981" d="M2345.614,1687.006c-3.882,3.5-.194-5.246,1.2-9.566s.162-8.318-3.918-3.494-4.274,1.59-4.469-2.642-1.359-28.213-5.521-26.27-.89,33.612-1.862,38.662-2.526-4.08-2.912-9.13-.97-28.172-5.822-24.954,3.3,34.474.777,37-4.08-10.49-9.132-9.171c-3.988,1.042,3.315,16.359,6.563,22.759,2.3-.84,6.987-1.417,12.4-1.417a46.787,46.787,0,0,1,11.766,1.21,22.794,22.794,0,0,1,4.052-7.553C2352.414,1688.172,2349.5,1683.509,2345.614,1687.006Z" transform="translate(-2051.852 -1469.588)" fill="#9ac0dd"/>
    <path id="Path_982" data-name="Path 982" d="M2368.45,2034.9c.864,1.7,1.441,2.773,1.441,2.773a60.786,60.786,0,0,0,21.9,0h0a25.078,25.078,0,0,1,.81-2.978,46.786,46.786,0,0,0-11.766-1.21C2375.437,2033.487,2370.744,2034.064,2368.45,2034.9Z" transform="translate(-2099.794 -1804.286)" fill="#9ac0dd"/>
    <rect id="Rectangle_227" data-name="Rectangle 227" width="47.273" height="70.003" transform="translate(0 57.401)" fill="#aaceed"/>
    <rect id="Rectangle_228" data-name="Rectangle 228" width="47.273" height="70.003" transform="translate(2.037 55.033)" fill="#dfedf8"/>
    <path id="Path_983" data-name="Path 983" d="M502.632,856.525H459.24V790.12h43.392Zm-43.115-.277h42.838V790.4H459.517Z" transform="translate(-455.264 -733.289)" fill="#f3fafe"/>
    <rect id="Rectangle_229" data-name="Rectangle 229" width="60.958" height="37.568" transform="translate(44.457 59.555) rotate(90)" fill="#9ac0dd"/>
    <path id="Path_984" data-name="Path 984" d="M589.859,865.21c-5.849,0-10.589,4.418-10.589,9.869a9.237,9.237,0,0,0,.416,2.728h8.308v6.984a11.5,11.5,0,0,0,1.867.155c5.848,0,10.589-4.418,10.589-9.868S595.706,865.21,589.859,865.21Z" transform="translate(-558.654 -797.969)" fill="#dfedf8"/>
    <path id="Path_985" data-name="Path 985" d="M530.663,956.08h-8.3v25.032h16.611V963.064A10.364,10.364,0,0,1,530.663,956.08Z" transform="translate(-509.633 -876.241)" fill="#dfedf8"/>
  </g>
</svg>
