<svg id="Graphic" xmlns="http://www.w3.org/2000/svg" xmlns:xlink="http://www.w3.org/1999/xlink" width="350.569" height="322.988" viewBox="0 0 350.569 322.988">
  <defs>
    <linearGradient id="linear-gradient" x1="0.5" y1="0.341" x2="0.5" y2="-0.144" gradientUnits="objectBoundingBox">
      <stop offset="0" stop-color="#f8afac"/>
      <stop offset="1" stop-color="#ef4b64"/>
    </linearGradient>
    <clipPath id="clip-path">
      <rect id="Rectangle_127" data-name="Rectangle 127" width="43.528" height="46.798" rx="21.764" fill="none"/>
    </clipPath>
    <clipPath id="clip-path-2">
      <rect id="Rectangle_141" data-name="Rectangle 141" width="35.101" height="37.736" rx="17.55" fill="none"/>
    </clipPath>
  </defs>
  <ellipse id="Ellipse_101" data-name="Ellipse 101" cx="16.028" cy="6.999" rx="16.028" ry="6.999" transform="translate(52.301 299.706)" fill="#aaceed"/>
  <path id="Path_573" data-name="Path 573" d="M1376.323,2279.252c9.87,17.529,43.539,19.634,61.06,21.88,12.517,1.6,25.757,3.208,38.122-.217,12.5-3.461,24.047-12,34.348-19.56,1.781-1.308,3.677-2.8,4.17-4.956.669-2.916-1.49-5.67-3.635-7.762-26.468-25.811-63.43-21.371-96.774-15.934-10.854,1.769-46.535,7.336-37.614,25.938Q1376.155,2278.955,1376.323,2279.252Z" transform="translate(-1225.998 -1979.954)" fill="#aaceed"/>
  <rect id="Rectangle_121" data-name="Rectangle 121" width="81.836" height="45.793" rx="22.897" transform="translate(22.576 0.654)" fill="#b7d8ee"/>
  <path id="Path_574" data-name="Path 574" d="M578.586,448.232H511.259a7.917,7.917,0,0,1-7.909-7.909V409.039a7.917,7.917,0,0,1,7.909-7.909h67.327a7.917,7.917,0,0,1,7.909,7.909v31.284A7.917,7.917,0,0,1,578.586,448.232Zm-67.327-45.795a6.606,6.606,0,0,0-6.6,6.6v31.286a6.607,6.607,0,0,0,6.6,6.6h67.327a6.607,6.607,0,0,0,6.6-6.6V409.039a6.606,6.606,0,0,0-6.6-6.6Z" transform="translate(-481.427 -401.13)" fill="#e7f3fc"/>
  <path id="Path_575" data-name="Path 575" d="M909.366,1417.194s-17.822,4.34-26.716,24.838c-8.915,20.542-13.243,45.5-13.077,67.833.093,12.6,3.134,25.7,11.44,35.173,5.354,6.106,12.58,10.338,20.167,13.23,25.841,9.868,54.832,10.784,80.4-.244,12.844-5.54,24.628-13.262,35.992-21.419,4.75-3.408,9.5-6.958,13.116-11.553,4.859-6.179,6.106-14,4.483-21.6-1.406-6.589-4.652-12.631-8.141-18.391-4.812-7.932-10.419-15.755-18.372-20.532-7.329-4.4-13.956-6.625-19.11-13.778-2.573-3.566-5.254-7.1-8.008-10.525-6.789-8.45-14.862-15.682-24.946-19.94C941.751,1414.017,924.961,1414.474,909.366,1417.194Z" transform="translate(-794.404 -1267.855)" fill="#b7d8ee"/>
  <path id="Path_576" data-name="Path 576" d="M938.3,1562.806h-.672a115.308,115.308,0,0,1-40.532-7.757c-8.641-3.3-15.514-7.814-20.425-13.414-5.216-5.949-11.465-16.953-11.6-35.6-.176-23.643,4.61-48.466,13.131-68.1a45.985,45.985,0,0,1,16.937-20.394,36.288,36.288,0,0,1,10.226-4.821l.042-.009c19.133-3.335,34.7-2.31,47.6,3.136,9.191,3.881,17.434,10.467,25.2,20.132,2.69,3.344,5.391,6.9,8.028,10.553,3.841,5.323,8.442,7.817,13.77,10.706,1.663.9,3.383,1.835,5.146,2.893,8.325,5,14.07,13.3,18.593,20.755,3.408,5.618,6.763,11.758,8.221,18.593,1.762,8.26.125,16.126-4.61,22.146-3.624,4.609-8.335,8.156-13.247,11.681-10.209,7.326-22.48,15.607-36.115,21.487A99.613,99.613,0,0,1,938.3,1562.806Zm-32.647-148.811a35.963,35.963,0,0,0-9.848,4.671,44.73,44.73,0,0,0-16.406,19.788c-8.449,19.481-13.2,44.1-13.022,67.568.135,18.244,6.208,28.966,11.277,34.746,4.77,5.439,11.468,9.831,19.908,13.054a114.013,114.013,0,0,0,40.074,7.672,98.432,98.432,0,0,0,39.834-7.9c13.52-5.831,25.719-14.064,35.87-21.349,4.833-3.469,9.463-6.954,12.982-11.428,4.491-5.709,6.038-13.189,4.361-21.063-1.417-6.644-4.712-12.668-8.06-18.187-4.44-7.32-10.069-15.458-18.148-20.311-1.745-1.044-3.445-1.97-5.1-2.864-5.234-2.842-10.193-5.524-14.208-11.092-2.617-3.635-5.311-7.167-7.987-10.5-7.627-9.492-15.7-15.951-24.69-19.747C939.846,1411.7,924.518,1410.709,905.657,1413.995ZM905.676,1413.995Z" transform="translate(-790.558 -1264.016)" fill="#e7f3fc"/>
  <path id="Path_577" data-name="Path 577" d="M1146.028,1588.494s-31.007,10.972-50.592,4.01-32.958-30.249-31.882-46.259,24.959-41.922,40.67-43.082,42.4,19.408,48.974,29.621,28.329,17.616,22.825,32.818S1158.444,1585.021,1146.028,1588.494Z" transform="translate(-960.136 -1342.909)" fill="#cbe6f5"/>
  <path id="Path_578" data-name="Path 578" d="M680.682,2204.26H664.21l7.179,41.851a.349.349,0,0,0-.07.2c0,.912,4.168,1.65,9.3,1.65s9.3-.738,9.3-1.65l7.214-42.05Z" transform="translate(-618.901 -1942.12)" fill="#f3fafe"/>
  <ellipse id="Ellipse_102" data-name="Ellipse 102" cx="16.472" cy="3.069" rx="16.472" ry="3.069" transform="translate(45.308 259.071)" fill="#aaceed"/>
  <path id="Path_579" data-name="Path 579" d="M652.477,1794.2c-4.6,4.142-.231-6.212,1.419-11.322s.19-9.847-4.641-4.136-5.062,1.89-5.293-3.132-1.609-33.411-6.542-31.111-1.055,39.806-2.206,45.795-2.991-4.831-3.451-10.813-1.15-33.365-6.9-29.554,3.912,40.823.925,43.816-4.832-12.426-10.815-10.863c-4.725,1.236,3.925,19.381,7.772,26.955,2.723-1,8.275-1.678,14.683-1.678a55.4,55.4,0,0,1,13.935,1.433,27.032,27.032,0,0,1,4.8-8.946C660.53,1795.585,657.078,1790.062,652.477,1794.2Z" transform="translate(-575.643 -1549.089)" fill="#9ac0dd"/>
  <path id="Path_580" data-name="Path 580" d="M676.52,2184.817c1.018,2.015,1.707,3.283,1.707,3.283a71.99,71.99,0,0,0,25.95,0h0a29.82,29.82,0,0,1,.96-3.527,55.406,55.406,0,0,0-13.935-1.433C684.8,2183.14,679.243,2183.821,676.52,2184.817Z" transform="translate(-629.421 -1924.07)" fill="#9ac0dd"/>
  <path id="Path_581" data-name="Path 581" d="M1888.177,2323.52a4.56,4.56,0,0,1,.943,3.207c-.285,1.685-1.842,4.092-.943,4.815s23.767,3.489,23.767,3.489,3.851-2.046,1.925-4.091-11.021-3.851-12.491-4.334-2.672-3.086-2.672-3.086Z" transform="translate(-1664.691 -2044.042)" fill="#f8afac"/>
  <path id="Path_582" data-name="Path 582" d="M1889.116,2344.871c-.291,1.685-1.842,4.092-.943,4.815s23.767,3.489,23.767,3.489,3.851-2.046,1.925-4.091-11.021-3.851-12.491-4.334A14.309,14.309,0,0,1,1889.116,2344.871Z" transform="translate(-1664.687 -2062.186)" fill="#3f3092"/>
  <path id="Path_583" data-name="Path 583" d="M1743.25,2415a5.5,5.5,0,0,1,1.137,3.864c-.343,2.03-2.221,4.931-1.137,5.8s28.64,4.206,28.64,4.206,4.641-2.472,2.326-4.932-13.284-4.641-15.054-5.22-3.22-3.72-3.22-3.72Z" transform="translate(-1540.784 -2122.222)" fill="#f8afac"/>
  <path id="Path_584" data-name="Path 584" d="M1744.359,2440.684c-.345,2.035-2.22,4.931-1.137,5.8s28.64,4.206,28.64,4.206,4.642-2.471,2.326-4.931-13.283-4.641-15.054-5.22A17.255,17.255,0,0,1,1744.359,2440.684Z" transform="translate(-1540.761 -2144.05)" fill="#3f3092"/>
  <path id="Path_585" data-name="Path 585" d="M1406.38,1274.15v-11.43a1.122,1.122,0,0,1,.917-1.1l8.886-1.647a1.123,1.123,0,0,1,1.326,1.134l-.246,8.868a1.347,1.347,0,0,1-.022.188l-1.33,6.651a1.121,1.121,0,0,1-1.454.843l-7.311-2.45A1.12,1.12,0,0,1,1406.38,1274.15Z" transform="translate(-1253.174 -1135.095)" fill="#3f3092"/>
  <path id="Path_586" data-name="Path 586" d="M1352.3,1874.457c-6.962-4.713-44.478-4.03-44.478-4.03h-49.15l7,14.96-12.794.359s15.5,18.7,32.9,19.335a116.163,116.163,0,0,0,30.066-2.707s-.291,30.555,8.611,47.185h13.927s.665-14.974.927-30.132c3.549,9.1,6.033,16.982,6.033,16.982h11.99S1359.264,1879.17,1352.3,1874.457Z" transform="translate(-1121.99 -1656.79)" fill="#e03e5e"/>
  <path id="Path_587" data-name="Path 587" d="M1058.317,1416.043s-11.473,3.022-19.573,18.414c-9.291,17.661-1.058,26.641,4.362,29.735s16.754,6.962,16.754,6.962a45.043,45.043,0,0,0,6.424,20.5s37.539,3.4,54.942-15.319l-12.766-26.3s15.857-2.752,12.763-10.155-18.95-30.62-18.95-30.62l-9.659,4.962,1.547,4.236S1080.5,1412.372,1058.317,1416.043Z" transform="translate(-935.392 -1262.697)" fill="#3f3092"/>
  <path id="Path_588" data-name="Path 588" d="M1177.933,1256.942a28.247,28.247,0,0,0-1.49-18.445,12.239,12.239,0,0,0-3.384-4.279,13.987,13.987,0,0,0-12.6-2.326c-2.88.919-6.656,2.492-8.092,5.392-1.522,3.075.807,9.556.807,9.556-1.614.606-.56,3.063.727,5.77a3.087,3.087,0,0,0,3.746,1.881c1.308,4.652,1.128,10.5.989,12.775a3.925,3.925,0,0,0,.465,2.1,14.757,14.757,0,0,0,1.271,1.953s13.046,10.187,15.636,0c-1.378-1.66-2.895-3.087-3.613-3.807a6.986,6.986,0,0,1-1.506-3.572C1174.542,1263.576,1176.836,1260.222,1177.933,1256.942Z" transform="translate(-1035.647 -1110.598)" fill="url(#linear-gradient)"/>
  <path id="Path_589" data-name="Path 589" d="M1273.554,1312.881a.217.217,0,0,1-.214-.182c-.083-.491.13-.885.595-1.745l.1-.185c.134-.247.179-.42.137-.528-.073-.2-.493-.35-1.018-.547-.153-.057-.317-.118-.491-.186-1.417-.551-2.4-3.078-2.438-3.184a.218.218,0,1,1,.407-.157c.009.025.951,2.454,2.181,2.935.173.067.336.126.485.182.685.253,1.137.42,1.281.8a1.072,1.072,0,0,1-.16.891l-.1.183c-.436.8-.606,1.124-.55,1.468a.217.217,0,0,1-.179.25A.152.152,0,0,1,1273.554,1312.881Z" transform="translate(-1136.799 -1174.474)" fill="#f37f85"/>
  <ellipse id="Ellipse_103" data-name="Ellipse 103" cx="0.784" cy="0.477" rx="0.784" ry="0.477" transform="translate(136.4 131.71) rotate(-89.427)" fill="#3f3092"/>
  <ellipse id="Ellipse_104" data-name="Ellipse 104" cx="0.784" cy="0.477" rx="0.784" ry="0.477" transform="matrix(0.014, -1, 1, 0.014, 130.112, 134.711)" fill="#3f3092"/>
  <path id="Path_590" data-name="Path 590" d="M1165.449,1351.3a.22.22,0,0,1-.134-.046c-.705-.548-.459-1.07-.221-1.575a3.267,3.267,0,0,0,.337-1.018c.05-.4-.206-.5-.8-.641-.436-.1-1.041-.241-.937-.859a.812.812,0,0,1,.424-.654,1.073,1.073,0,0,1,.9.1.218.218,0,1,1-.221.376.655.655,0,0,0-.491-.083c-.09.041-.146.145-.179.329s.079.241.606.363c.494.113,1.24.291,1.137,1.121a3.67,3.67,0,0,1-.376,1.144c-.235.5-.334.711.095,1.044a.22.22,0,0,1,.038.307A.217.217,0,0,1,1165.449,1351.3Z" transform="translate(-1045.757 -1209.015)" fill="#f37f85"/>
  <path id="Path_591" data-name="Path 591" d="M1138.97,1206.994s1.784-.523,2.372.82,1.932,4.329,2.828,3.134,1.269-3.432,0-4.776-2.762-5.149-.145-6.493,3.954.374,5.223-1.119,1.194-3.053,4.254-2.835,7.163,2.015,9.03-.448,5.746-9.45-.672-10.467-7.686,3.236-8.578,3.982-5.075-1.865-10.075-.97-10.274,10.073-6.941,15.6A4.5,4.5,0,0,0,1138.97,1206.994Z" transform="translate(-1021.437 -1070.745)" fill="#3f3092"/>
  <path id="Path_592" data-name="Path 592" d="M846.534,955.33l-.994,2.188.5.448,1.045-1.89Z" transform="translate(-722.615 -816.444)" fill="#3f3092"/>
  <path id="Path_593" data-name="Path 593" d="M1230.368,1415.674h-.009c-4.084-.173-6.291-2.021-7.423-3.541a8.144,8.144,0,0,1-1.491-3.306.221.221,0,1,1,.436-.067,7.885,7.885,0,0,0,1.423,3.129,8.791,8.791,0,0,0,7.08,3.344.218.218,0,0,1-.01.436Z" transform="translate(-1095.122 -1262.11)" fill="#f37f85"/>
  <ellipse id="Ellipse_105" data-name="Ellipse 105" cx="2.934" cy="0.725" rx="2.934" ry="0.725" transform="matrix(0.934, -0.356, 0.356, 0.934, 127.73, 138.37)" fill="#ef4b64"/>
  <ellipse id="Ellipse_106" data-name="Ellipse 106" cx="1.875" cy="0.548" rx="1.875" ry="0.548" transform="translate(138.33 134.655) rotate(-13.55)" fill="#ef4b64"/>
  <path id="Path_594" data-name="Path 594" d="M1285.524,1409.383a.214.214,0,0,1-.124-.039.218.218,0,0,1-.057-.3,2.909,2.909,0,0,1,3.1-1.163.219.219,0,0,1-.146.413,2.452,2.452,0,0,0-2.606.994A.218.218,0,0,1,1285.524,1409.383Z" transform="translate(-1149.701 -1261.404)" fill="#f37f85"/>
  <path id="Path_595" data-name="Path 595" d="M1176.681,1236.574l-.241-.161c.031-.045,3.041-4.473,6.8-3.489,3.108.813,9.857.894,12.456-.662a1.968,1.968,0,0,0,1-1.172l.291.068a2.252,2.252,0,0,1-1.137,1.352c-2.659,1.6-9.525,1.519-12.68.693a5.08,5.08,0,0,0-4.572,1.321A10.716,10.716,0,0,0,1176.681,1236.574Z" transform="translate(-1056.662 -1110.43)" fill="#6169b0"/>
  <path id="Path_596" data-name="Path 596" d="M1278.933,1201.918a1.655,1.655,0,0,1-.763-.1l.2-.211a.075.075,0,0,0-.022-.016,7.631,7.631,0,0,0,4.42-.955,2.426,2.426,0,0,0,1.177-2.152c-.016-.759-.244-1.255-.657-1.432a2.2,2.2,0,0,0-2.035.672c-.56.506-.807,1.053-.685,1.436l-.276.089a1.842,1.842,0,0,1,.766-1.745,2.441,2.441,0,0,1,2.341-.727c.366.157.808.582.833,1.693a2.941,2.941,0,0,1-2.035,2.794A8.557,8.557,0,0,1,1278.933,1201.918Z" transform="translate(-1143.603 -1081.018)" fill="#6169b0"/>
  <path id="Path_597" data-name="Path 597" d="M1152.006,1278.944c-2.582-2.457-.872-6.687-.859-6.734l.269.112c-.018.039-1.647,4.092.791,6.411Z" transform="translate(-1034.562 -1145.572)" fill="#6169b0"/>
  <path id="Path_598" data-name="Path 598" d="M1281.134,1285.464a.291.291,0,0,1-.193-.507,4.108,4.108,0,0,1,4.507-.427.291.291,0,1,1-.269.515,3.5,3.5,0,0,0-3.85.346A.291.291,0,0,1,1281.134,1285.464Z" transform="translate(-1145.888 -1155.68)" fill="#3f3092"/>
  <path id="Path_599" data-name="Path 599" d="M1230.051,1299.173a.291.291,0,0,1-.263-.414,3.28,3.28,0,0,1,2.021-1.88,2.659,2.659,0,0,1,1.208-.086.291.291,0,0,1-.116.568,2.442,2.442,0,0,0-2.587,1.644A.29.29,0,0,1,1230.051,1299.173Z" transform="translate(-1102.231 -1166.552)" fill="#3f3092"/>
  <path id="Path_600" data-name="Path 600" d="M1272.441,1366.585a6.546,6.546,0,0,1-2.144-.361.218.218,0,0,1,.162-.405c.154.061,3.793,1.454,5.86-1.779a.218.218,0,1,1,.366.234A4.809,4.809,0,0,1,1272.441,1366.585Z" transform="translate(-1136.757 -1223.953)" fill="#f37f85"/>
  <path id="Path_601" data-name="Path 601" d="M1412.07,1324.367a33.813,33.813,0,0,1,0-6.687c.4-2.809,1.859-10.017-.176-8.15s-1.163,5.155-3.635,5.324-7.108-5.628-7.108-5.628-2.326.4-.582,2.954,3.053,3.52,1.745,3.905-3.915.483-3.915,1.6,1.308,1.59,1.308,1.59-1.454,1.7-.145,2.278c0,0-.727,1.672.436,2.214,0,0,2.471-.323,2.908,1.2a9.9,9.9,0,0,0,1.89,3.137Z" transform="translate(-1246.354 -1177.205)" fill="#f8afac"/>
  <path id="Path_602" data-name="Path 602" d="M1680.248,1973.569l-.581-.019c0-.126.436-12.7,1.018-24.748.163-3.4-.055-8.012-2.006-10.71a3.912,3.912,0,0,0-2.377-1.744c-.22-.019-22.63-2.036-24.821-2.036v-.581c2.216,0,23.956,1.948,24.88,2.035.23.026,5.491.753,4.905,13.067C1680.685,1960.871,1680.251,1973.443,1680.248,1973.569Z" transform="translate(-1462.641 -1710.92)" fill="#f5939c"/>
  <path id="Path_603" data-name="Path 603" d="M1340.123,1807.38s9.24,3,10.014,3.964,3.876,7.347,3.876,7.347-1.163,1.454-1.651.773a1.121,1.121,0,0,1-1.548.967,1.825,1.825,0,0,1-2.127.872s-1.673.581-1.948-.291a14.212,14.212,0,0,0-3.466-4.474c-1.063-.653-4.555.8-5.322-1.038Z" transform="translate(-1194.692 -1602.939)" fill="#f8afac"/>
  <path id="Path_604" data-name="Path 604" d="M1422.548,1856.695a.145.145,0,0,1-.135-.09l-2.326-5.632a.145.145,0,0,1,.269-.11l2.326,5.632a.145.145,0,0,1-.078.19.156.156,0,0,1-.055.01Z" transform="translate(-1264.878 -1640.023)" fill="#f37f85"/>
  <path id="Path_605" data-name="Path 605" d="M1414.2,1867.245a.145.145,0,0,1-.135-.093l-1.933-4.964a.145.145,0,1,1,.27-.106l1.935,4.963a.146.146,0,0,1-.083.189A.169.169,0,0,1,1414.2,1867.245Z" transform="translate(-1258.074 -1649.605)" fill="#f37f85"/>
  <path id="Path_606" data-name="Path 606" d="M1401.471,1875.485a.146.146,0,0,1-.137-.1l-1.612-4.585a.146.146,0,0,1,.275-.1l1.612,4.585a.147.147,0,0,1-.138.193Z" transform="translate(-1247.477 -1656.975)" fill="#f37f85"/>
  <path id="Path_607" data-name="Path 607" d="M1283.41,1495.01s9.5,11.566,9.724,23.431l9.851-2.239s-6.01-20.237-11.96-28.252Z" transform="translate(-1148.081 -1329.948)" fill="#69afe1"/>
  <path id="Path_608" data-name="Path 608" d="M1292.537,1490.232c-.5-.834-1.007-1.6-1.512-2.282l-7.615,7.058s.334.408.872,1.149C1284.4,1496.312,1291.864,1494.486,1292.537,1490.232Z" transform="translate(-1148.081 -1329.948)" fill="#4189c8"/>
  <path id="Path_609" data-name="Path 609" d="M1164.466,1425.287a7.12,7.12,0,0,1,3.083,1.2c.911.651,1.532,1.621,2.4,2.317,1.163.929,2.412.654,3.78.606a42.35,42.35,0,0,0,5.316-.519,2.609,2.609,0,0,1,1.131-.02.812.812,0,0,1,.516,1.23,1.408,1.408,0,0,0-.318.872.987.987,0,0,0,.5.6c.84.553,1.823.856,2.668,1.4a2.87,2.87,0,0,1,1.229,1.417c.582,1.714-1.079,3.669-2.326,4.683a12.43,12.43,0,0,1-5.3,2.377c-6.32,1.342-11.444.945-15.076-1.294s-3.73-5.815-1.518-6.866,3.159-2.519,2.364-4c-.662-1.227-.752-3.823,1.128-4.011a1.862,1.862,0,0,1,.406,0Z" transform="translate(-1041.829 -1276.384)" fill="#69afe1"/>
  <path id="Path_610" data-name="Path 610" d="M1183,1457.2a18.881,18.881,0,0,0,7.256,1.365s-5.28-1.643-6.712-3.654A2.354,2.354,0,0,1,1183,1457.2Z" transform="translate(-1062.269 -1301.711)" fill="#4189c8"/>
  <path id="Path_611" data-name="Path 611" d="M1255.911,1477.342l-.081-.436c7.078-1.336,8.409-5.379,8.422-5.426l.417.128C1264.615,1471.791,1263.269,1475.953,1255.911,1477.342Z" transform="translate(-1124.511 -1315.872)" fill="#c2def4"/>
  <path id="Path_612" data-name="Path 612" d="M1193.911,1457.041c-8.051-1.229-9.647-4.46-9.711-4.6l.4-.185c.015.031,1.6,3.162,9.381,4.351Z" transform="translate(-1063.294 -1299.446)" fill="#c2def4"/>
  <rect id="Rectangle_122" data-name="Rectangle 122" width="0.582" height="21.567" transform="translate(161.709 161.372) rotate(-25.41)" fill="#6169b0"/>
  <path id="Path_613" data-name="Path 613" d="M1685.837,2073.185l-.057-.582a30.873,30.873,0,0,0,9.642-2.683l.269.516A31.652,31.652,0,0,1,1685.837,2073.185Z" transform="translate(-1491.954 -1827.311)" fill="#f5939c"/>
  <path id="Path_614" data-name="Path 614" d="M1723.4,2161.542c-2.083-2.531-3.709-9.415-4.833-20.462-.834-8.2-1.067-15.756-1.07-15.832l.581-.018c.009.3.957,30.094,5.769,35.942Z" transform="translate(-1519.063 -1874.579)" fill="#f5939c"/>
  <path id="Path_615" data-name="Path 615" d="M1180.027,1643.815c-6.413-2.172-7.705-4.216-7.72-7.288s-1.826-3.877-1.826-3.877h0c-1.841,2.677-4.036,7.007-1.2,9.508,2.205,1.945,8.823,5.764,14.768,9.034h0S1186.441,1645.987,1180.027,1643.815Z" transform="translate(-1049.382 -1453.611)" fill="#2f2e7a"/>
  <path id="Path_616" data-name="Path 616" d="M1190.309,1652.779,1172,1647.374l.166-.558,17.737,5.234,2.794-9.932c-1.044-.542-5.815-3.033-10.944-5.86-7.774-4.286-12.631-7.269-14.436-8.859a4.2,4.2,0,0,1-1.454-3.033c-.093-1.717.631-3.8,2.153-6.181a24.847,24.847,0,0,1,2.3-3.053l.436.393c-.045.049-4.507,4.994-4.3,8.814a3.648,3.648,0,0,0,1.253,2.627c4.241,3.741,25.263,14.64,25.475,14.749l.209.109Z" transform="translate(-1047.616 -1438.638)" fill="#6169b0"/>
  <rect id="Rectangle_123" data-name="Rectangle 123" width="75.306" height="135.397" rx="37.653" transform="translate(323.082 9.008) rotate(90)" fill="#b7d8ee"/>
  <path id="Path_617" data-name="Path 617" d="M1762.409,535.2H1652.435a13.375,13.375,0,0,1-13.365-13.363V471.953a13.375,13.375,0,0,1,13.365-13.363h109.977a13.375,13.375,0,0,1,13.364,13.363v49.886A13.375,13.375,0,0,1,1762.409,535.2Zm-109.975-75.3a12.066,12.066,0,0,0-12.056,12.055v49.886a12.067,12.067,0,0,0,12.056,12.055h109.977a12.066,12.066,0,0,0,12.055-12.055V471.953a12.067,12.067,0,0,0-12.055-12.055Z" transform="translate(-1452.035 -450.236)" fill="#e7f3fc"/>
  <path id="Path_618" data-name="Path 618" d="M9.8,0H59.687a9.8,9.8,0,0,1,9.8,9.8V119.78a9.8,9.8,0,0,1-9.8,9.8H9.8a9.8,9.8,0,0,1-9.8-9.8V9.8A9.8,9.8,0,0,1,9.8,0Z" transform="translate(320.174 11.917) rotate(90)" fill="#f3fafe"/>
  <rect id="Rectangle_124" data-name="Rectangle 124" width="126.674" height="66.583" rx="33.291" transform="translate(192.048 13.369)" fill="#f3fafe"/>
  <rect id="Rectangle_125" data-name="Rectangle 125" width="43.528" height="46.798" rx="21.764" transform="translate(200.661 23.038)" fill="#cbe6f5"/>
  <g id="Group_176" data-name="Group 176" transform="translate(200.661 23.038)" clip-path="url(#clip-path)">
    <path id="Path_619" data-name="Path 619" d="M1744.576,775.335a4.142,4.142,0,0,0,.805.038c.145-.009,1.826-.135,1.835-.189l-1.308,8.38-2.512,14.481h39.849l-3.157-22.067c6.219-.7,2.207-15.556-3.011-25.25s-19.846-7.231-19.846-7.231-10.119,2.617-12.66,10.242c-.9,2.694-1.79,5.394-2.5,8.141a28.247,28.247,0,0,0-1.163,8.159c.07,1.711.416,3.528,1.9,4.585A4.081,4.081,0,0,0,1744.576,775.335Z" transform="translate(-1739.717 -716.523)" fill="#69afe1"/>
    <path id="Path_620" data-name="Path 620" d="M1839.936,766.826c.7,6.61-.372,27.606-.566,31.222h8.681c.126-4.773,1.018-40.318.015-53.435a27.525,27.525,0,0,0-12.557-1.114,11.517,11.517,0,0,0-3.019,1.092l.183.416S1839.164,759.582,1839.936,766.826Z" transform="translate(-1817.997 -716.526)" fill="#fffaf8"/>
    <path id="Path_621" data-name="Path 621" d="M1915.736,758.233c-.064-4.635-.193-8.737-.42-11.7a21.086,21.086,0,0,0-4.136-1.066l1.146.785a2.728,2.728,0,0,0,1.308,2.326,2.776,2.776,0,0,1,1.354,3.334C1914.685,753.268,1915.087,757.38,1915.736,758.233Z" transform="translate(-1885.247 -718.448)" fill="#dfe4f3"/>
    <path id="Path_622" data-name="Path 622" d="M1862.812,729.367a3.746,3.746,0,0,0,.488,2.974.77.77,0,0,1,.145.641L1861.7,741a.4.4,0,0,1-.711.145l-5.644-8.044a.65.65,0,0,1,.048-.811,3.413,3.413,0,0,0,.745-2.217C1856.195,729.149,1862.812,729.367,1862.812,729.367Z" transform="translate(-1837.429 -704.667)" fill="#f8afac"/>
    <path id="Path_623" data-name="Path 623" d="M1856.2,730.066a3.383,3.383,0,0,1-.745,2.217.65.65,0,0,0-.048.811l1.566,2.23h0c-.349-1,.762-2.31,2.887-2.8a4.647,4.647,0,0,0,2.945-2.839h0c.031-.2.063-.32.063-.32S1856.246,729.149,1856.2,730.066Z" transform="translate(-1837.48 -704.667)" fill="#f26a66"/>
    <path id="Path_624" data-name="Path 624" d="M1829.148,631.445s-1.288-.241-.954,1.323.641,1.926,1.621,2.035c0,0,.705,6.962,6.054,6.858s5.577-6.874,5.577-6.874,1.384-.115,1.59-2.162-1.189-1.007-1.189-1.007.945-7.106-5.737-7.288S1829.148,631.445,1829.148,631.445Z" transform="translate(-1814.278 -614.917)" fill="#f8afac"/>
    <ellipse id="Ellipse_107" data-name="Ellipse 107" cx="0.526" cy="0.32" rx="0.526" ry="0.32" transform="matrix(0.014, -1, 1, 0.014, 23.731, 17.432)" fill="#3f3092"/>
    <path id="Path_625" data-name="Path 625" d="M1893.341,659.39a.171.171,0,0,1-.09-.026,2.108,2.108,0,0,0-2.108-.031.17.17,0,0,1-.177-.289,2.429,2.429,0,0,1,2.471.033.171.171,0,0,1,.052.234.169.169,0,0,1-.148.079Z" transform="translate(-1867.902 -644.306)" fill="#3f3092"/>
    <ellipse id="Ellipse_108" data-name="Ellipse 108" cx="0.526" cy="0.32" rx="0.526" ry="0.32" transform="matrix(0.014, -1, 1, 0.014, 18.109, 17.352)" fill="#3f3092"/>
    <path id="Path_626" data-name="Path 626" d="M1854.672,658.843a.161.161,0,0,1-.09-.028,2.1,2.1,0,0,0-2.108-.029.17.17,0,0,1-.176-.291,2.423,2.423,0,0,1,2.472.032.172.172,0,0,1-.1.315Z" transform="translate(-1834.855 -643.837)" fill="#3f3092"/>
    <path id="Path_627" data-name="Path 627" d="M1830.176,678.854a.56.56,0,0,1-.424-.3,3.067,3.067,0,0,1-.467-1.018.711.711,0,0,1,.074-.581.435.435,0,0,1,.314-.182.486.486,0,0,1,.38.119.436.436,0,0,1,.129.363.176.176,0,0,1-.154.125.2.2,0,0,1-.1-.013.759.759,0,0,1-.249-.159.113.113,0,0,1,.145-.17.762.762,0,0,0,.116.089.28.28,0,0,0-.044-.068.266.266,0,0,0-.2-.062.216.216,0,0,0-.154.089.509.509,0,0,0-.038.4,2.9,2.9,0,0,0,.436.936c.087.135.172.2.241.2a.113.113,0,1,1,.01.227Z" transform="translate(-1815.232 -659.733)" fill="#f37f85"/>
    <path id="Path_628" data-name="Path 628" d="M1922.462,678.324h-.023a.113.113,0,0,1,.016-.225c.073,0,.156-.06.247-.192a2.93,2.93,0,0,0,.461-.925.514.514,0,0,0-.028-.4.214.214,0,0,0-.145-.092.268.268,0,0,0-.206.058.3.3,0,0,0-.043.065.855.855,0,0,0,.119-.084.113.113,0,0,1,.145.173.759.759,0,0,1-.254.145.23.23,0,0,1-.1.01.179.179,0,0,1-.145-.129.436.436,0,0,1,.145-.361.485.485,0,0,1,.384-.109.436.436,0,0,1,.308.192.714.714,0,0,1,.058.581,3.07,3.07,0,0,1-.494,1C1922.838,678.107,1922.688,678.324,1922.462,678.324Z" transform="translate(-1894.788 -659.295)" fill="#f37f85"/>
    <path id="Path_629" data-name="Path 629" d="M1878.062,673.929a.145.145,0,0,1-.051-.282c.352-.131.845-.407.852-.582,0-.067-.092-.145-.259-.228-1.125-.522-.705-2.945-.686-3.053a.145.145,0,0,1,.286.051c-.115.64-.243,2.377.522,2.733.291.135.436.3.428.5-.019.449-.873.785-1.042.849A.147.147,0,0,1,1878.062,673.929Z" transform="translate(-1856.742 -653.663)" fill="#f37f85"/>
    <path id="Path_630" data-name="Path 630" d="M1865.876,707.414a4.758,4.758,0,0,1-2.72-.989.145.145,0,1,1,.187-.222,4.669,4.669,0,0,0,1.544.784,3.216,3.216,0,0,0,3.219-.781.146.146,0,0,1,.2.215A3.547,3.547,0,0,1,1865.876,707.414Z" transform="translate(-1844.161 -684.86)" fill="#f37f85"/>
    <ellipse id="Ellipse_109" data-name="Ellipse 109" cx="0.919" cy="0.324" rx="0.919" ry="0.324" transform="translate(23.931 19.12)" fill="#fffaf8"/>
    <ellipse id="Ellipse_110" data-name="Ellipse 110" cx="0.919" cy="0.324" rx="0.919" ry="0.324" transform="translate(17.386 19.12)" fill="#fffaf8"/>
    <path id="Path_631" data-name="Path 631" d="M1875,725.332a.145.145,0,0,1-.115-.234,1.859,1.859,0,0,1,2.06-.506.146.146,0,0,1-.087.278,1.585,1.585,0,0,0-1.744.406A.146.146,0,0,1,1875,725.332Z" transform="translate(-1854.205 -700.511)" fill="#f37f85"/>
    <path id="Path_632" data-name="Path 632" d="M1910.183,644.776a2.223,2.223,0,0,0,.409,2.233,4.589,4.589,0,0,1,1.252,1.779s1.018-2.293.09-3.741C1911.934,645.048,1910.818,643.854,1910.183,644.776Z" transform="translate(-1884.276 -632.095)" fill="#3f3092"/>
    <path id="Path_633" data-name="Path 633" d="M1835.475,651.775a1.322,1.322,0,0,1-.436,1.486,5.115,5.115,0,0,0-1.067,1.258,4.521,4.521,0,0,1,.209-3.169S1835.414,651.173,1835.475,651.775Z" transform="translate(-1819.102 -637.99)" fill="#3f3092"/>
    <path id="Path_634" data-name="Path 634" d="M1829.217,605.1s-2.047,1.955-3.344,1.375-1.212-1.375-1.212-1.375a7.959,7.959,0,0,1-3.86,2.1c-2.384.507-8.974-5-1.444-7.385s9.159,2.752,9.159,2.752,2.1-1.454,3.344-.073a1.225,1.225,0,0,1-.426,2.1s1.153,1.666,0,2.1A1.551,1.551,0,0,1,1829.217,605.1Z" transform="translate(-1803.778 -593.428)" fill="#3f3092"/>
    <path id="Path_635" data-name="Path 635" d="M1898.363,606.846l-.225-.017a4.26,4.26,0,0,0-.67-2.484.113.113,0,0,1,.182-.134,4.273,4.273,0,0,1,.7,2.05,3.481,3.481,0,0,1,2.6-1.47.115.115,0,0,1,.131.091.113.113,0,0,1-.091.131C1898.561,605.442,1898.37,606.788,1898.363,606.846Z" transform="translate(-1873.515 -597.693)" fill="#3f3092"/>
    <path id="Path_636" data-name="Path 636" d="M1833.369,613.856a4.851,4.851,0,0,1-2.908-.958,1.966,1.966,0,0,1-.788-1.428c-.032-.727.635-1.332,1.934-1.756a11.072,11.072,0,0,1,1.963-.424l.013.113c-.04,0-3.87.436-3.8,2.063a1.831,1.831,0,0,0,.746,1.345,4.783,4.783,0,0,0,3.344.9l.016.112A3.468,3.468,0,0,1,1833.369,613.856Z" transform="translate(-1815.589 -602.066)" fill="#6169b0"/>
    <path id="Path_637" data-name="Path 637" d="M1884.289,634.55a1.569,1.569,0,0,1-.349-.041,2.162,2.162,0,0,1-1.25-.974l.1-.055a2.123,2.123,0,0,0,1.178.919,1.762,1.762,0,0,0,1.414-.347l.063.094A2.051,2.051,0,0,1,1884.289,634.55Z" transform="translate(-1860.899 -622.739)" fill="#6169b0"/>
    <path id="Path_638" data-name="Path 638" d="M1912.466,643.715a.88.88,0,0,1-.475-.121.7.7,0,0,1-.321-.48l.112-.014h0a.608.608,0,0,0,.271.4,1.238,1.238,0,0,0,1.045-.023l.038.106A2.046,2.046,0,0,1,1912.466,643.715Z" transform="translate(-1885.666 -630.961)" fill="#6169b0"/>
    <path id="Path_639" data-name="Path 639" d="M1794.877,936.642a3.627,3.627,0,0,0-2.193-.933c-1.554-.206-4.144,2-5.3,3.132s-6.413,3.53-7.9,3.78l.711-4.547,14.651-4.252Z" transform="translate(-1772.702 -879.416)" fill="#4189c8"/>
    <path id="Path_640" data-name="Path 640" d="M1885.16,925.389l3.139-1.439,5.251,2.893-.1,5.593s-1.078-.134-1.246-1.745.2-2.2-1.037-2.5a10.472,10.472,0,0,0-4.414-.238,3.867,3.867,0,0,1-1.573.252Z" transform="translate(-1863.01 -870.981)" fill="#dfe4f3"/>
    <path id="Path_641" data-name="Path 641" d="M1942.306,937.218s-.06,2.55-.1,5.593c0,.533,1.21.051,1.422-.02a7.376,7.376,0,0,1,2.3-.736,6.649,6.649,0,0,1,2.243.759,6.366,6.366,0,0,0,4.3.393l-.343-2.4-6.2-4.72Z" transform="translate(-1911.765 -881.356)" fill="#4189c8"/>
    <path id="Path_642" data-name="Path 642" d="M1788.07,878.178s13.23-3.906,20.251-4.2l.952,2.96s-6.34,6.07-24.894,10" transform="translate(-1776.881 -828.275)" fill="#69afe1"/>
    <path id="Path_643" data-name="Path 643" d="M1784.295,886.472l-.035-.167a77.772,77.772,0,0,0,19.374-6.456,26.939,26.939,0,0,0,5.442-3.489l-.917-2.847c-6.94.31-20.033,4.154-20.166,4.191l-.048-.161c.132-.039,13.327-3.912,20.27-4.2h.065l.989,3.07-.038.038a27.015,27.015,0,0,1-5.509,3.54A77.645,77.645,0,0,1,1784.295,886.472Z" transform="translate(-1776.778 -827.728)" fill="#c3dff5"/>
    <path id="Path_644" data-name="Path 644" d="M1912.009,863.74s.516,5.288.93,5.747l-6.519.145s-2.211,1.32-2.967,1.726c-.794.426-3.233,1.6-3.233,1.6l14.995,5.891s3.318,1.01,4.015-3.158Z" transform="translate(-1875.88 -819.524)" fill="#69afe1"/>
    <path id="Path_645" data-name="Path 645" d="M1943.77,874s4.469,1.146,4.416,4.284h-2.711l-2.605.119,1.852-1.443Z" transform="translate(-1912.33 -828.292)" fill="#f8afac"/>
    <path id="Path_646" data-name="Path 646" d="M1831.893,880.342a37.509,37.509,0,0,0-4.417-1.092c-.756,0-2.107,2.791-2.107,2.791Z" transform="translate(-1811.912 -832.779)" fill="#f8afac"/>
    <path id="Path_647" data-name="Path 647" d="M1474.823,382.07l-4.13-5.212.981-3.065-2.944-.472.006-.079.643-7.573.168.015-.635,7.494,2.985.478-1.015,3.166,4.074,5.142Z" transform="translate(-1455.867 -335.547)" fill="#c2def4"/>
    <path id="Path_648" data-name="Path 648" d="M1597.481,383.369l-.141-.093,3.274-4.941-2.64-1.947,2.644-.618-2.527-7.022.16-.058,2.591,7.2-2.473.577,2.476,1.825Z" transform="translate(-1565.779 -338.128)" fill="#c2def4"/>
    <path id="Path_649" data-name="Path 649" d="M1954.367,981.034c-1.737-5.367-.819-18.63-.81-18.764l.169.012c-.009.134-.924,13.363.8,18.7Z" transform="translate(-1921.25 -903.73)" fill="#c2def4"/>
    <path id="Path_650" data-name="Path 650" d="M1799.568,1036.187l-6.368-.254v-1.372h6.75Zm-6.205-.419,6.073.244.291-1.285h-6.367Z" transform="translate(-1784.419 -965.51)" fill="#c2def4"/>
    <path id="Path_651" data-name="Path 651" d="M1969.62,1032.621l.458-1.381,4.965-.57v1.454Zm.581-1.224-.344,1.032,5.011-.459v-1.106Z" transform="translate(-1935.191 -962.186)" fill="#c2def4"/>
    <path id="Path_652" data-name="Path 652" d="M1914.9,879.034a3.253,3.253,0,0,1-.872-.113h0l-15.176-5.961.174-.084c.025-.012,2.448-1.17,3.232-1.59.746-.4,2.939-1.711,2.963-1.724l.019-.012,6.4-.145a38.73,38.73,0,0,1-.873-5.657l.169-.017c.206,2.114.619,5.379.909,5.7l.124.137-6.688.145c-.22.131-2.239,1.335-2.95,1.715-.663.356-2.487,1.234-3.062,1.511l14.81,5.815a3.16,3.16,0,0,0,2.348-.308,3.818,3.818,0,0,0,1.556-2.784l.167.029a4,4,0,0,1-1.636,2.908A3.034,3.034,0,0,1,1914.9,879.034Z" transform="translate(-1874.71 -819.515)" fill="#c2def4"/>
    <path id="Path_653" data-name="Path 653" d="M1848.906,751.339a4.423,4.423,0,0,1-2.665-.885,4.628,4.628,0,0,1-1.163-1.226l-.015-.027c-.012-.028-1.138-2.72-2.234-5.568-.553-1.436-2.233-5.805-2.147-6.833a1.393,1.393,0,0,1,.506-.983,3.79,3.79,0,0,1,2.391-.542.226.226,0,0,1-.042.449,3.444,3.444,0,0,0-2.06.436.94.94,0,0,0-.345.673c-.1,1.23,3.092,9.185,4.341,12.17a4.354,4.354,0,0,0,1.045,1.092,3.978,3.978,0,0,0,3.158.715c.033,0,3.539-.686,3.866-3.217.332-2.562-.727-10.758-.82-11.5a2.468,2.468,0,0,0-2.438-.813.226.226,0,1,1-.058-.448,2.839,2.839,0,0,1,2.907,1.061l.025.041v.048c0,.022.3,2.252.547,4.786a37.419,37.419,0,0,1,.281,6.878,3.9,3.9,0,0,1-2.277,2.9,7.546,7.546,0,0,1-1.958.705A5.007,5.007,0,0,1,1848.906,751.339Z" transform="translate(-1824.995 -709.329)" fill="#3f3092"/>
    <path id="Path_654" data-name="Path 654" d="M1906.766,847.821c-2.26,0-4.362-1.609-5.25-2.4a.227.227,0,0,1,.3-.339c1.008.891,3.618,2.883,6.118,2.115a4.8,4.8,0,0,0,.541-.218,3,3,0,0,1,1.151-.34h.018a2.352,2.352,0,0,1,1.375.663c.046.038.091.074.136.107a.227.227,0,0,1-.278.358l-.145-.111a1.991,1.991,0,0,0-1.094-.565h-.01a2.618,2.618,0,0,0-.975.3,4.965,4.965,0,0,1-.592.237A4.391,4.391,0,0,1,1906.766,847.821Z" transform="translate(-1876.934 -803.54)" fill="#3f3092"/>
    <rect id="Rectangle_126" data-name="Rectangle 126" width="2.674" height="0.17" transform="translate(32.392 44.132)" fill="#c2def4"/>
    <path id="Path_655" data-name="Path 655" d="M1964.736,867.76a.525.525,0,1,1,.523-.523A.525.525,0,0,1,1964.736,867.76Zm0-.872a.147.147,0,1,0,0-.006Z" transform="translate(-1930.567 -822.062)" fill="#c2def4"/>
    <path id="Path_656" data-name="Path 656" d="M1810.563,858.1a1.576,1.576,0,0,1-1.25-.531c-.527-.6-.208-1.6,0-2.8a2.112,2.112,0,0,0-1.007-1.95c-.535,2.2-1.745,7.571-.759,7.269q1.176-.353,2.284-.667Z" transform="translate(-1796.359 -810.191)" fill="#4189c8"/>
    <path id="Path_657" data-name="Path 657" d="M1826.454,854.854l-.1-.134,1.806-1.407-.915-2.842c-.74.038-7.829.488-20.166,4.191a.278.278,0,0,1-.291-.062c-.334-.323-.238-1.768.291-4.42.387-1.928.872-3.792.872-3.81l.164.042c-.773,2.969-1.737,7.567-1.218,8.066a.11.11,0,0,0,.125.023,121.166,121.166,0,0,1,15.067-3.582,47.5,47.5,0,0,1,5.2-.621h.064l.99,3.076Z" transform="translate(-1795.863 -804.679)" fill="#c2def4"/>
    <path id="Path_658" data-name="Path 658" d="M1855.5,969.226l-.161-.051c1.649-5.279,2.377-22.2,2.384-22.365l.17.007C1857.887,946.983,1857.157,963.921,1855.5,969.226Z" transform="translate(-1837.525 -890.517)" fill="#c2def4"/>
    <path id="Path_659" data-name="Path 659" d="M1759.664,1058.29s.146,6.847,1.546,7.124,7.135,1.839,7.135,1.839l-10.245.067Z" transform="translate(-1754.422 -985.79)" fill="#4189c8"/>
    <path id="Path_660" data-name="Path 660" d="M1784.087,904l-.118-.124a5.092,5.092,0,0,1,3.758-1.643l-.018.169A5.022,5.022,0,0,0,1784.087,904Z" transform="translate(-1776.531 -852.419)" fill="#c2def4"/>
    <path id="Path_661" data-name="Path 661" d="M1989.521,904.909a4.069,4.069,0,0,1-1.6-1.083,7.784,7.784,0,0,1-.7-.805l.137-.1a5.744,5.744,0,0,0,2.211,1.828Z" transform="translate(-1950.232 -853.008)" fill="#c2def4"/>
  </g>
  <rect id="Rectangle_128" data-name="Rectangle 128" width="25.671" height="1.599" transform="translate(252.99 27.944)" fill="#b6d8ef"/>
  <rect id="Rectangle_129" data-name="Rectangle 129" width="39.449" height="0.872" transform="translate(252.99 32.658)" fill="#b6d8ef"/>
  <rect id="Rectangle_130" data-name="Rectangle 130" width="56.274" height="0.872" transform="translate(252.99 46.001)" fill="#b6d8ef"/>
  <rect id="Rectangle_131" data-name="Rectangle 131" width="56.274" height="0.872" transform="translate(252.99 49.482)" fill="#b6d8ef"/>
  <rect id="Rectangle_132" data-name="Rectangle 132" width="56.274" height="0.872" transform="translate(252.99 52.962)" fill="#b6d8ef"/>
  <rect id="Rectangle_133" data-name="Rectangle 133" width="56.274" height="0.872" transform="translate(252.99 56.444)" fill="#b6d8ef"/>
  <rect id="Rectangle_134" data-name="Rectangle 134" width="56.274" height="0.872" transform="translate(252.99 59.924)" fill="#b6d8ef"/>
  <rect id="Rectangle_135" data-name="Rectangle 135" width="56.274" height="0.872" transform="translate(252.99 63.405)" fill="#b6d8ef"/>
  <rect id="Rectangle_136" data-name="Rectangle 136" width="102.147" height="53.69" rx="26.845" transform="translate(204.31 89.868)" fill="#f3fafe"/>
  <rect id="Rectangle_137" data-name="Rectangle 137" width="35.101" height="37.736" rx="17.55" transform="translate(211.257 97.665)" fill="#cbe6f5"/>
  <g id="Group_177" data-name="Group 177" transform="translate(211.257 97.665)" clip-path="url(#clip-path-2)">
    <path id="Path_662" data-name="Path 662" d="M1853.038,1249.581c-.977-6,2.374-12.692-4.976-14.324-.68-.1-1.327-.182-1.839-.254a17.263,17.263,0,0,0-8.336.423l-1.308.369s-3.78,2.181-8.868,17.952l8.141-2.489a114.764,114.764,0,0,1-5.578,21.53s10.613,4.97,25.094-.122C1855.358,1272.664,1854.015,1255.584,1853.038,1249.581Z" transform="translate(-1824.507 -1211.173)" fill="#fcfdfb"/>
    <path id="Path_663" data-name="Path 663" d="M1900.607,1220.249a1.813,1.813,0,0,1-.657,2.441,18.985,18.985,0,0,0,.928,2.853,3.373,3.373,0,0,0,3.053,1.378,2.953,2.953,0,0,0,1.454-.416,3.749,3.749,0,0,0,1.338-1.854c.1-.249.872-2.326.821-2.348a2.385,2.385,0,0,1-1.288-1.976S1902.767,1219,1900.607,1220.249Z" transform="translate(-1886.245 -1198.372)" fill="#f8afac"/>
    <path id="Path_664" data-name="Path 664" d="M1900.607,1220.255a1.813,1.813,0,0,1-.657,2.441l.63,2.181a6.556,6.556,0,0,0,.643-1.58c.314-1.163,1.35-.727,3.149-.971a2.157,2.157,0,0,0,1.89-1.987S1902.767,1219,1900.607,1220.255Z" transform="translate(-1886.245 -1198.378)" fill="#f26a66"/>
    <path id="Path_665" data-name="Path 665" d="M1946.211,1141s4.216,9.29,1.445,12.053a4.372,4.372,0,0,1-2.245,1.308,1.94,1.94,0,0,1-2.035-.852,1.175,1.175,0,0,1-.1-.457,2.286,2.286,0,0,1,.407-1.23,11.115,11.115,0,0,0,.718-1.1,7.135,7.135,0,0,0,.374-1.308,7.7,7.7,0,0,0,.362-2.8C1945.016,1145.761,1946.211,1141,1946.211,1141Z" transform="translate(-1923.275 -1131.103)" fill="#3f3092"/>
    <path id="Path_666" data-name="Path 666" d="M1946.422,1192.438c-.706-.064-.052-.419.362-1.359s-.8-1.095-.8-1.095a1.33,1.33,0,0,0-.919-.028c-.08.436-.189.856-.291,1.242a6.914,6.914,0,0,1-.374,1.308,11.429,11.429,0,0,1-.718,1.1,2.289,2.289,0,0,0-.407,1.23,1.175,1.175,0,0,0,.1.457,1.932,1.932,0,0,0,2.036.852,4.372,4.372,0,0,0,2.245-1.308,2.41,2.41,0,0,0,.205-.233A2.294,2.294,0,0,0,1946.422,1192.438Z" transform="translate(-1923.276 -1172.885)" fill="#2f2e7a"/>
    <path id="Path_667" data-name="Path 667" d="M1871.133,1140s-4.47,9.169-1.779,12.008a4.325,4.325,0,0,0,2.208,1.371,1.928,1.928,0,0,0,2.052-.8,1.225,1.225,0,0,0,.109-.454,2.3,2.3,0,0,0-.374-1.241,11.167,11.167,0,0,1-.686-1.12,7.406,7.406,0,0,1-.339-1.321,7.877,7.877,0,0,1-.283-2.807C1872.2,1144.783,1871.133,1140,1871.133,1140Z" transform="translate(-1859.36 -1130.248)" fill="#3f3092"/>
    <path id="Path_668" data-name="Path 668" d="M1878.318,1198.88a1.218,1.218,0,0,0,.109-.454,2.292,2.292,0,0,0-.374-1.241,11.147,11.147,0,0,1-.686-1.12,7.412,7.412,0,0,1-.339-1.321c-.036-.173-.077-.353-.116-.539-.821-.187-1.26.649-1.21,1.745.066,1.365-.5,1.14-1.356.581s.131,2.181.131,2.181a3.9,3.9,0,0,0,1.79.965A1.929,1.929,0,0,0,1878.318,1198.88Z" transform="translate(-1864.065 -1176.55)" fill="#2f2e7a"/>
    <path id="Path_669" data-name="Path 669" d="M1883.053,1140.141s-1.053-.2-.779,1.08.523,1.573,1.323,1.657c0,0,.581,5.684,4.943,5.6s4.554-5.615,4.554-5.615,1.13-.093,1.3-1.765-.971-.823-.971-.823.772-5.8-4.684-5.952S1883.053,1140.141,1883.053,1140.141Z" transform="translate(-1871.1 -1125.395)" fill="#f8afac"/>
    <path id="Path_670" data-name="Path 670" d="M1893.437,1125.625s-.917,1.443-4.559,1.538-4.521,1.89-4.472,2.93-.247,1.531-.6.544-2.108-5.447.813-7.372,7.835-2.217,9.812.923S1893.437,1125.625,1893.437,1125.625Z" transform="translate(-1871.729 -1114.71)" fill="#3f3092"/>
    <path id="Path_671" data-name="Path 671" d="M1953.436,1144.877s.559,2.108-.381,3.29a5.943,5.943,0,0,1-1.416-3.323C1951.656,1143.163,1953.266,1143.608,1953.436,1144.877Z" transform="translate(-1930.419 -1133.45)" fill="#3f3092"/>
    <path id="Path_672" data-name="Path 672" d="M1954.79,1164.495s.16,2.752,1.22.959C1956.01,1165.454,1955.47,1164.46,1954.79,1164.495Z" transform="translate(-1933.112 -1151.181)" fill="#3f3092"/>
    <path id="Path_673" data-name="Path 673" d="M1865.674,1162.022a.065.065,0,0,1-.062-.049c-.8-3.153,1.618-7.813,1.643-7.859a.065.065,0,0,1,.119.01.062.062,0,0,1,0,.049c-.025.047-2.422,4.664-1.632,7.768a.066.066,0,0,1-.047.08Z" transform="translate(-1856.76 -1142.279)" fill="#3f3092"/>
    <path id="Path_674" data-name="Path 674" d="M1962.136,1135.577a.064.064,0,0,1-.064-.057,3.411,3.411,0,0,0-.872-2.108l-.027-.025v-.036c.166-.872-1.155-2.408-1.309-2.553a.067.067,0,0,1,0-.092.064.064,0,0,1,.089-.009c.016.013,1.509,1.628,1.359,2.643a3.629,3.629,0,0,1,.884,2.165.064.064,0,0,1-.057.071Z" transform="translate(-1937.433 -1122.286)" fill="#3f3092"/>
    <path id="Path_675" data-name="Path 675" d="M1886.895,1141.862l-.1-.077c1.06-1.454,3.55-1.7,5.552-1.909.333-.033.648-.065.949-.1a3.723,3.723,0,0,0,2.887-1.964l.119.054a3.867,3.867,0,0,1-2.992,2.035c-.3.038-.618.07-.951.1C1890.379,1140.207,1887.921,1140.454,1886.895,1141.862Z" transform="translate(-1874.998 -1128.376)" fill="#6169b0"/>
    <path id="Path_676" data-name="Path 676" d="M1956.836,1154.79h-.09c-.409-.039-.705-.329-.7-.561h.131c0,.169.253.4.582.436h.09c1.032,0,1.4-1.755,1.49-2.306.269-1.654-.45-3.951-1.1-5.587a30.2,30.2,0,0,0-1.5-3.2l.113-.064a30.329,30.329,0,0,1,1.505,3.207c.657,1.652,1.384,3.973,1.109,5.657a4.014,4.014,0,0,1-.749,1.961,1.176,1.176,0,0,1-.882.455Z" transform="translate(-1933.924 -1133.248)" fill="#6169b0"/>
    <path id="Path_677" data-name="Path 677" d="M1877.771,1194.557a2.725,2.725,0,0,1-1.7-2.794,7.49,7.49,0,0,1,.273-2.073l.124.038c-.012.038-1.134,3.829,1.349,4.707Z" transform="translate(-1865.835 -1172.714)" fill="#6169b0"/>
    <path id="Path_678" data-name="Path 678" d="M1892.218,1131.241l-.108-.071c1.668-2.535,6.106-2.56,6.222-2.56h0v.13h0C1898.217,1128.739,1893.847,1128.764,1892.218,1131.241Z" transform="translate(-1879.545 -1120.513)" fill="#6169b0"/>
    <path id="Path_679" data-name="Path 679" d="M1940.694,1238.58a11.25,11.25,0,0,1,1.621.484h0s8.409,2.3,10.348,13.694l-4.117,1.308c.954,7.313,4.875,43.05,4.875,43.05-3.818,1.343-10.553.848-14.212,1.082l-3.108-36.377Z" transform="translate(-1917.139 -1214.496)" fill="#69afe1"/>
    <path id="Path_680" data-name="Path 680" d="M1812.14,1240.27s-7.917-.015-13.02,15.755l8.9,1.088a143.738,143.738,0,0,0-5.961,41.564s8.175.212,14.509.727l2.471-36.424Z" transform="translate(-1800.074 -1215.941)" fill="#69afe1"/>
    <path id="Path_681" data-name="Path 681" d="M1851.43,1315.61l-1.259,6.06s-1.769,4.864-1.516,6.352,5.116-3.3,5.116-3.3.527-.4-.446-1.772-1.118-1.06-.521-2.676S1851.43,1315.61,1851.43,1315.61Z" transform="translate(-1842.386 -1280.327)" fill="#4189c8"/>
    <path id="Path_682" data-name="Path 682" d="M1802.589,1353.505a3.561,3.561,0,0,1-1.4.654c-1.233.106-1.109-1.231-.977-2.011.146-.823.3-1.643.449-2.472l-8.9-1.087c-1.5,4.284-1.766,9.092-.154,11.12,3.533,4.441,14.829-3.88,14.829-3.88l-2.082-3.3Z" transform="translate(-1792.719 -1308.513)" fill="#69afe1"/>
    <path id="Path_683" data-name="Path 683" d="M1831.586,1384.14l-.127-.145a4.5,4.5,0,0,1,3.837-1.154l-.048.191A4.365,4.365,0,0,0,1831.586,1384.14Z" transform="translate(-1827.712 -1337.723)" fill="#c2def4"/>
    <path id="Path_684" data-name="Path 684" d="M1857.3,1325.932a.916.916,0,0,1-.663-.235c-.375-.369-.328-1.076-.291-1.643,0-.084.012-.164.015-.24.062-1.288,1.15-6.807,1.55-8.374l.188.048c-.4,1.561-1.481,7.055-1.544,8.335,0,.077-.009.158-.014.244-.035.528-.077,1.185.234,1.49a.792.792,0,0,0,.651.174,2.2,2.2,0,0,0,1-.425c.115-.074.234-.145.359-.218l.74-.407.91-.5.094.172-.91.5-.74.407c-.119.067-.237.145-.349.212a2.382,2.382,0,0,1-1.086.454C1857.391,1325.929,1857.342,1325.932,1857.3,1325.932Z" transform="translate(-1848.957 -1280.182)" fill="#c2def4"/>
    <path id="Path_685" data-name="Path 685" d="M1829.677,1403.037l8.532-4.587,5,3.306-.045.651a10.552,10.552,0,0,1-2.127.026,12.085,12.085,0,0,1-2.262-.122c-.771-.173-1.479-.557-2.261-.688a5.629,5.629,0,0,0-5.324,2.472,10.952,10.952,0,0,0-1.058,3.088c-.345,1.309-.776,2.585-1.212,3.861-.218.637-.436,1.274-.647,1.913a11.6,11.6,0,0,0-.582,1.788s.4-2.908.92-6.075C1828.969,1406.469,1829.454,1403.948,1829.677,1403.037Z" transform="translate(-1824.49 -1351.124)" fill="#4189c8"/>
    <path id="Path_686" data-name="Path 686" d="M1524.62,879.359l-6.775-15.669,1.444-1.114-2.088.065-.672-7.023.195-.019.654,6.84,2.508-.078-1.8,1.39,6.714,15.531Z" transform="translate(-1507.313 -828.878)" fill="#c2def4"/>
    <path id="Path_687" data-name="Path 687" d="M1592.017,881.263l-.187-.054,4.556-15.809-1.7-1.291,2.361.073,1.24-5.722.19.041-1.274,5.881-1.915-.058,1.32,1-.019.064Z" transform="translate(-1571.666 -831.322)" fill="#c2def4"/>
    <path id="Path_688" data-name="Path 688" d="M1872.1,1240.325h-.015a.2.2,0,0,1-.18-.208l.279-3.906a3.45,3.45,0,0,1,1.256-2.634,4.522,4.522,0,0,1,3.293-.64.2.2,0,0,1-.077.382,4.222,4.222,0,0,0-2.98.57,3.074,3.074,0,0,0-1.1,2.349l-.279,3.906A.2.2,0,0,1,1872.1,1240.325Z" transform="translate(-1862.279 -1209.609)" fill="#3f3092"/>
    <path id="Path_689" data-name="Path 689" d="M1856.619,1286.617a.2.2,0,0,1-.193-.173,8.772,8.772,0,0,0-.872-3.123,2.406,2.406,0,0,0-2.288-1.463c-1.163.055-2.565.872-2.617,4.479a.2.2,0,0,1-.2.193h0a.2.2,0,0,1-.192-.2,7.963,7.963,0,0,1,.564-3.105,2.671,2.671,0,0,1,2.422-1.758,2.768,2.768,0,0,1,2.651,1.665,9.158,9.158,0,0,1,.916,3.264.2.2,0,0,1-.17.218Z" transform="translate(-1843.779 -1251.147)" fill="#3f3092"/>
    <path id="Path_690" data-name="Path 690" d="M1851.011,1320.444h-.026c-.064-.009-1.547-.224-1.723-1.143-.154-.805.092-5.3.1-5.488a.2.2,0,1,1,.39.022,51.437,51.437,0,0,0-.109,5.394c.1.535,1.041.779,1.394.829a.195.195,0,0,1-.028.388Z" transform="translate(-1842.883 -1278.634)" fill="#3f3092"/>
    <path id="Path_691" data-name="Path 691" d="M1881.745,1320.952a.195.195,0,0,1-.022-.388c.355-.041,1.3-.259,1.416-.791a48.911,48.911,0,0,0,.026-5.277.2.2,0,0,1,.391-.012c0,.186.145,4.572-.036,5.379-.2.913-1.691,1.087-1.753,1.093Z" transform="translate(-1870.522 -1279.216)" fill="#3f3092"/>
    <circle id="Ellipse_111" data-name="Ellipse 111" cx="0.615" cy="0.615" r="0.615" transform="translate(7.414 40.973)" fill="#3f3092"/>
    <circle id="Ellipse_112" data-name="Ellipse 112" cx="0.615" cy="0.615" r="0.615" transform="translate(10.585 41.016)" fill="#3f3092"/>
    <path id="Path_692" data-name="Path 692" d="M1949.928,1240.1a.2.2,0,0,1-.195-.195c0-.07-.06-6.881-3.457-7a.195.195,0,1,1,.015-.39c1.577.054,2.742,1.365,3.364,3.79a16.286,16.286,0,0,1,.468,3.6.195.195,0,0,1-.195.2Z" transform="translate(-1925.676 -1209.317)" fill="#3f3092"/>
    <circle id="Ellipse_113" data-name="Ellipse 113" cx="1.582" cy="1.582" r="1.582" transform="translate(22.649 30.59)" fill="#dfe4f3"/>
    <circle id="Ellipse_114" data-name="Ellipse 114" cx="0.788" cy="0.788" r="0.788" transform="translate(23.443 31.383)" fill="#cbcee0"/>
    <path id="Path_693" data-name="Path 693" d="M1885.73,1344.987a4.954,4.954,0,0,1,1.347-1.954,3.123,3.123,0,0,0,1.444-1.881c.454-1.083.919-1.848,1.131-1.08s-1.067,2.07-.352,1.925a30.148,30.148,0,0,0,3.2-1.38c.145-.045.792-.241.692.119a.408.408,0,0,1-.131.18,10.508,10.508,0,0,1-.872.737c-.153.115-.308.225-.465.331-.109.073-.244.145-.262.291q1.327-.525,2.691-.96c.1-.03.278-.1.375-.047.2.106-.081.31-.185.388-.228.173-.471.328-.712.484-.145.094-1.275.753-1.219.846.527-.126,1.032-.391,1.554-.547.161-.048,1.269-.424,1.23-.084-.018.154-.4.362-.516.452-.215.164-.436.326-.656.481q-.68.475-1.4.884a.777.777,0,0,0-.276.206c-.083.13-.01.2.145.16.5-.129.993-.307,1.492-.458a2.59,2.59,0,0,1,.6-.145c.4-.022.237.331.045.529a6.269,6.269,0,0,1-1.431,1,16.024,16.024,0,0,0-1.454.951,10.6,10.6,0,0,1-1.836,1.15,11.8,11.8,0,0,1-2.085.727Z" transform="translate(-1874.092 -1300.967)" fill="#f8afac"/>
    <path id="Path_694" data-name="Path 694" d="M1850.1,1531.181a3.582,3.582,0,0,1-.507-.036,2.948,2.948,0,0,1-2.171-1.322,6.554,6.554,0,0,1-.693-4.148,14.96,14.96,0,0,1,.42-2.432l.023-.083,7.026,1.084v.084a14.2,14.2,0,0,1-.291,2.395,6.869,6.869,0,0,1-1.829,3.728A2.954,2.954,0,0,1,1850.1,1531.181Zm-2.791-7.8c-.155.6-1.038,4.341.27,6.337a2.762,2.762,0,0,0,2.035,1.234,2.845,2.845,0,0,0,2.326-.647c1.806-1.551,2.024-5.283,2.047-5.894Z" transform="translate(-1840.719 -1457.704)" fill="#c2def4"/>
    <path id="Path_695" data-name="Path 695" d="M1967.7,1531.2a2.953,2.953,0,0,1-1.98-.727,6.877,6.877,0,0,1-1.829-3.728,14.352,14.352,0,0,1-.291-2.395v-.084l7.026-1.084.023.083a15,15,0,0,1,.422,2.432,6.56,6.56,0,0,1-.695,4.148,2.948,2.948,0,0,1-2.169,1.322,3.637,3.637,0,0,1-.508.033Zm-3.9-6.771c.023.611.241,4.343,2.047,5.894a2.847,2.847,0,0,0,2.326.647,2.763,2.763,0,0,0,2.035-1.234c1.308-2,.426-5.732.27-6.337Z" transform="translate(-1940.641 -1457.721)" fill="#c2def4"/>
    <path id="Path_696" data-name="Path 696" d="M1971.017,1532.038c-.582,0-.97-.026-1.018-.029l.015-.195a18.108,18.108,0,0,0,2.085,0,8.29,8.29,0,0,0,3.463-.8l.1.168A10.464,10.464,0,0,1,1971.017,1532.038Z" transform="translate(-1946.111 -1464.413)" fill="#c2def4"/>
    <rect id="Rectangle_138" data-name="Rectangle 138" width="11.327" height="0.195" transform="matrix(0.093, -0.996, 0.996, 0.093, 21.178, 63.767)" fill="#c2def4"/>
    <path id="Path_697" data-name="Path 697" d="M1857.816,1533.707a33.657,33.657,0,0,1-5.2-.727l.041-.19a30.236,30.236,0,0,0,5.524.709l.015.195C1858.078,1533.7,1857.951,1533.707,1857.816,1533.707Z" transform="translate(-1845.796 -1465.934)" fill="#c2def4"/>
    <rect id="Rectangle_139" data-name="Rectangle 139" width="0.195" height="14.26" transform="translate(16.446 51.312) rotate(-1.18)" fill="#c2def4"/>
    <path id="Path_698" data-name="Path 698" d="M1977.674,1633.285a33.494,33.494,0,0,1-5.234-.4l.033-.192a31.854,31.854,0,0,0,9.925,0l.036.192A26.221,26.221,0,0,1,1977.674,1633.285Z" transform="translate(-1948.197 -1551.31)" fill="#c2def4"/>
    <path id="Path_699" data-name="Path 699" d="M1842.115,1629.124a29.386,29.386,0,0,1-7.285-.727l.055-.187c3.544,1.017,9.954.65,10.018.645l.011.195C1844.886,1629.051,1843.723,1629.124,1842.115,1629.124Z" transform="translate(-1830.592 -1547.482)" fill="#c2def4"/>
    <rect id="Rectangle_140" data-name="Rectangle 140" width="0.195" height="6.488" transform="translate(29.14 33.493) rotate(-19.57)" fill="#c2def4"/>
    <path id="Path_700" data-name="Path 700" d="M1672.729,934.96l1.784,13.195-4.38,1.045-1.612-12.9Z" transform="translate(-1637.206 -896.7)" fill="#69afe1"/>
  </g>
  <rect id="Rectangle_142" data-name="Rectangle 142" width="20.701" height="1.599" transform="translate(253.453 101.465)" fill="#b6d8ef"/>
  <rect id="Rectangle_143" data-name="Rectangle 143" width="31.811" height="0.872" transform="translate(253.453 105.338)" fill="#b6d8ef"/>
  <rect id="Rectangle_144" data-name="Rectangle 144" width="45.378" height="0.872" transform="translate(253.453 116.098)" fill="#b6d8ef"/>
  <rect id="Rectangle_145" data-name="Rectangle 145" width="45.378" height="0.872" transform="translate(253.453 118.904)" fill="#b6d8ef"/>
  <rect id="Rectangle_146" data-name="Rectangle 146" width="45.378" height="0.872" transform="translate(253.453 121.711)" fill="#b6d8ef"/>
  <rect id="Rectangle_147" data-name="Rectangle 147" width="45.378" height="0.872" transform="translate(253.453 124.518)" fill="#b6d8ef"/>
  <rect id="Rectangle_148" data-name="Rectangle 148" width="45.378" height="0.872" transform="translate(253.453 127.326)" fill="#b6d8ef"/>
  <rect id="Rectangle_149" data-name="Rectangle 149" width="45.378" height="0.872" transform="translate(253.453 130.132)" fill="#b6d8ef"/>
  <path id="Path_701" data-name="Path 701" d="M577.768,473.477c-2.162-7.481-8.117-6.34-11.585-4.924a6.89,6.89,0,0,1-5.2,0c-3.469-1.416-9.424-2.557-11.584,4.924-2.152,7.445,5.379,13.98,10.28,17.331a6.926,6.926,0,0,0,7.807,0C572.391,487.457,579.919,480.922,577.768,473.477Z" transform="translate(-520.459 -457.865)" fill="#ef4b64"/>
  <path id="Path_702" data-name="Path 702" d="M602.357,515.82a.672.672,0,0,1-.659-.52l-1.708-7.361-1.665,3.475a.68.68,0,0,1-.611.385H594.57v-.872h3.021l1.851-3.87a.679.679,0,0,1,1.272.145l1.624,7.012.91-4.61a.677.677,0,0,1,1.3-.115l1.034,2.658h5.882v.872h-6.011a.674.674,0,0,1-.631-.436l-.839-2.156-.955,4.843a.672.672,0,0,1-.654.545Z" transform="translate(-559.385 -491.331)" fill="#f3fafe"/>
  <rect id="Rectangle_150" data-name="Rectangle 150" width="11.603" height="0.872" transform="translate(67.441 10.629)" fill="#f3fafe"/>
  <rect id="Rectangle_151" data-name="Rectangle 151" width="27.653" height="0.872" transform="translate(67.441 15.342)" fill="#f3fafe"/>
  <rect id="Rectangle_152" data-name="Rectangle 152" width="27.653" height="0.872" transform="translate(67.441 20.054)" fill="#f3fafe"/>
  <rect id="Rectangle_153" data-name="Rectangle 153" width="27.653" height="0.872" transform="translate(67.441 32.272)" fill="#f3fafe"/>
  <line id="Line_44" data-name="Line 44" x2="104.212" transform="translate(246.357 231.946)" fill="#b7d8ee"/>
  <rect id="Rectangle_154" data-name="Rectangle 154" width="104.212" height="1.308" transform="translate(246.357 231.292)" fill="#e7f3fc"/>
  <line id="Line_45" data-name="Line 45" x2="34.039" transform="translate(0 231.946)" fill="#b7d8ee"/>
  <rect id="Rectangle_155" data-name="Rectangle 155" width="34.039" height="1.308" transform="translate(0 231.292)" fill="#e7f3fc"/>
  <rect id="Rectangle_156" data-name="Rectangle 156" width="72.7" height="50.664" transform="translate(263.421 199.996)" fill="#f3fafe"/>
  <path id="Path_703" data-name="Path 703" d="M2267.333,1845.044H2207V1826.68h60.333Zm-59.751-.582h59.17v-17.2h-59.17Z" transform="translate(-1937.399 -1619.433)" fill="#b6d8ef"/>
  <path id="Path_704" data-name="Path 704" d="M2267.333,1984.375H2207V1966h60.333Zm-59.751-.582h59.17v-17.212h-59.17Z" transform="translate(-1937.399 -1738.499)" fill="#b6d8ef"/>
  <path id="Path_705" data-name="Path 705" d="M2398.83,1874.965a2.68,2.68,0,1,1,1.9-.784A2.678,2.678,0,0,1,2398.83,1874.965Zm0-4.774a2.1,2.1,0,1,0,2.1,2.092A2.1,2.1,0,0,0,2398.83,1870.191Z" transform="translate(-2099.059 -1656.121)" fill="#b6d8ef"/>
  <path id="Path_706" data-name="Path 706" d="M2398.771,2002.988a2.679,2.679,0,1,1,2.678-2.678A2.679,2.679,0,0,1,2398.771,2002.988Zm0-4.775a2.1,2.1,0,1,0,2.1,2.1A2.1,2.1,0,0,0,2398.771,1998.213Z" transform="translate(-2098.999 -1765.53)" fill="#b6d8ef"/>
  <path id="Path_707" data-name="Path 707" d="M2336.909,1697.7h-9.159l3.992,11.126a.2.2,0,0,0-.04.11c0,.507,2.319.919,5.18.919s5.178-.411,5.178-.919l4.012-11.236Z" transform="translate(-2040.594 -1509.204)" fill="#f3fafe"/>
  <ellipse id="Ellipse_115" data-name="Ellipse 115" cx="9.162" cy="1.707" rx="9.162" ry="1.707" transform="translate(287.151 186.791)" fill="#aaceed"/>
  <path id="Path_708" data-name="Path 708" d="M2342.508,1619c-.839-2.744-6.019,1.371-6.019,1.371s3.353-6.323,1.454-6.7-2.589,2.6-2.589,2.6a1.657,1.657,0,0,0-2.972.063s-.075-8.229-3.885-7.009-2.362,10.665-2.362,10.665a2,2,0,0,0-2.361-1.371c-2.014,1.006-.269,2.877,1.145,4.03h0c.07.057.146.113.21.167h0l.2.145h.009l.187.145h0a33.962,33.962,0,0,0,7.208.653,32.977,32.977,0,0,0,7.382-.7c.067-.045.134-.093.2-.145h0l.2-.145h0c.067-.051.135-.1.2-.157h0c.068-.054.135-.11.2-.167h0a7.01,7.01,0,0,0,.766-.747h0A2.787,2.787,0,0,0,2342.508,1619Z" transform="translate(-2036.417 -1433.572)" fill="#9ac0dd"/>
  <rect id="Rectangle_157" data-name="Rectangle 157" width="54.211" height="54.211" transform="translate(65.892 101.963) rotate(90)" fill="#aaceed"/>
  <rect id="Rectangle_158" data-name="Rectangle 158" width="54.211" height="54.211" transform="translate(67.632 100.391) rotate(90)" fill="#dfedf8"/>
  <rect id="Rectangle_159" data-name="Rectangle 159" width="48.396" height="48.396" transform="translate(16.329 103.299)" fill="#9ac0dd"/>
  <circle id="Ellipse_116" data-name="Ellipse 116" cx="15.838" cy="15.838" r="15.838" transform="translate(24.69 111.924)" fill="#dfedf8"/>
  <rect id="Rectangle_160" data-name="Rectangle 160" width="81.836" height="45.793" rx="22.897" transform="translate(70.645 38.519)" fill="#b7d8ee"/>
  <path id="Path_709" data-name="Path 709" d="M909.234,708.7H841.907A7.919,7.919,0,0,1,834,700.79V669.509a7.919,7.919,0,0,1,7.91-7.909h67.324a7.917,7.917,0,0,1,7.909,7.909V700.79A7.917,7.917,0,0,1,909.234,708.7ZM841.907,662.9a6.609,6.609,0,0,0-6.6,6.6V700.79a6.608,6.608,0,0,0,6.6,6.6h67.324a6.608,6.608,0,0,0,6.6-6.6V669.509a6.609,6.609,0,0,0-6.6-6.6Z" transform="translate(-764.007 -623.733)" fill="#e7f3fc"/>
  <path id="Path_710" data-name="Path 710" d="M563.812,353.52h5.5a4.812,4.812,0,0,1,4.812,4.812v13.957a3.409,3.409,0,0,1-3.411,3.4h-8.306a3.409,3.409,0,0,1-3.409-3.4V358.328A4.812,4.812,0,0,1,563.812,353.52Z" transform="translate(-477.732 -302.125)" fill="#f3fafe"/>
  <path id="Path_711" data-name="Path 711" d="M930.392,740.711h-13.6V738h13.6Zm-13.02-.582H929.81v-1.548H917.371Z" transform="translate(-834.76 -689.026)" fill="#e7f3fc"/>
  <rect id="Rectangle_161" data-name="Rectangle 161" width="10.975" height="9.544" transform="translate(83.275 57.283)" fill="#b6d8ef"/>
  <rect id="Rectangle_162" data-name="Rectangle 162" width="11.603" height="0.872" transform="translate(110.64 47.756)" fill="#f3fafe"/>
  <rect id="Rectangle_163" data-name="Rectangle 163" width="27.653" height="0.872" transform="translate(110.64 52.469)" fill="#f3fafe"/>
  <rect id="Rectangle_164" data-name="Rectangle 164" width="27.653" height="0.872" transform="translate(110.64 57.182)" fill="#f3fafe"/>
  <rect id="Rectangle_165" data-name="Rectangle 165" width="27.653" height="0.872" transform="translate(110.64 69.4)" fill="#f3fafe"/>
</svg>
