<svg xmlns="http://www.w3.org/2000/svg" width="429.755" height="339.535" viewBox="0 0 429.755 339.535">
  <g id="Graphic" transform="translate(0 -0.05)">
    <path id="Path_712" data-name="Path 712" d="M1768.895,2444.765s-6.088,10.18,9.545,11.423,33.349,3.108,36.768,9.015,27.264,5.283,35.235,1.865,23.2-23.428,23.2-23.428Z" transform="translate(-1515.305 -2130.062)" fill="#aaceed"/>
    <rect id="Rectangle_166" data-name="Rectangle 166" width="219.172" height="0.963" transform="translate(59.362 36.654)" fill="#e7f3fc"/>
    <rect id="Rectangle_167" data-name="Rectangle 167" width="219.172" height="0.963" transform="translate(59.362 69.476)" fill="#e7f3fc"/>
    <rect id="Rectangle_168" data-name="Rectangle 168" width="219.172" height="0.963" transform="translate(59.362 102.298)" fill="#e7f3fc"/>
    <path id="Path_713" data-name="Path 713" d="M776.566,662.415h-207.6a7.391,7.391,0,0,1-7.381-7.381v-108.5a7.391,7.391,0,0,1,7.381-7.381h207.6a7.391,7.391,0,0,1,7.381,7.381v108.5A7.391,7.391,0,0,1,776.566,662.415Zm-207.6-122.3a6.428,6.428,0,0,0-6.418,6.418v108.5a6.428,6.428,0,0,0,6.418,6.419h207.6a6.428,6.428,0,0,0,6.418-6.419v-108.5a6.428,6.428,0,0,0-6.418-6.418Z" transform="translate(-502.696 -531.167)" fill="#e7f3fc"/>
    <path id="Path_714" data-name="Path 714" d="M1133.477,1659.4s-2.086,30.876-3.541,44.219-5.565,58.6-5.565,58.6l-18.613-1.1-1.314-80.012-1.283-21.707Z" transform="translate(-957.374 -1471.662)" fill="#5356a5"/>
    <path id="Path_715" data-name="Path 715" d="M888.5,1667.264s.789,14.339,4.891,26.957,4.1,71.511,4.1,71.511l22.177-1.444,11.081-98.407S901.265,1659.886,888.5,1667.264Z" transform="translate(-777.159 -1475.174)" fill="#5356a5"/>
    <path id="Path_716" data-name="Path 716" d="M1128.505,1688s1.144,14-2.5,25.712-4.433,9.892-5.34,23.689,4.011,48.277,4.011,48.277l-9.214-.546-.753-45.819,5.961-50.428Z" transform="translate(-967.071 -1495.673)" fill="#332f84"/>
    <rect id="Rectangle_169" data-name="Rectangle 169" width="40.649" height="0.321" transform="translate(148.597 233.551) rotate(-83.16)" fill="#fffaf8"/>
    <path id="Path_717" data-name="Path 717" d="M946.914,1939.284l-.321-.035c1.8-15.939-2.567-55.02-2.6-55.413l.321-.035C944.354,1884.193,948.716,1923.306,946.914,1939.284Z" transform="translate(-823.745 -1660.055)" fill="#fffaf8"/>
    <rect id="Rectangle_170" data-name="Rectangle 170" width="71.482" height="0.321" transform="translate(164.362 284.413) rotate(-83.55)" fill="#fffaf8"/>
    <path id="Path_718" data-name="Path 718" d="M888.23,2310.27l2.51,8.06s-17.44,9.3-30.986,7.7,16.76-12.883,16.76-12.883Z" transform="translate(-750.098 -2018.093)" fill="#3f3092"/>
    <path id="Path_719" data-name="Path 719" d="M990.016,2283.491l.607,4.3s-6.1,5.418-11.714,2.888l-.679-4.794Z" transform="translate(-852.491 -1995.611)" fill="#f8afac"/>
    <path id="Path_720" data-name="Path 720" d="M1129.668,2321.4l-1.358,8.331s18.57,6.768,31.76,3.3-18.4-10.414-18.4-10.414Z" transform="translate(-978.489 -2027.437)" fill="#3f3092"/>
    <path id="Path_721" data-name="Path 721" d="M1136.77,2294.35v4.341s6.8,4.512,12.005,1.215v-4.843Z" transform="translate(-985.591 -2004.728)" fill="#f8afac"/>
    <path id="Path_722" data-name="Path 722" d="M1451.07,1290.732a48.538,48.538,0,0,0,5.5-6.164c2.007-2.885,3.53-1.51,2.523.886s.963,3.565,3.461.611,5.185-6.553,7.06-5.882c1.072.385-.321,2.1-.321,2.1s1.962-1.659,2.693-.014c.191.433-1.178,1.728-1.178,1.728a1.635,1.635,0,0,1,2.37.039c.6.65-1.258,2.047-1.258,2.047s1.566-.019,1.115,1.315-6.579,10.3-18.013,14.156Z" transform="translate(-1249.459 -1153.225)" fill="#f8afac"/>
    <path id="Path_723" data-name="Path 723" d="M1538.577,1297.731l-.176-.266a14.43,14.43,0,0,0,4.055-4.284l.279.16A14.8,14.8,0,0,1,1538.577,1297.731Z" transform="translate(-1322.776 -1164.206)" fill="#f37f85"/>
    <path id="Path_724" data-name="Path 724" d="M1543.319,1308.909l-.2-.252a50.865,50.865,0,0,0,4.83-4.956l.244.208A51.027,51.027,0,0,1,1543.319,1308.909Z" transform="translate(-1326.738 -1173.038)" fill="#f37f85"/>
    <path id="Path_725" data-name="Path 725" d="M1546.48,1322.007l-.161-.282c1.67-.894,5.387-5,5.424-5.045l.239.215C1551.837,1317.066,1548.194,1321.088,1546.48,1322.007Z" transform="translate(-1329.425 -1183.935)" fill="#f37f85"/>
    <path id="Path_726" data-name="Path 726" d="M1499.488,1346.99l-.286-.144c.716-1.417-.391-3.659-.4-3.681l.286-.145C1499.135,1343.118,1500.276,1345.424,1499.488,1346.99Z" transform="translate(-1289.53 -1206.048)" fill="#f37f85"/>
    <rect id="Rectangle_171" data-name="Rectangle 171" width="0.321" height="3.371" transform="translate(212.374 136.665) rotate(-29.5)" fill="#f37f85"/>
    <path id="Path_727" data-name="Path 727" d="M799.482,1078.968a37.9,37.9,0,0,0-17.864,10.963c-7.769,8.667-29.525,38.992-14.974,48.359,6.436,4.145,14.052,5.427,20.539,5.568,0,0-3.79,19.826-4.88,25.486-1.788,9.281-4.653,34.133-4.653,34.133l33.764-.86.16-21.181,14.271-1.972,2.728,22.443,25.576-.135s-1.07-22.931-1.666-30.545A268.74,268.74,0,0,0,848.576,1142s17.8.634,29.3-7.594l-4.948-14.961s-16.985,6.008-24.619-5.1-9.612-36.782-33.9-35.487Z" transform="translate(-670.743 -984.229)" fill="#69afe1"/>
    <path id="Path_728" data-name="Path 728" d="M1003.348,1101.434c7.641,18.774,5.438,80.017,5.438,80.017l14.271-1.972s-5.355-85.084-4.917-90.676-4.843-9.981-4.844-9.982q-.823,0-1.685.047l-14.911.114S995.708,1082.664,1003.348,1101.434Z" transform="translate(-867.961 -984.242)" fill="#fff"/>
    <path id="Path_729" data-name="Path 729" d="M923.237,788.377s-3.158-2.407-5.072.16-4.827.831-6.661,3.626-1.258,3.4-4.6,6.234-4.929,9.915-2.226,10.735,1.81,1.99.6,4.011-.321,4.543,1.159,4.795-1.516,4.682.757,5.456,4.9-1.444,5.515.642,2.487,4.459,4.552,4.271,20.886,3.415,23.556.825c0,0,3.737,1.133,4.238-1.306,0,0,.3-3.5,2.688-4.584s4.8-3.37,3.585-4.91-2.15-4.587-.78-6.187,1.969-3.034.9-4.881-3.339-3.615-2.854-5.924.172-6.967-2.017-7.541-5.058-.161-5.416-1.6-.161-3.673-3.084-4.124-4.361,1.64-6.273.555S929.142,784.77,923.237,788.377Z" transform="translate(-789.59 -738.897)" fill="#ef4b64"/>
    <path id="Path_730" data-name="Path 730" d="M1002.019,886.183a29.577,29.577,0,0,0,.7-19.379,12.776,12.776,0,0,0-3-4.867,14.641,14.641,0,0,0-12.836-3.952c-3.11.6-7.232,1.781-9.081,4.626-1.961,3.015-.321,10.045-.321,10.045-1.754.435-.963,3.119.058,6.1a3.237,3.237,0,0,0,3.67,2.416c.8,5-.1,11.056-.526,13.408a4.141,4.141,0,0,0,.231,2.262,15.482,15.482,0,0,0,1.078,2.179s9.178,7.847,14.13,4.69a3.238,3.238,0,0,0,.829-4.653c-.8-1.083-1.551-1.98-1.98-2.526a7.308,7.308,0,0,1-1.133-3.9C997.679,892.682,1000.477,889.471,1002.019,886.183Z" transform="translate(-850.988 -798.636)" fill="#f8afac"/>
    <path id="Path_731" data-name="Path 731" d="M1091.249,940.5c-.027-.554.247-.945.849-1.8l.127-.178c.2-.282.206-.409.193-.459-.043-.172-.464-.385-.952-.642-.161-.077-.321-.16-.491-.253-1.444-.765-2.166-3.554-2.195-3.672l.621-.16c.186.73.884,2.738,1.874,3.264.172.09.332.172.481.247.7.359,1.17.6,1.284,1.051a1.257,1.257,0,0,1-.29.982l-.125.18c-.569.812-.749,1.085-.735,1.4Z" transform="translate(-945.302 -862.097)" fill="#f37f85"/>
    <ellipse id="Ellipse_117" data-name="Ellipse 117" cx="0.822" cy="0.499" rx="0.822" ry="0.499" transform="translate(147.339 72.478) rotate(-82.52)" fill="#3f3092"/>
    <ellipse id="Ellipse_118" data-name="Ellipse 118" cx="0.822" cy="0.499" rx="0.822" ry="0.499" transform="translate(139.769 73.946) rotate(-82.52)" fill="#3f3092"/>
    <path id="Path_732" data-name="Path 732" d="M984.566,963.949c-.719-.709-.364-1.284-.051-1.781a3.335,3.335,0,0,0,.464-.987c.075-.307-.048-.424-.7-.656-.452-.161-1.136-.408-.929-1.123a.93.93,0,0,1,.581-.69,1.189,1.189,0,0,1,1,.231l-.39.512.194-.255-.193.257a.6.6,0,0,0-.417-.134c-.088.029-.143.175-.16.259s.011.16.53.34,1.333.481,1.1,1.414a3.89,3.89,0,0,1-.541,1.171c-.321.515-.383.642-.043.985Z" transform="translate(-856.758 -883.371)" fill="#f37f85"/>
    <path id="Path_733" data-name="Path 733" d="M1039.952,1033.526c-4.266-.684-6.357-2.9-7.36-4.637a8.611,8.611,0,0,1-1.162-3.667l.642-.023-.321.011.321-.011a8.115,8.115,0,0,0,1.091,3.394c1.359,2.338,3.677,3.784,6.89,4.3Z" transform="translate(-897.154 -939.225)" fill="#f37f85"/>
    <ellipse id="Ellipse_119" data-name="Ellipse 119" cx="3.074" cy="0.759" rx="3.074" ry="0.759" transform="matrix(0.97, -0.245, 0.245, 0.97, 136.837, 77.503)" fill="#f48c94"/>
    <ellipse id="Ellipse_120" data-name="Ellipse 120" cx="1.966" cy="0.574" rx="1.966" ry="0.574" transform="translate(148.352 74.887) rotate(-6.87)" fill="#f48c94"/>
    <path id="Path_734" data-name="Path 734" d="M1091.822,1032.63l-.482-.424a3.048,3.048,0,0,1,3.479-.852l-.271.581A2.444,2.444,0,0,0,1091.822,1032.63Z" transform="translate(-947.451 -944.178)" fill="#f37f85"/>
    <path id="Path_735" data-name="Path 735" d="M1099.209,916.627a.321.321,0,0,1-.207-.565,4.316,4.316,0,0,1,4.92-.286.321.321,0,1,1-.334.549,3.658,3.658,0,0,0-4.172.226A.321.321,0,0,1,1099.209,916.627Z" transform="translate(-953.789 -846.812)" fill="#ef4b64"/>
    <path id="Path_736" data-name="Path 736" d="M1048.829,925.707a.321.321,0,0,1-.224-.55,4.322,4.322,0,0,1,4.859-.833.321.321,0,0,1-.3.571h0a3.611,3.611,0,0,0-4.114.72A.322.322,0,0,1,1048.829,925.707Z" transform="translate(-911.492 -854.191)" fill="#ef4b64"/>
    <path id="Path_737" data-name="Path 737" d="M966.034,858.757a3.092,3.092,0,0,1,2.364,1.2c.711,1.159,1.269,1.276,1.335.719s-.482-5.006.82-7,14.647-8.167,20.1-3.3c0,0-2.145-9.281-13.045-9.2s-14.922,9.92-14.789,13.1A5.471,5.471,0,0,0,966.034,858.757Z" transform="translate(-839.545 -784.73)" fill="#ef4b64"/>
    <path id="Path_738" data-name="Path 738" d="M979.7,862.818s4.146-19.273,22.757-11.932l-1.6-2.477s-9.036-6.478-16.938,1.025-5.66,13.219-5.66,13.219Z" transform="translate(-852.27 -788.621)" fill="#fff"/>
    <path id="Path_739" data-name="Path 739" d="M1003.242,901.85a3.1,3.1,0,0,1-.892,3.79c-2,1.686-1.261,1.593-1.208,2.976a7.032,7.032,0,0,1-.817,2.993l-1.075-2.946S1000.012,902.221,1003.242,901.85Z" transform="translate(-870.138 -835.668)" fill="#ef4b64"/>
    <path id="Path_740" data-name="Path 740" d="M1054.694,875.562a2.3,2.3,0,0,0-1.5-1.869l.135-.462a2.792,2.792,0,0,1,1.844,2.247Z" transform="translate(-915.423 -811.641)" fill="#f5939c"/>
    <path id="Path_741" data-name="Path 741" d="M1065.353,878.238h-.481a1.776,1.776,0,0,0-.621-1.284l.3-.374A2.22,2.22,0,0,1,1065.353,878.238Z" transform="translate(-924.708 -814.453)" fill="#f5939c"/>
    <path id="Path_742" data-name="Path 742" d="M1030.757,887.454a3.111,3.111,0,0,1-1.147-1.893l.481-.08a2.659,2.659,0,0,0,.94,1.576Z" transform="translate(-895.626 -821.925)" fill="#f5939c"/>
    <path id="Path_743" data-name="Path 743" d="M998.232,915.638l-.482-.029v-.08a3.6,3.6,0,0,1,1.754-3.3c1.395-.915,1.165-1.969,1.163-1.98l.469-.109a2.453,2.453,0,0,1-1.369,2.492,3.128,3.128,0,0,0-1.537,2.927Z" transform="translate(-868.878 -842.628)" fill="#f5939c"/>
    <path id="Path_744" data-name="Path 744" d="M1078.434,870.281a3.515,3.515,0,0,0-1.074-1.868l.321-.353a3.919,3.919,0,0,1,1.229,2.2Z" transform="translate(-935.714 -807.3)" fill="#f5939c"/>
    <path id="Path_745" data-name="Path 745" d="M1119.36,884.839a3.551,3.551,0,0,0,1.953,2.593,5.827,5.827,0,0,1,2.525,2.913s1.364-4,.029-4.835S1119.36,884.839,1119.36,884.839Z" transform="translate(-970.975 -821.375)" fill="#ef4b64"/>
    <path id="Path_746" data-name="Path 746" d="M1106.44,874.386l-.435-.207c.354-.748-.417-1.529-.425-1.537l.339-.342A1.972,1.972,0,0,1,1106.44,874.386Z" transform="translate(-959.406 -810.86)" fill="#f5939c"/>
    <path id="Path_747" data-name="Path 747" d="M918.243,878.374a3.348,3.348,0,0,1-1.348-2.683c.055-2.343,2.684-4.385,2.8-4.47l.294.382c-.026.019-2.559,1.99-2.608,4.1a2.892,2.892,0,0,0,1.176,2.3Z" transform="translate(-800.997 -809.953)" fill="#f5939c"/>
    <path id="Path_748" data-name="Path 748" d="M948,928.707l-.177-.449a1.955,1.955,0,0,0,1.271-1.842,4,4,0,0,0-.144-1.341l.461-.144C949.718,925.922,949.826,927.99,948,928.707Z" transform="translate(-826.96 -855.045)" fill="#f5939c"/>
    <path id="Path_749" data-name="Path 749" d="M1155.93,874.724l-.427-.222a2.972,2.972,0,0,0-.284-3.27,5.732,5.732,0,0,0-1.359-1.35l.263-.4C1154.157,869.5,1157.493,871.73,1155.93,874.724Z" transform="translate(-999.939 -808.492)" fill="#f5939c"/>
    <path id="Path_750" data-name="Path 750" d="M1159.087,946.9c-1.926-1.3-.706-4.974-.653-5.135l.456.161c-.011.035-1.152,3.482.467,4.575Z" transform="translate(-1003.419 -869.183)" fill="#f5939c"/>
    <path id="Path_751" data-name="Path 751" d="M1084.783,997.341a8.344,8.344,0,0,1-2.933-.545l.247-.592-.124.3.124-.3c.037.016,3.851,1.55,6.418-.943l.448.459A5.845,5.845,0,0,1,1084.783,997.341Z" transform="translate(-939.484 -914.09)" fill="#f37f85"/>
    <path id="Path_752" data-name="Path 752" d="M981.382,815.193h0c-.361,0-1.2-.16-1.2-1.568,0-2.6,5.074-3.747,5.3-3.795l.1.47a14.175,14.175,0,0,0-2.508.854c-1.1.5-2.407,1.342-2.407,2.471,0,.719.244,1.083.724,1.086h0c.69,0,1.5-.695,1.508-1.054h.481C983.36,814.35,982.269,815.193,981.382,815.193Z" transform="translate(-854.128 -758.414)" fill="#f5939c"/>
    <path id="Path_753" data-name="Path 753" d="M1101.826,813.993a2.857,2.857,0,0,0-1.744-1.622,4.43,4.43,0,0,0-3.07.544l-.252-.411a4.846,4.846,0,0,1,3.455-.6,3.322,3.322,0,0,1,2.044,1.876Z" transform="translate(-952.001 -760.05)" fill="#f5939c"/>
    <path id="Path_754" data-name="Path 754" d="M994.31,1003.78s1.8,1.765,1.422,3.1-1.072.687-1.106,1.9-2.489,1.2-2.489,1.2S991.387,1005,994.31,1003.78Z" transform="translate(-864.094 -921.243)" fill="#ef4b64"/>
    <path id="Path_755" data-name="Path 755" d="M959.326,1125.42,957.53,1141l5.411-2.173-2.568,8.86,5.56-1.391a66.207,66.207,0,0,1,2.174,14.626" transform="translate(-835.112 -1023.364)" fill="#68aee0"/>
    <path id="Path_756" data-name="Path 756" d="M966.414,1160.784a66.656,66.656,0,0,0-2.105-14.337l-5.736,1.433,2.547-8.787-5.329,2.142,1.842-15.985.481.054-1.749,15.183,5.494-2.209-2.585,8.933,5.382-1.346.063.226a67.658,67.658,0,0,1,2.184,14.687Z" transform="translate(-833.651 -1023.221)" fill="#c2def4"/>
    <path id="Path_757" data-name="Path 757" d="M1152.482,1157.579a90.736,90.736,0,0,1,.03-17.009l4.531-1.925-4.451-4.671,3.825-1.8c-2.148-3.463-6.137-9.32-6.137-9.32" transform="translate(-996.933 -1021.207)" fill="#68aee0"/>
    <path id="Path_758" data-name="Path 758" d="M1151.191,1156.914a91.782,91.782,0,0,1,.031-17.068l.014-.14,4.342-1.839-4.441-4.654,3.883-1.831c-2.152-3.443-5.95-9.025-5.99-9.082l.4-.271c.04.059,4.011,5.9,6.142,9.328l.143.231-3.768,1.776,4.461,4.682-4.721,2a91.438,91.438,0,0,0-.014,16.826Z" transform="translate(-995.884 -1020.518)" fill="#c2def4"/>
    <path id="Path_759" data-name="Path 759" d="M1436.242,1359.409l-.481-.037c.453-5.854-3.482-12.346-3.53-12.41l.411-.252C1432.691,1346.776,1436.707,1353.4,1436.242,1359.409Z" transform="translate(-1233.642 -1209.146)" fill="#c2def4"/>
    <path id="Path_760" data-name="Path 760" d="M1212.183,1643.58a5.588,5.588,0,0,1-4.281-1.813c-1.4-1.525-2.262-3.949-2.55-7.208a26.534,26.534,0,0,1-.013-4.429l.021-.208,13.122-.482.034.212a27.255,27.255,0,0,1,.247,4.525c-.1,3.339-.826,5.841-2.161,7.436a5.473,5.473,0,0,1-4.275,1.962Zm-6.382-13.193c-.095,1.263-.436,7.917,2.455,11.054a5.16,5.16,0,0,0,4.061,1.656,5,5,0,0,0,3.915-1.789c2.749-3.282,2.006-10.083,1.837-11.367Z" transform="translate(-1043.085 -1446.509)" fill="#c2def4"/>
    <path id="Path_761" data-name="Path 761" d="M1220.816,1642.875c-.512,0-1.048-.014-1.6-.047a33.41,33.41,0,0,1-3.851-.441l.088-.481c.067.013,6.685,1.234,10.229-.286l.191.443A12.933,12.933,0,0,1,1220.816,1642.875Z" transform="translate(-1051.571 -1456.735)" fill="#c2def4"/>
    <path id="Path_762" data-name="Path 762" d="M950.176,1624.115a6.949,6.949,0,0,1-.749-.042,5.614,5.614,0,0,1-4.159-2.36c-1.2-1.691-1.741-4.205-1.6-7.476a26.438,26.438,0,0,1,.55-4.393l.048-.2.209.019,12.867,1.176v.214a27.461,27.461,0,0,1-.33,4.522c-.523,3.3-1.563,5.687-3.09,7.1A5.337,5.337,0,0,1,950.176,1624.115Zm-5.544-13.96c-.254,1.24-1.444,7.8,1.029,11.277a5.149,5.149,0,0,0,3.817,2.158,4.952,4.952,0,0,0,4.111-1.284c3.143-2.9,3.273-9.744,3.269-11.039Z" transform="translate(-823.452 -1429.887)" fill="#c2def4"/>
    <path id="Path_763" data-name="Path 763" d="M962.851,1623.645a22.4,22.4,0,0,1-4.024-.421,33.186,33.186,0,0,1-3.756-.927l.147-.458c.064.021,6.475,2.075,10.183,1.019l.133.462A9.848,9.848,0,0,1,962.851,1623.645Z" transform="translate(-833.047 -1440.129)" fill="#c2def4"/>
    <path id="Path_764" data-name="Path 764" d="M1269.46,1370.426a47.555,47.555,0,0,1-6.37-19.536s9.891,16.2,20.379,15.475c0,0,10.541-1.283,14.951-4.583l.347,1.05S1287.86,1371.063,1269.46,1370.426Z" transform="translate(-1091.642 -1212.655)" fill="#4189c8"/>
    <path id="Path_765" data-name="Path 765" d="M1260.673,1340.041c-5.926-9.929-7.786-25.28-7.8-25.434l.482-.056c.017.16,1.864,15.4,7.739,25.244Z" transform="translate(-1083.062 -1182.146)" fill="#c2def4"/>
    <path id="Path_766" data-name="Path 766" d="M998.832,1319.154l2.728-14.361a2.211,2.211,0,0,1,2.538-1.765l18.75,3.169a2.21,2.21,0,0,1,1.8,2.582l-5.969,32.077a2.209,2.209,0,0,1-2.428,1.791l-18.905-2.216a2.209,2.209,0,0,1-1.916-2.59Z" transform="translate(-866.904 -1172.447)" fill="#ef4b64"/>
    <path id="Path_767" data-name="Path 767" d="M820.5,831.13l-6,31.5,19.279,2.259,5.573-30.789Z" transform="translate(-683.805 -697.725)" fill="#fff"/>
    <path id="Path_768" data-name="Path 768" d="M1068.647,1345.333a.214.214,0,0,1-.052,0l-15.76-2.53a.321.321,0,0,1,.1-.634l15.76,2.53a.322.322,0,1,1-.05.642Z" transform="translate(-914.898 -1205.33)" fill="#3f3092"/>
    <path id="Path_769" data-name="Path 769" d="M1065.006,1363.091a.275.275,0,0,1-.051,0l-15.76-2.53a.325.325,0,0,1,.1-.642l15.76,2.531a.322.322,0,1,1-.05.642Z" transform="translate(-911.838 -1220.232)" fill="#3f3092"/>
    <path id="Path_770" data-name="Path 770" d="M1061.381,1380.866h-.051l-15.762-2.535a.325.325,0,0,1,.1-.642l15.76,2.53a.322.322,0,0,1-.051.642Z" transform="translate(-908.794 -1235.15)" fill="#3f3092"/>
    <path id="Path_771" data-name="Path 771" d="M1057.8,1398.733a.3.3,0,0,1-.052,0l-15.76-2.531a.321.321,0,1,1,.1-.634l15.76,2.531a.322.322,0,1,1-.049.642Z" transform="translate(-905.788 -1250.161)" fill="#3f3092"/>
    <path id="Path_772" data-name="Path 772" d="M1054.16,1416.491h-.051l-15.76-2.53a.325.325,0,0,1,.1-.642l15.76,2.531a.322.322,0,1,1-.051.642Z" transform="translate(-902.733 -1265.063)" fill="#3f3092"/>
    <path id="Path_773" data-name="Path 773" d="M1050.45,1434.311a.278.278,0,0,1-.051,0l-15.76-2.532a.321.321,0,1,1,.1-.632l15.76,2.53a.322.322,0,1,1-.05.642Z" transform="translate(-899.602 -1280.027)" fill="#3f3092"/>
    <path id="Path_774" data-name="Path 774" d="M1046.926,1452.083a.275.275,0,0,1-.051,0l-15.76-2.532a.325.325,0,0,1,.1-.642l15.761,2.532a.322.322,0,0,1-.05.642Z" transform="translate(-896.659 -1294.943)" fill="#3f3092"/>
    <path id="Path_775" data-name="Path 775" d="M944.63,1376.967a48.115,48.115,0,0,0,8.156-1.284c3.379-.963,3.691,1.061,1.393,2.283s-1.508,3.37,2.291,2.664,8.162-1.789,9.185-.089c.586.976-1.579,1.417-1.579,1.417s2.567-.043,2.086,1.691c-.125.457-2.006.594-2.006.594a1.633,1.633,0,0,1,1.81,1.529c.056.884-2.269.79-2.269.79s1.224.976.03,1.723-11.614,3.808-22.907-.444Z" transform="translate(-821.083 -1233.258)" fill="#f8afac"/>
    <path id="Path_776" data-name="Path 776" d="M1022.776,1416.445a19.331,19.331,0,0,1-2.6-.161l.043-.321a31.411,31.411,0,0,0,10.43-.873l.083.31A34.978,34.978,0,0,1,1022.776,1416.445Z" transform="translate(-887.709 -1266.554)" fill="#f37f85"/>
    <path id="Path_777" data-name="Path 777" d="M1027.745,1430.341c-.913,0-1.878-.036-2.875-.124l.027-.321a34.18,34.18,0,0,0,9.788-.576l.076.311A33.529,33.529,0,0,1,1027.745,1430.341Z" transform="translate(-891.647 -1278.501)" fill="#f37f85"/>
    <path id="Path_778" data-name="Path 778" d="M1025.685,1445.074a22.423,22.423,0,0,1-2.715-.16l.04-.321a25.235,25.235,0,0,0,9.613-.8l.1.3A25.7,25.7,0,0,1,1025.685,1445.074Z" transform="translate(-890.052 -1290.648)" fill="#f37f85"/>
    <path id="Path_779" data-name="Path 779" d="M901.863,1310.6c.51-.22,4.562,1.427,3.915,3.638s.043,3.188,1.6,3.763,1.229,3,1.229,3l-5.937-1.662-4.305-1.823,1.621-2.349Z" transform="translate(-785.445 -1178.811)" fill="#4189c8"/>
    <path id="Path_780" data-name="Path 780" d="M897.721,1304.4l-.321-.363c2.388-2.086,3.691-9.223,3.7-9.294l.482.085C901.527,1295.125,900.236,1302.206,897.721,1304.4Z" transform="translate(-784.631 -1165.515)" fill="#c2def4"/>
    <path id="Path_781" data-name="Path 781" d="M875.08,1343.22a52.6,52.6,0,0,0,15.475,5.483l-1.956,16.688-6.258.453" transform="translate(-765.892 -1206.216)" fill="#68aee0"/>
    <path id="Path_782" data-name="Path 782" d="M881.731,1365l-.035-.481,6.069-.435,1.908-16.268a53.3,53.3,0,0,1-15.332-5.471l.244-.415a52.761,52.761,0,0,0,15.4,5.455l.221.042-2.006,17.108Z" transform="translate(-765.271 -1205.133)" fill="#c2def4"/>
    <path id="Path_783" data-name="Path 783" d="M938.964,1383.86s-1.106,6.3-.148,11.049" transform="translate(-819.073 -1240.335)" fill="#68aee0"/>
    <path id="Path_784" data-name="Path 784" d="M937.343,1394.719c-.955-4.737.137-11.072.148-11.139l.481.083c-.011.063-1.086,6.314-.149,10.959Z" transform="translate(-817.835 -1240.1)" fill="#c2def4"/>
    <path id="Path_785" data-name="Path 785" d="M1428.006,1052.837c-2.826-9.788-10.615-8.291-15.149-6.439a9,9,0,0,1-6.8,0c-4.535-1.852-12.322-3.344-15.149,6.439-2.813,9.737,7.033,18.281,13.445,22.663a9.051,9.051,0,0,0,10.208,0C1420.973,1071.118,1430.819,1062.573,1428.006,1052.837Z" transform="translate(-1198.536 -955.882)" fill="#ef4b64"/>
    <path id="Path_786" data-name="Path 786" d="M1482.531,1100.87v4.268h4.085v2.183h-4.085v4.309h-2.266v-4.309h-4.085v-2.183h4.085v-4.268Z" transform="translate(-1270.539 -1002.754)" fill="#fff"/>
    <path id="Path_787" data-name="Path 787" d="M1480.494,1109.594h-3.228v-4.308h-4.086v-3.147h4.086v-4.268h3.228v4.268h4.085v3.147h-4.085Zm-2.266-.963h1.3v-4.308h4.085V1103.1h-4.085v-4.268h-1.3v4.268h-4.085v1.221h4.085Z" transform="translate(-1268.021 -1000.235)" fill="#fff"/>
    <rect id="Rectangle_172" data-name="Rectangle 172" width="244.103" height="121.673" transform="translate(68.337 193.029)" fill="#f3fafe"/>
    <ellipse id="Ellipse_121" data-name="Ellipse 121" cx="14.817" cy="4.406" rx="14.817" ry="4.406" transform="translate(381.588 287.645)" fill="#aaceed"/>
    <ellipse id="Ellipse_122" data-name="Ellipse 122" cx="13.577" cy="4.037" rx="13.577" ry="4.037" transform="translate(31.338 279.651)" fill="#aaceed"/>
    <path id="Path_788" data-name="Path 788" d="M2541.093,2043.33H2525l7.017,40.9a.336.336,0,0,0-.069.194c0,.891,4.073,1.6,9.1,1.6s9.1-.722,9.1-1.6l7.049-41.1Z" transform="translate(-2151.066 -1793.987)" fill="#f3fafe"/>
    <ellipse id="Ellipse_123" data-name="Ellipse 123" cx="16.097" cy="2.999" rx="16.097" ry="2.999" transform="translate(373.929 246.346)" fill="#aaceed"/>
    <path id="Path_789" data-name="Path 789" d="M2518.238,1684.793c-4.493,4.048-.225-6.072,1.386-11.072s.187-9.628-4.535-4.042-4.947,1.841-5.172-3.06-1.574-32.653-6.391-30.406-1.03,38.9-2.155,44.751-2.924-4.724-3.37-10.57-1.123-32.607-6.74-28.883,3.823,39.9.9,42.825-4.722-12.143-10.568-10.616c-4.618,1.207,3.837,18.934,7.595,26.343,2.662-.972,8.087-1.638,14.348-1.638a54.194,54.194,0,0,1,13.62,1.4,26.337,26.337,0,0,1,4.688-8.742C2526.1,1686.143,2522.73,1680.745,2518.238,1684.793Z" transform="translate(-2113.495 -1452.088)" fill="#9ac0dd"/>
    <path id="Path_790" data-name="Path 790" d="M2535.87,2026.279c1,1.97,1.668,3.209,1.668,3.209a70.31,70.31,0,0,0,25.352,0h0a29.429,29.429,0,0,1,.939-3.448,54.187,54.187,0,0,0-13.62-1.4C2543.957,2024.64,2538.532,2025.307,2535.87,2026.279Z" transform="translate(-2160.192 -1778.296)" fill="#9ac0dd"/>
    <path id="Path_791" data-name="Path 791" d="M675.592,1534.405H662.06l5.9,16.431a.3.3,0,0,0-.06.16c0,.748,3.426,1.354,7.649,1.354s7.649-.607,7.649-1.354l5.926-16.6Z" transform="translate(-587.053 -1366.72)" fill="#f3fafe"/>
    <ellipse id="Ellipse_124" data-name="Ellipse 124" cx="13.532" cy="2.521" rx="13.532" ry="2.521" transform="translate(75.007 165.166)" fill="#aaceed"/>
    <path id="Path_792" data-name="Path 792" d="M684.516,1430.494c-1.239-4.051-8.89,2.025-8.89,2.025s4.952-9.339,2.139-9.9-3.825,3.851-3.825,3.851c-2.476-3.129-4.389.09-4.389.09s-.112-12.15-5.738-10.35-3.488,15.751-3.488,15.751a2.95,2.95,0,0,0-3.487-2.025c-2.973,1.486-.4,4.249,1.693,5.954h0c.1.085.207.16.31.247l.011.01.289.223.013.01c.095.072.188.141.278.207h0a50.053,50.053,0,0,0,10.643.963,48.853,48.853,0,0,0,10.911-1.029l.3-.207h0c.1-.071.2-.145.3-.218h0c.1-.075.2-.161.3-.233h0l.3-.245h0a10.567,10.567,0,0,0,1.133-1.1h0A4.212,4.212,0,0,0,684.516,1430.494Z" transform="translate(-581.537 -1267.339)" fill="#9ac0dd"/>
    <rect id="Rectangle_173" data-name="Rectangle 173" width="257.175" height="6.885" transform="translate(61.8 186.145)" fill="#f3fafe"/>
    <rect id="Rectangle_174" data-name="Rectangle 174" width="244.103" height="2.619" transform="translate(68.337 193.029)" fill="#b6d8ef"/>
    <path id="Path_793" data-name="Path 793" d="M1274.745,1853.845h-14.762v-15.531a2.436,2.436,0,0,0-2.434-2.434h-7.718a2.436,2.436,0,0,0-2.434,2.434v15.531h-14.762a2.437,2.437,0,0,0-2.434,2.436v7.381a2.437,2.437,0,0,0,2.434,2.434H1247.4v15.695a2.438,2.438,0,0,0,2.434,2.436h7.718a2.438,2.438,0,0,0,2.434-2.436v-15.7h14.762a2.437,2.437,0,0,0,2.437-2.431v-7.381A2.437,2.437,0,0,0,1274.745,1853.845Z" transform="translate(-1064.03 -1619.824)" fill="#69afe1"/>
    <path id="Path_794" data-name="Path 794" d="M368.617,2047.311H355.78l5.6,32.632a.274.274,0,0,0-.055.161c0,.711,3.249,1.284,7.259,1.284s7.261-.576,7.261-1.284l5.624-32.788Z" transform="translate(-329.919 -1797.328)" fill="#f3fafe"/>
    <ellipse id="Ellipse_125" data-name="Ellipse 125" cx="12.843" cy="2.394" rx="12.843" ry="2.394" transform="translate(25.853 247.588)" fill="#aaceed"/>
    <path id="Path_795" data-name="Path 795" d="M450.187,1875.194s-3.869-13.758-1.183-13,3.44,2.258,3.225-2.688-1.72-13.113,1.72-11.93,2.686,3.333,5.7.86,7.632-4.729,8.6-1.721-4.406,3.763-5.159,5.8.86.86,2.043,3.548-2.365,2.535-4.191,4.172-1.075,1.85-.321,3.678-1.935,7.309-4.838,9.135A14.878,14.878,0,0,1,450.187,1875.194Z" transform="translate(-407.387 -1627.713)" fill="#9ac0dd"/>
    <path id="Path_796" data-name="Path 796" d="M442.2,1892.044l-.178-.266.09.133-.092-.131c.289-.22,7.025-8,7.455-11.982.109-1.006.128-2.007.146-2.975.055-2.87.111-5.839,2.458-9.56a25.946,25.946,0,0,1,8.665-7.9l.151.282a25.7,25.7,0,0,0-8.538,7.791c-2.3,3.646-2.354,6.569-2.407,9.4-.018.974-.037,1.982-.148,3C449.353,1883.909,442.5,1891.846,442.2,1892.044Z" transform="translate(-402.321 -1639.537)" fill="#fffaf8"/>
    <path id="Path_797" data-name="Path 797" d="M314.45,1858.766c0-.21,2.728-17.169-.525-16.229s-6.805,3.56-5.757-1.361.838-7.643-1.467-6.909-2.513-2.6-1.78-4.653-1.046-4.145-3.873-3.726-2.3,7.541-1.571,10.469.629,3.141-1.569,4.711-.21,3.141,1.988,4.814,6.178,3.246,4.4,4.188-4.607,2.407-1.152,4.711S314.45,1858.766,314.45,1858.766Z" transform="translate(-280.53 -1611.39)" fill="#9ac0dd"/>
    <path id="Path_798" data-name="Path 798" d="M340.583,1883.579c-.469-3.594-1.266-4.605-3.631-7.6-1.152-1.462-2.728-3.464-4.822-6.473-6.316-9.083-6.389-19.982-6.389-20.091h.321c0,.108.075,10.911,6.332,19.908,2.086,3,3.662,5,4.814,6.457,2.407,3.049,3.217,4.079,3.691,7.761Z" transform="translate(-304.699 -1631.183)" fill="#fffaf8"/>
    <path id="Path_799" data-name="Path 799" d="M384.752,1801.818s-10.109-18.826-6.17-19.146,3.557-.745,2.63-3.723-3.753-9.146,0-9.042,3.751-2.022,3.965-4.042,1.808-7.658,6.7-6.808.106,7.863,0,9.467-.177,2.553,2.2,2.128,2.7,1.489,1.738,3.617-6.808,7.551-6.383,9.359,1.6.745,3.511,1.172,2.022,2.446.425,4.361S385.283,1798.2,384.752,1801.818Z" transform="translate(-348.297 -1555.255)" fill="#aaceed"/>
    <path id="Path_800" data-name="Path 800" d="M420.893,1828.592c-3.062-5.037-2.867-10.468-2.442-22.37q.043-1.223.09-2.538c.461-13.375,5.329-19.781,5.379-19.844l.254.2c-.05.063-4.854,6.4-5.311,19.66q-.045,1.316-.09,2.539c-.422,11.835-.616,17.237,2.4,22.192Z" transform="translate(-382.333 -1576.134)" fill="#fffaf8"/>
    <rect id="Rectangle_175" data-name="Rectangle 175" width="49.11" height="54.099" rx="22.99" transform="translate(247.78 29.284)" fill="#69afe1"/>
    <path id="Path_801" data-name="Path 801" d="M1835.554,785.678h-.963V754.191a4.315,4.315,0,0,0-4.308-4.308h-19.018a4.313,4.313,0,0,0-4.3,4.308v31.487H1806V754.191a5.277,5.277,0,0,1,5.271-5.271h19.018a5.277,5.277,0,0,1,5.271,5.271Z" transform="translate(-1547.437 -707.277)" fill="#e7f3fc"/>
    <path id="Path_802" data-name="Path 802" d="M1633.117,280.68h20.576a1.5,1.5,0,0,1,1.505,1.505v31.81H1631.61v-31.81a1.505,1.505,0,0,1,1.507-1.505Z" transform="translate(-1369.802 -235.6)" fill="#b6d8ef"/>
    <rect id="Rectangle_176" data-name="Rectangle 176" width="16.969" height="11.12" rx="4.49" transform="translate(265.559 57.524)" fill="#f3fafe"/>
    <rect id="Rectangle_177" data-name="Rectangle 177" width="13.761" height="0.642" transform="translate(264.693 48.713)" fill="#f3fafe"/>
    <rect id="Rectangle_178" data-name="Rectangle 178" width="18.249" height="0.321" transform="translate(264.693 51.54)" fill="#f3fafe"/>
    <rect id="Rectangle_179" data-name="Rectangle 179" width="18.249" height="0.321" transform="translate(264.693 53.881)" fill="#f3fafe"/>
    <rect id="Rectangle_180" data-name="Rectangle 180" width="23.586" height="7.984" transform="translate(261.813 70.41)" fill="#f3fafe"/>
    <rect id="Rectangle_181" data-name="Rectangle 181" width="18.249" height="0.16" transform="translate(264.693 72.491)" fill="#69afe1"/>
    <rect id="Rectangle_182" data-name="Rectangle 182" width="18.249" height="0.16" transform="translate(264.693 73.492)" fill="#69afe1"/>
    <rect id="Rectangle_183" data-name="Rectangle 183" width="11.55" height="2.553" rx="1.276" transform="translate(268.042 74.641)" fill="#69afe1"/>
    <path id="Path_803" data-name="Path 803" d="M1930,1009l8.5,5.191a.921.921,0,0,0,1.324-1.157l-1.765-4.034Z" transform="translate(-1651.54 -925.625)" fill="#69afe1"/>
    <path id="Path_804" data-name="Path 804" d="M1990.265,1691.093c-25.175-7.564-53.96.841-53.96.841l-.923,39.457-6.8,70.74,19.727.963,7.452-71.726a.485.485,0,1,1,.97,0l7.085,73.141h16.244c2.539-.012,6.82-54.649,7.281-59.08q1.123-10.816,2.233-21.635c.249-2.4.567-4.787.817-7.181C1990.662,1714,1992.619,1691.8,1990.265,1691.093Z" transform="translate(-1650.348 -1495.619)" fill="#69afe1"/>
    <path id="Path_805" data-name="Path 805" d="M2236.92,1036.045a13.486,13.486,0,0,1-10.146,14.409S2224.33,1035.806,2236.92,1036.045Z" transform="translate(-1900.534 -948.328)" fill="#3f3092"/>
    <path id="Path_806" data-name="Path 806" d="M1985.633,1192.942s-14.143-1.361-21.216,12.226a13.375,13.375,0,0,1-4.029,5.056l5.794,9.2s-4.862,46.411-8.841,52.425,32.711,14.509,60.116,3.471l-6.186-44.266a128.926,128.926,0,0,0,14.191-6.725s1.457-22.444-25.626-30.969Z" transform="translate(-1674.243 -1080.02)" fill="#00b6a2"/>
    <path id="Path_807" data-name="Path 807" d="M2107.047,960.27s2.712-7.542.941-11.125c-1.674-3.379-6.068-5.21-9.422-6.279a16.252,16.252,0,0,0-14.671,2.7,14.237,14.237,0,0,0-3.942,4.974,32.871,32.871,0,0,0-1.735,21.474c1.284,3.819,3.949,7.725,8.2,8.153a8.129,8.129,0,0,1-1.754,4.157c-.392.393-.985.963-1.671,1.659a3.7,3.7,0,0,0,.084,5.276l.619.592a4.449,4.449,0,0,0,2.053,1.109h0l.043.008a4.709,4.709,0,0,0,.745.106,15.446,15.446,0,0,0,12.129-4.316,17.215,17.215,0,0,0,1.473-2.259,4.612,4.612,0,0,0,.549-2.46c-.16-2.646-.382-9.446,1.15-14.871a3.6,3.6,0,0,0,4.363-2.19C2107.7,963.827,2108.926,960.976,2107.047,960.27Z" transform="translate(-1775.025 -869.506)" fill="#f8afac"/>
    <path id="Path_808" data-name="Path 808" d="M2117.728,1029.481l-.634-.106c.061-.361-.105-.688-.633-1.666l-.115-.215a1.334,1.334,0,0,1-.191-1.091c.18-.481.717-.672,1.532-.972l.563-.212c1.412-.55,2.5-3.351,2.509-3.379l.6.229c-.048.127-1.2,3.1-2.877,3.747-.206.08-.4.151-.575.216-.578.214-1.078.4-1.152.6-.041.1.013.3.16.56l.116.213C2117.576,1028.421,2117.827,1028.884,2117.728,1029.481Z" transform="translate(-1807.779 -936.405)" fill="#f37f85"/>
    <ellipse id="Ellipse_126" data-name="Ellipse 126" cx="0.555" cy="0.913" rx="0.555" ry="0.913" transform="matrix(1, -0.014, 0.014, 1, 308.084, 84.533)" fill="#3f3092"/>
    <ellipse id="Ellipse_127" data-name="Ellipse 127" cx="0.555" cy="0.913" rx="0.555" ry="0.913" transform="matrix(1, -0.014, 0.014, 1, 316.25, 87.133)" fill="#3f3092"/>
    <path id="Path_809" data-name="Path 809" d="M2245.344,1068.958l-.393-.505c.438-.342.38-.517.09-1.135a4.341,4.341,0,0,1-.443-1.354c-.128-1.03.813-1.249,1.375-1.378.627-.144.678-.21.655-.345s-.068-.287-.17-.336a.714.714,0,0,0-.509.1l-.322-.552a1.313,1.313,0,0,1,1.106-.124.99.99,0,0,1,.533.8c.13.781-.642.963-1.144,1.077-.716.16-.931.281-.881.674a3.738,3.738,0,0,0,.386,1.159C2245.9,1067.628,2246.207,1068.287,2245.344,1068.958Z" transform="translate(-1915.647 -971.164)" fill="#f37f85"/>
    <path id="Path_810" data-name="Path 810" d="M2135.158,1138.587l-.027-.641c3.625-.153,6.378-1.456,8.183-3.869a9.085,9.085,0,0,0,1.648-3.617l.641.1a9.517,9.517,0,0,1-1.749,3.88C2142.524,1136.219,2139.939,1138.385,2135.158,1138.587Z" transform="translate(-1823.755 -1027.595)" fill="#f37f85"/>
    <path id="Path_811" data-name="Path 811" d="M2112.852,1129.837a3.614,3.614,0,0,0-.846-.8,2.309,2.309,0,0,0-2.111-.321l-.2-.61a3.349,3.349,0,0,1,3.69,1.377l-.528.364.263-.183Z" transform="translate(-1802.397 -1025.488)" fill="#f37f85"/>
    <path id="Path_812" data-name="Path 812" d="M2169.959,1010.991a.32.32,0,0,1-.3-.217,3.372,3.372,0,0,0-2.568-2.33,5.035,5.035,0,0,0-1.858-.056.321.321,0,0,1-.125-.63c.04-.008,3.94-.738,5.164,2.808a.321.321,0,0,1-.2.408A.344.344,0,0,1,2169.959,1010.991Z" transform="translate(-1848.703 -924.526)" fill="#3f3092"/>
    <path id="Path_813" data-name="Path 813" d="M2112.119,996.59a.321.321,0,0,1-.252-.122h0a5.029,5.029,0,0,0-1.444-1.172,3.379,3.379,0,0,0-3.473.084.321.321,0,1,1-.321-.555c3.241-1.884,5.719,1.216,5.743,1.247a.321.321,0,0,1-.254.518Z" transform="translate(-1799.683 -913.214)" fill="#3f3092"/>
    <path id="Path_814" data-name="Path 814" d="M2104.484,1098.27a6.341,6.341,0,0,1-2.71-.6,5.756,5.756,0,0,1-1.794-1.284l.481-.419a5.714,5.714,0,0,0,6.117,1.311l.2.61A7.434,7.434,0,0,1,2104.484,1098.27Z" transform="translate(-1794.245 -998.64)" fill="#f37f85"/>
    <path id="Path_815" data-name="Path 815" d="M2088.6,926.352c-.038.149.321-3.822.682-7.678a8.931,8.931,0,0,1,8.237-8.086c7.142-.523,17.65-.048,23.827,5.987,10.023,9.788-4.636,17.06-4.636,17.06s-2.973.321-4.061,2.259a11.107,11.107,0,0,1-2.295,2.933h-1.088l3.986-15.127-19.695-4.767A14.758,14.758,0,0,0,2088.6,926.352Z" transform="translate(-1784.693 -842.871)" fill="#3f3092"/>
    <path id="Path_816" data-name="Path 816" d="M2213.387,1392.19s1.157,16.125-3.639,22.168-17.662,1.765-27.988-5.738l3.787-6.468s13.194,3.53,14.1,1.107a9.215,9.215,0,0,0,.288-4.892Z" transform="translate(-1862.903 -1247.328)" fill="#f8afac"/>
    <path id="Path_817" data-name="Path 817" d="M2113.026,1407.232s-7.152-3.909-10.43-8.463a13.183,13.183,0,0,1-2.7-6.739,1.391,1.391,0,0,1,1.272-1.484c.677-.055,1.388.133,1.431,1.134.085,1.94,4.265,5.973,5.31,4.255s-.608-3.135.331-3.808,1.909.6,1.985,1.866,6.224,4.289,6.449,6.454S2113.026,1407.232,2113.026,1407.232Z" transform="translate(-1794.168 -1245.941)" fill="#f8afac"/>
    <path id="Path_818" data-name="Path 818" d="M1850.573,1173.988a8.409,8.409,0,0,1-.8,2.5,5.234,5.234,0,0,0-.693,1.813l-9.178,1.167s-3.307-12.319-2.246-14.186,7.577-.854,7.577-.854Z" transform="translate(-1573.835 -1055.886)" fill="#f8afac"/>
    <path id="Path_819" data-name="Path 819" d="M1842.874,1109.667l-7.353.8a1.151,1.151,0,0,0-1,1.395l2.028,9.043,1.715,8.689a1.149,1.149,0,0,0,1.37.9l7.672-1.654a1.148,1.148,0,0,0,.875-1.393l-4.076-16.909A1.149,1.149,0,0,0,1842.874,1109.667Z" transform="translate(-1571.362 -1010.134)" fill="#f3fafe"/>
    <path id="Path_820" data-name="Path 820" d="M1874.457,1262.749s-5.948,7.511-7.658,2.814-4.91-13.233-4.91-13.233l-9.178,1.167s4.539,28.321,14.3,29.861,10.327-3.048,10.327-3.048l1.255-10.995Z" transform="translate(-1586.652 -1129.91)" fill="#f8afac"/>
    <path id="Path_821" data-name="Path 821" d="M1846.646,1114.1l-6.5.712a1.017,1.017,0,0,0-.883,1.234l1.794,8.48,1.683,8a1.016,1.016,0,0,0,1.212.8l6.786-1.463a1.017,1.017,0,0,0,.775-1.232l-3.766-15.759a1.016,1.016,0,0,0-1.1-.778Z" transform="translate(-1575.34 -1013.854)" fill="#3f3092"/>
    <path id="Path_822" data-name="Path 822" d="M1911.478,1161.327c-.135-3.691-1.006-5.069-1.956-3.423a4.811,4.811,0,0,0-.731,2.113l1.765,7.357A29.2,29.2,0,0,0,1911.478,1161.327Z" transform="translate(-1633.733 -1050.059)" fill="#f8afac"/>
    <path id="Path_823" data-name="Path 823" d="M1842.55,1167.53s2.775,1.228,2.728,2.246-1.926.587-2.294.374A4.169,4.169,0,0,1,1842.55,1167.53Z" transform="translate(-1578.038 -1058.717)" fill="#f8afac"/>
    <path id="Path_824" data-name="Path 824" d="M1872.709,1099.494s-.4-2.136.562-2.23,1.272,1.986,1.272,1.986Z" transform="translate(-1603.373 -999.723)" fill="#f8afac"/>
    <path id="Path_825" data-name="Path 825" d="M1837.384,1144.9s3.777.709,3.3,1.6-2.686,1.106-2.686,1.106l.221.99s-.5.671-.672.181S1836.473,1145.432,1837.384,1144.9Z" transform="translate(-1573.447 -1039.719)" fill="#f8afac"/>
    <path id="Path_826" data-name="Path 826" d="M1832.781,1126.273a.627.627,0,0,1,.732-.4c.929.213,2.839.735,2.738,1.362-.133.826-1.014.693-1.361.72s-1.161.963-1.161.963l-.146.591A3.5,3.5,0,0,1,1832.781,1126.273Z" transform="translate(-1569.79 -1023.732)" fill="#f8afac"/>
    <path id="Path_827" data-name="Path 827" d="M2242.53,1728.591a18.648,18.648,0,0,1,0,5.739" transform="translate(-1913.921 -1529.75)" fill="#68aee0"/>
    <path id="Path_828" data-name="Path 828" d="M2241.558,1734.2l-.467-.118a18.8,18.8,0,0,0,0-5.645l.482-.072A19.216,19.216,0,0,1,2241.558,1734.2Z" transform="translate(-1912.713 -1529.557)" fill="#c2def4"/>
    <path id="Path_829" data-name="Path 829" d="M2216.323,1783.42s-2.224,13.6,5.042,17.89" transform="translate(-1891.65 -1575.781)" fill="#68aee0"/>
    <path id="Path_830" data-name="Path 830" d="M2219.97,1801.315c-3.041-1.8-4.9-5.51-5.364-10.739a33.323,33.323,0,0,1,.207-7.4l.482.077c-.023.135-2.114,13.479,4.927,17.651Z" transform="translate(-1890.381 -1575.58)" fill="#c2def4"/>
    <path id="Path_831" data-name="Path 831" d="M2089.841,1766.44s-.3,23.4,1.792,23.644h2.7l-.13-23.253Z" transform="translate(-1785.72 -1561.526)" fill="#68aee0"/>
    <path id="Path_832" data-name="Path 832" d="M2093.312,1788.948h-2.967c-.448-.053-.963-.571-1.374-4.011-.236-1.979-.411-4.716-.52-8.137-.185-5.818-.113-11.682-.111-11.739v-.26l4.835.435Zm-2.919-.481h2.434l-.127-22.786-3.881-.35c-.011,1.2-.048,6.348.114,11.46C2089.276,1787.6,2090.187,1788.42,2090.393,1788.467Z" transform="translate(-1784.46 -1560.149)" fill="#c2def4"/>
    <path id="Path_833" data-name="Path 833" d="M1998.45,1723.1s-1.765,2.349-.894,4.307" transform="translate(-1708.053 -1525.141)" fill="#68aee0"/>
    <path id="Path_834" data-name="Path 834" d="M1996.052,1726.741c-.926-2.063.846-4.45.921-4.551l.384.291c-.016.022-1.674,2.261-.865,4.064Z" transform="translate(-1706.769 -1524.377)" fill="#c2def4"/>
    <circle id="Ellipse_128" data-name="Ellipse 128" cx="0.878" cy="0.878" r="0.878" transform="translate(305.103 201.254)" fill="#68aee0"/>
    <path id="Path_835" data-name="Path 835" d="M2095.634,1744.317a1.123,1.123,0,1,1,1.124-1.123A1.123,1.123,0,0,1,2095.634,1744.317Zm0-1.755a.642.642,0,1,0,.642.642A.642.642,0,0,0,2095.634,1742.561Z" transform="translate(-1789.653 -1541.066)" fill="#c2def4"/>
    <path id="Path_836" data-name="Path 836" d="M2295.8,1463.02a6.152,6.152,0,0,0-3.232-3.134l.21-.606a6.728,6.728,0,0,1,3.607,3.475Z" transform="translate(-1955.932 -1303.653)" fill="#f37f85"/>
    <path id="Path_837" data-name="Path 837" d="M2265.891,1261.322h-.321A11.927,11.927,0,0,1,2271,1251.5l.161.279A11.55,11.55,0,0,0,2265.891,1261.322Z" transform="translate(-1933.265 -1129.214)" fill="#77cbc2"/>
    <path id="Path_838" data-name="Path 838" d="M2013.321,1237.543l-.321-.064a32.678,32.678,0,0,1,6.032-13.6,21.25,21.25,0,0,1,4.155-4.2l.183.265C2023.3,1220,2015.789,1225.272,2013.321,1237.543Z" transform="translate(-1721.222 -1102.499)" fill="#77cbc2"/>
    <path id="Path_839" data-name="Path 839" d="M2091.007,877.676s-4.989-12.763,3.718-12.736,5.282,8.935,9.769,9.177S2091.007,877.676,2091.007,877.676Z" transform="translate(-1785.517 -804.68)" fill="#3f3092"/>
    <path id="Path_840" data-name="Path 840" d="M2152.23,895.992s6.042-5.924,12.418-.688-6.357,5.212-6.357,5.212Z" transform="translate(-1838.111 -828.358)" fill="#3f3092"/>
    <path id="Path_841" data-name="Path 841" d="M2087.54,2413.621s1.672,3.723-2.351,6.3-13.625,6.89-10.2,10.505a10.948,10.948,0,0,0,10.672,2.9c3.174-.73,7.776-3.782,9.565-5.134a21.862,21.862,0,0,0,5.669-6.205,3.327,3.327,0,0,0,.454-1.687v-6.68Z" transform="translate(-1772.655 -2104.86)" fill="#332f84"/>
    <path id="Path_842" data-name="Path 842" d="M1855.453,2400s-.923,3.906-3.909,4.654-11.009-.374-12.314,2.238.932,5.784,6.9,6.157,22.763.934,22.763.934a30.353,30.353,0,0,0,2.8-13.249Z" transform="translate(-1575.034 -2093.426)" fill="#332f84"/>
    <path id="Path_843" data-name="Path 843" d="M2107.653,888.711c-.063-.161-1.522-4.172-.291-6.3a2.513,2.513,0,0,1,1.847-1.236c1.085-.185,1.818-.016,2.179.5.745,1.064-.451,3.195-.5,3.285l-.278-.161c.012-.021,1.146-2.043.518-2.941-.284-.4-.91-.526-1.862-.366a2.2,2.2,0,0,0-1.624,1.08c-1.157,2,.3,5.993.321,6.033Z" transform="translate(-1800.029 -818.246)" fill="#6169b0"/>
    <path id="Path_844" data-name="Path 844" d="M2238.29,958.377l-.093-.308c.032-.01,3.153-1.014,4.75-6.287,1.578-5.218-7.425-8.1-7.516-8.126l.1-.306A20.054,20.054,0,0,1,2240,945.5c2.826,1.877,3.954,4.084,3.258,6.38C2241.6,957.326,2238.423,958.337,2238.29,958.377Z" transform="translate(-1907.961 -870.509)" fill="#6169b0"/>
    <path id="Path_845" data-name="Path 845" d="M2186.567,956.758c-2.132-2.888-11.219-2.866-11.317-2.867v-.321a39.007,39.007,0,0,1,4.919.347c3.476.481,5.716,1.375,6.658,2.651Z" transform="translate(-1857.438 -879.089)" fill="#6169b0"/>
    <path id="Path_846" data-name="Path 846" d="M2159.491,914.924l-.2-.25a9.6,9.6,0,0,1,8.8-1.34l-.111.3A9.273,9.273,0,0,0,2159.491,914.924Z" transform="translate(-1844.038 -844.841)" fill="#6169b0"/>
    <path id="Path_847" data-name="Path 847" d="M2265.165,1362.116l-.321-.019c.115-1.969-.811-4.824-2.676-8.254a47.778,47.778,0,0,0-2.9-4.653l.26-.19a48.381,48.381,0,0,1,2.92,4.69C2264.373,1357.222,2265.286,1360.058,2265.165,1362.116Z" transform="translate(-1927.976 -1211.068)" fill="#77cbc2"/>
    <path id="Path_848" data-name="Path 848" d="M2228.374,1375.529a9.216,9.216,0,0,0,.287-4.892l-1.017-4.8-2.342-4.989-1.205-1.688s-.706,1.083,0,3.53,1.765,8.325-1.219,8.432-4.528-.213-5.2.746-1.7,2.973-1.7,2.973C2219.576,1375.707,2227.673,1377.412,2228.374,1375.529Z" transform="translate(-1891.631 -1219.599)" fill="#009b85"/>
    <path id="Path_849" data-name="Path 849" d="M2265.165,1362.116l-.321-.019c.115-1.969-.811-4.824-2.676-8.254a47.778,47.778,0,0,0-2.9-4.653l.26-.19a48.381,48.381,0,0,1,2.92,4.69C2264.373,1357.222,2265.286,1360.058,2265.165,1362.116Z" transform="translate(-1927.976 -1211.068)" fill="#77cbc2"/>
    <path id="Path_850" data-name="Path 850" d="M1429.87,819.468h-17.33V804.882a5.639,5.639,0,0,1,5.632-5.632h6.07a5.64,5.64,0,0,1,5.632,5.632Zm-16.688-.642h16.046V804.882a5,5,0,0,0-4.99-4.99h-6.07a5,5,0,0,0-4.99,4.99Z" transform="translate(-1217.111 -749.531)" fill="#e7f3fc"/>
    <path id="Path_851" data-name="Path 851" d="M1434.753,787.584H1419.74V784.59h15.013Zm-14.371-.642h13.729v-1.711h-13.729Z" transform="translate(-1223.156 -737.224)" fill="#e7f3fc"/>
    <rect id="Rectangle_184" data-name="Rectangle 184" width="12.113" height="4.398" transform="translate(197.961 56.54)" fill="#69afe1"/>
    <path id="Path_852" data-name="Path 852" d="M1285.339,796.009H1268V776.532a5.639,5.639,0,0,1,5.632-5.632h6.082a5.637,5.637,0,0,1,5.631,5.632Zm-16.688-.642H1284.7V776.532a5,5,0,0,0-4.989-4.99h-6.072a5,5,0,0,0-4.995,4.99Z" transform="translate(-1095.764 -725.73)" fill="#e7f3fc"/>
    <path id="Path_853" data-name="Path 853" d="M1290.283,759.194H1275.27V756.2h15.013Zm-14.371-.642h13.729v-1.711h-13.729Z" transform="translate(-1101.868 -713.389)" fill="#e7f3fc"/>
    <rect id="Rectangle_185" data-name="Rectangle 185" width="12.113" height="10.534" transform="translate(174.778 51.983)" fill="#f3fafe"/>
    <path id="Path_854" data-name="Path 854" d="M794.07,660.609H776.74v-6.077a5.637,5.637,0,0,1,5.631-5.632h6.072a5.639,5.639,0,0,1,5.632,5.632Zm-16.688-.642h16.046v-5.435a5,5,0,0,0-4.99-4.99h-6.072a5,5,0,0,0-4.989,4.99Z" transform="translate(-683.331 -623.307)" fill="#e7f3fc"/>
    <path id="Path_855" data-name="Path 855" d="M798.953,637.274H783.94V634.28h15.013Zm-14.371-.642h13.729v-1.711H784.582Z" transform="translate(-689.376 -611.032)" fill="#e7f3fc"/>
    <path id="Path_856" data-name="Path 856" d="M761.75,1021.778H744.42v-14.586a5.64,5.64,0,0,1,5.632-5.632h6.07a5.638,5.638,0,0,1,5.632,5.632Zm-16.688-.642h16.046v-13.944a5,5,0,0,0-4.99-4.99h-6.07a5,5,0,0,0-4.99,4.99Z" transform="translate(-656.198 -919.379)" fill="#e7f3fc"/>
    <path id="Path_857" data-name="Path 857" d="M766.634,989.894H751.62V986.9h15.014Zm-14.372-.642h13.731v-1.711H752.262Z" transform="translate(-662.242 -907.071)" fill="#e7f3fc"/>
    <rect id="Rectangle_186" data-name="Rectangle 186" width="12.113" height="4.398" transform="translate(90.754 89.001)" fill="#69afe1"/>
    <path id="Path_858" data-name="Path 858" d="M1395.9,882.93l-3.639,28.259H1344.34l5.49-28.259Z" transform="translate(-1128.628 -741.213)" fill="#3f3092"/>
    <path id="Path_859" data-name="Path 859" d="M2203.02,538.169a24.229,24.229,0,1,1,24.229-24.229A24.256,24.256,0,0,1,2203.02,538.169Zm0-47.5a23.271,23.271,0,1,0,0-.008Z" transform="translate(-1860.409 -489.66)" fill="#e7f3fc"/>
    <path id="Path_860" data-name="Path 860" d="M2327.271,504.167a.481.481,0,0,1-.481-.481v-1.6a.482.482,0,0,1,.963,0v1.6A.482.482,0,0,1,2327.271,504.167Z" transform="translate(-1984.661 -499.642)" fill="#e7f3fc"/>
    <path id="Path_861" data-name="Path 861" d="M2327.271,767.418a.482.482,0,0,1-.481-.482v-1.6a.482.482,0,0,1,.963,0v1.6A.482.482,0,0,1,2327.271,767.418Z" transform="translate(-1984.661 -720.651)" fill="#e7f3fc"/>
    <path id="Path_862" data-name="Path 862" d="M2259.707,522.187a.48.48,0,0,1-.417-.241l-.8-1.386a.481.481,0,1,1,.833-.481l.8,1.386a.48.48,0,0,1-.415.722Z" transform="translate(-1927.255 -514.939)" fill="#e7f3fc"/>
    <path id="Path_863" data-name="Path 863" d="M2391.382,750.247a.482.482,0,0,1-.417-.241l-.8-1.386a.482.482,0,0,1,.834-.481l.8,1.386a.481.481,0,0,1-.417.722Z" transform="translate(-2037.811 -706.419)" fill="#e7f3fc"/>
    <path id="Path_864" data-name="Path 864" d="M2210.346,571.683a.481.481,0,0,1-.24-.064l-1.387-.8a.482.482,0,0,1,.482-.834l1.386.8a.481.481,0,0,1-.24.9Z" transform="translate(-1885.333 -556.998)" fill="#e7f3fc"/>
    <path id="Path_865" data-name="Path 865" d="M2438.236,703.256a.48.48,0,0,1-.24-.064l-1.387-.8a.481.481,0,1,1,.481-.833l1.386.8a.481.481,0,0,1-.241.9Z" transform="translate(-2076.642 -667.451)" fill="#e7f3fc"/>
    <path id="Path_866" data-name="Path 866" d="M2192.246,639.2h-1.6a.481.481,0,0,1,0-.963h1.6a.481.481,0,1,1,0,.963Z" transform="translate(-1869.955 -614.357)" fill="#e7f3fc"/>
    <path id="Path_867" data-name="Path 867" d="M2455.486,639.2h-1.6a.481.481,0,0,1,0-.963h1.6a.481.481,0,1,1,0,.963Z" transform="translate(-2090.955 -614.357)" fill="#e7f3fc"/>
    <path id="Path_868" data-name="Path 868" d="M2208.96,703.248a.481.481,0,0,1-.242-.9l1.386-.8a.481.481,0,1,1,.481.833l-1.387.8A.482.482,0,0,1,2208.96,703.248Z" transform="translate(-1885.332 -667.443)" fill="#e7f3fc"/>
    <path id="Path_869" data-name="Path 869" d="M2436.939,571.683a.481.481,0,0,1-.241-.9l1.386-.8a.482.482,0,0,1,.481.834l-1.387.8A.48.48,0,0,1,2436.939,571.683Z" transform="translate(-2076.73 -556.998)" fill="#e7f3fc"/>
    <path id="Path_870" data-name="Path 870" d="M2258.969,750.341a.467.467,0,0,1-.239-.064.482.482,0,0,1-.176-.658l.8-1.386a.481.481,0,0,1,.833.481l-.8,1.386A.48.48,0,0,1,2258.969,750.341Z" transform="translate(-1927.319 -706.513)" fill="#e7f3fc"/>
    <path id="Path_871" data-name="Path 871" d="M2390.591,522.277a.481.481,0,0,1-.417-.722l.8-1.386a.482.482,0,0,1,.835.481l-.8,1.386A.48.48,0,0,1,2390.591,522.277Z" transform="translate(-2037.82 -515.029)" fill="#e7f3fc"/>
    <path id="Path_872" data-name="Path 872" d="M2327.271,555.055a.482.482,0,0,1-.481-.482V539.622a.482.482,0,0,1,.963,0v14.952A.482.482,0,0,1,2327.271,555.055Z" transform="translate(-1984.661 -531.159)" fill="#e7f3fc"/>
    <path id="Path_873" data-name="Path 873" d="M2252.552,633.283h-14.281a.481.481,0,0,1,0-.963h14.281a.481.481,0,1,1,0,.963Z" transform="translate(-1909.942 -609.387)" fill="#e7f3fc"/>
    <rect id="Rectangle_187" data-name="Rectangle 187" width="81.549" height="0.963" transform="translate(348.206 267.346)" fill="#e7f3fc"/>
    <rect id="Rectangle_188" data-name="Rectangle 188" width="21.234" height="0.963" transform="translate(0 267.346)" fill="#e7f3fc"/>
  </g>
</svg>
