<svg xmlns="http://www.w3.org/2000/svg" width="339" height="225.693" viewBox="0 0 339 225.693">
  <g id="Graphic" transform="translate(0.007 -0.001)">
    <path id="Path_341" data-name="Path 341" d="M609.269,980.073c-24.84.931-46.414,15.106-71.058,16.833-15.476,1.081-30.93-3.253-44.967-9.854-8.6-4.048-17.065-9.2-22.453-17.033-10.649-15.483-6.28-37.166,3.717-53.079,18.652-29.684,48.119-56.932,77.872-75.1C571.07,830.423,600.006,814.433,623,820.7c26.471,7.218-15.936,36.342-6.843,50.978,3.358,5.4,10.631,6.517,16.981,6.922,43.025,2.744,98.71-.725,125.224,41.365,10.168,16.149,10.515,39.688-3.521,52.606-6.033,5.554-13.959,8.622-21.908,10.6C691.991,993.4,650.55,978.525,609.269,980.073Z" transform="translate(-443.448 -806.818)" fill="#cbe6f5"/>
    <path id="Path_342" data-name="Path 342" d="M391.292,931.358a87.14,87.14,0,0,1-10.127-.608,127.824,127.824,0,0,1-22.6-4.958c-11.8-3.614-20.665-7.69-27.909-12.825a55.563,55.563,0,0,1-11.3-10.559,43.194,43.194,0,0,1-7.424-13.461c-2.754-8.37-2.737-17.571.031-27.345a87.7,87.7,0,0,1,12.13-24.846,291.048,291.048,0,0,1,44.55-51.5A272.278,272.278,0,0,1,416.42,750.1c15-8.622,30.022-15.079,43.455-18.684,12.936-3.472,23.883-4.187,31.655-2.067,6.234,1.7,9.854,4.21,11.086,7.675,2.161,6.13-3.61,14.1-9.717,22.544-5.708,7.886-11.61,16.038-11.261,23.037.222,4.434,2.421,8.662,6.536,12.565,4.024,3.817,9.9,7.349,17.466,10.5,14.73,6.135,36.1,10.858,61.8,13.656,15.854,1.724,30.675,6.186,42.864,12.9,12.044,6.633,21.008,15.171,25.929,24.689,6.048,11.7,5.7,24.252-1.014,36.308-12.05,21.645-35.387,27.545-60.3,27.547-16.861,0-34.44-2.7-49.742-5.051-6.561-1.009-12.759-1.96-18.281-2.6a215.914,215.914,0,0,0-31.113-1.7l-.012-.411.012.411a124.684,124.684,0,0,0-20.49,2.146c-8.737,1.69-17.119,5.032-25.227,8.263-8.315,3.315-16.913,6.743-25.919,8.4A70.964,70.964,0,0,1,391.292,931.358Zm90.189-202.377a84.314,84.314,0,0,0-21.392,3.233c-13.364,3.587-28.329,10.019-43.258,18.6A271.471,271.471,0,0,0,369.2,785.861a290.312,290.312,0,0,0-44.425,51.353,86.932,86.932,0,0,0-12.017,24.611c-2.729,9.613-2.744,18.652-.042,26.864A42.309,42.309,0,0,0,320,901.894a54.843,54.843,0,0,0,11.136,10.4c7.167,5.083,15.96,9.122,27.674,12.711a126.987,126.987,0,0,0,22.457,4.927,76.516,76.516,0,0,0,22.718-.511c8.927-1.642,17.486-5.064,25.765-8.358,8.142-3.246,16.56-6.6,25.375-8.307a125.35,125.35,0,0,1,20.623-2.161,216.925,216.925,0,0,1,31.231,1.708c5.537.646,11.742,1.6,18.311,2.608,19.367,2.974,41.317,6.346,61.419,4.556,23.329-2.079,38.958-10.793,47.781-26.639,6.569-11.8,6.917-24.087,1-35.532-4.846-9.372-13.7-17.791-25.592-24.345-12.1-6.663-26.81-11.085-42.563-12.806-25.776-2.805-47.224-7.547-62.025-13.713-7.664-3.19-13.619-6.778-17.715-10.663-4.273-4.054-6.558-8.469-6.791-13.12-.364-7.288,5.625-15.56,11.415-23.56,5.981-8.262,11.633-16.066,9.611-21.79-1.125-3.192-4.566-5.532-10.519-7.155a37.733,37.733,0,0,0-9.831-1.165Z" transform="translate(-309.88 -728.16)" fill="#e7f3fc"/>
    <path id="Path_343" data-name="Path 343" d="M1907.738,1414.306c-12.657,1.369-19.885,10.364-25.294,20.385,0,0-12.124,36.9-12.124,45.326s14.2,4.058,14.2,4.058l-2.027,16.66-9.632,44.993,98.415-.9-15.123-62.03c8.92,2,10.145-2.112,10.145-2.112,3.2-6.39-9.892-49.726-18.63-57.917s-23.234-8.466-23.234-8.466S1912.982,1413.74,1907.738,1414.306Z" transform="translate(-1656.769 -1320.184)" fill="#69afe1"/>
    <path id="Path_344" data-name="Path 344" d="M2145.681,1380.225s1.136,4.281-1.164,7.182a1.884,1.884,0,0,0-.381,1.575l1.945,8.953a5.64,5.64,0,0,0,10.128,2.042l7.527-10.729a1.573,1.573,0,0,0-.116-1.964c-.739-.807-1.658-2.393-1.8-5.369C2161.707,1379.683,2145.681,1380.225,2145.681,1380.225Z" transform="translate(-1893.076 -1290.935)" fill="#f8afac"/>
    <path id="Path_345" data-name="Path 345" d="M2145.681,1380.226s1.136,4.281-1.164,7.182a1.884,1.884,0,0,0-.381,1.575l1.417,6.521c.2-3.03,3.306-6.831,8.111-7.607,5.073-.821,8.153-5.978,8.153-5.978s-.109-.174-.3-.472C2159.31,1379.764,2145.681,1380.226,2145.681,1380.226Z" transform="translate(-1893.076 -1290.935)" fill="#f26a66"/>
    <path id="Path_346" data-name="Path 346" d="M2079.813,1127.123s-3.121-.583-2.31,3.205,1.554,4.661,3.923,4.91c0,0,1.708,16.858,14.662,16.606s13.5-16.647,13.5-16.647,3.35-.274,3.85-5.235-2.88-2.44-2.88-2.44,2.289-17.208-13.891-17.655S2079.813,1127.123,2079.813,1127.123Z" transform="translate(-1835.481 -1057.62)" fill="#f8afac"/>
    <ellipse id="Ellipse_41" data-name="Ellipse 41" cx="1.276" cy="0.775" rx="1.276" ry="0.775" transform="matrix(0.014, -1, 1, 0.014, 265.769, 71.684)" fill="#3f3092"/>
    <path id="Path_347" data-name="Path 347" d="M2245.15,1200.564a.352.352,0,0,1-.183-.053,5.1,5.1,0,0,0-5.177-.074.342.342,0,1,1-.356-.584,5.786,5.786,0,0,1,5.9.081.342.342,0,0,1-.183.631Z" transform="translate(-1975.225 -1134.62)" fill="#ef4b64"/>
    <ellipse id="Ellipse_42" data-name="Ellipse 42" cx="1.276" cy="0.775" rx="1.276" ry="0.775" transform="matrix(0.014, -1, 1, 0.014, 252.156, 71.496)" fill="#3f3092"/>
    <path id="Path_348" data-name="Path 348" d="M2145.612,1199.129a.335.335,0,0,1-.183-.054,5.173,5.173,0,0,0-5.176-.074.342.342,0,1,1-.357-.583,5.784,5.784,0,0,1,5.9.08.342.342,0,0,1-.184.631Z" transform="translate(-1889.3 -1133.382)" fill="#ef4b64"/>
    <path id="Path_349" data-name="Path 349" d="M2206.5,1239.256c-1.418-1.381-1.293-6.489-1.286-6.706l.547.016c-.04,1.41.086,5.29,1.121,6.3Z" transform="translate(-1945.827 -1163.52)" fill="#f37f85"/>
    <path id="Path_350" data-name="Path 350" d="M2082.559,1250.173a1.361,1.361,0,0,1-1.03-.732,7.491,7.491,0,0,1-1.131-2.454,1.73,1.73,0,0,1,.181-1.389,1.059,1.059,0,0,1,.76-.442,1.172,1.172,0,0,1,.921.289,1.04,1.04,0,0,1,.313.88.433.433,0,0,1-.373.305.542.542,0,0,1-.243-.031,1.853,1.853,0,0,1-.6-.386.274.274,0,0,1,.363-.411,1.779,1.779,0,0,0,.281.214.577.577,0,0,0-.969-.1,1.227,1.227,0,0,0-.094.966,7.041,7.041,0,0,0,1.054,2.268c.211.326.41.49.584.481a.274.274,0,1,1,.023.547Z" transform="translate(-1838.044 -1174.393)" fill="#f37f85"/>
    <path id="Path_351" data-name="Path 351" d="M2319.806,1248.749h-.062a.275.275,0,1,1,.04-.548c.176.014.378-.137.6-.464a7.02,7.02,0,0,0,1.117-2.236,1.231,1.231,0,0,0-.066-.968.525.525,0,0,0-.369-.224.645.645,0,0,0-.5.137.687.687,0,0,0-.108.16,1.751,1.751,0,0,0,.287-.205.274.274,0,0,1,.352.42,1.845,1.845,0,0,1-.616.369.532.532,0,0,1-.242.025.433.433,0,0,1-.365-.315,1.05,1.05,0,0,1,.338-.872,1.186,1.186,0,0,1,.93-.264,1.065,1.065,0,0,1,.747.464,1.734,1.734,0,0,1,.138,1.395,7.505,7.505,0,0,1-1.2,2.421A1.365,1.365,0,0,1,2319.806,1248.749Z" transform="translate(-2044.466 -1173.189)" fill="#f37f85"/>
    <path id="Path_352" data-name="Path 352" d="M2092.959,1188.766s-1.029,3.884-2,4.8-.161,1.957-.273,2.522a1.573,1.573,0,0,1-.756.906l-2.159-2.673S2089.668,1188.067,2092.959,1188.766Z" transform="translate(-1844.458 -1125.681)" fill="#ef4b64"/>
    <path id="Path_353" data-name="Path 353" d="M2089.845,1233.322a.971.971,0,0,0,.383.947,8.277,8.277,0,0,1,2.636,4.379,6.083,6.083,0,0,1-.691,3.14s1.708,16.858,14.662,16.606,13.506-16.645,13.506-16.645c-.514-1.823.844-6.3,1.429-7.046s.446-1.117.446-1.117l-.906.487c-2.141,1.33-1.436,2.432-2.327,4.361s-5.451,4.025-8.52,2.19-2.927-1.552-8.074.031-8.451-1.412-8.855-3.422-2.972-3.558-2.972-3.558A.635.635,0,0,0,2089.845,1233.322Z" transform="translate(-1846.229 -1164.172)" fill="#fffaf8"/>
    <path id="Path_354" data-name="Path 354" d="M2114.111,1295.405c.847,3.061,4.156,12.914,11.834,13.76a.518.518,0,0,0,.571-.505l.336-14.893a.519.519,0,0,0-.746-.478c-1.794.876-6.486,2.773-11.359,1.477a.519.519,0,0,0-.635.639Z" transform="translate(-1867.179 -1215.901)" fill="#dfe4f3"/>
    <path id="Path_355" data-name="Path 355" d="M2296.4,1197.37a16.628,16.628,0,0,0,.659,3.617c.153.363.927.189,1.171.512.972,1.292,1.232,1.661,1.232,1.661l2.437-5.406Z" transform="translate(-2024.536 -1133.154)" fill="#ef4b64"/>
    <path id="Path_356" data-name="Path 356" d="M2235,1224.744h-.067a4.756,4.756,0,1,1,4.822-4.69h0A4.761,4.761,0,0,1,2235,1224.744Zm0-8.692a4.006,4.006,0,1,0,.056,0Zm4.347,4Z" transform="translate(-1967.434 -1148.573)" fill="#3f3092"/>
    <path id="Path_357" data-name="Path 357" d="M2133.1,1223.325h-.067a4.756,4.756,0,1,1,4.823-4.69h0A4.763,4.763,0,0,1,2133.1,1223.325Zm0-8.69a3.935,3.935,0,1,0-.053,7.869h.056a3.935,3.935,0,0,0,.053-7.869Zm4.348,3.995Z" transform="translate(-1879.48 -1147.347)" fill="#3f3092"/>
    <path id="Path_358" data-name="Path 358" d="M2197.66,1242.929a.418.418,0,0,1-.2-.053,5.1,5.1,0,0,0-4.842-.077.41.41,0,0,1-.411-.709,5.918,5.918,0,0,1,5.656.07.411.411,0,0,1-.2.769Z" transform="translate(-1934.447 -1171.162)" fill="#3f3092"/>
    <path id="Path_359" data-name="Path 359" d="M2294.1,1233.391a.411.411,0,0,1-.195-.773l4.4-2.354a.411.411,0,0,1,.387.724l-4.4,2.354A.415.415,0,0,1,2294.1,1233.391Z" transform="translate(-2022.194 -1161.504)" fill="#3f3092"/>
    <path id="Path_360" data-name="Path 360" d="M2093.654,1231.362a.415.415,0,0,1-.157-.031l-5.563-2.312a.411.411,0,1,1,.315-.758l5.563,2.31a.411.411,0,0,1-.157.79Z" transform="translate(-1844.381 -1159.79)" fill="#3f3092"/>
    <path id="Path_361" data-name="Path 361" d="M2069.513,1080.075s1.567-6.107,6.943-7.938a30.717,30.717,0,0,1,15.271-1.345c3.7.709,7.366,6.271,8.385,9.785.2.7.358.474.328,1.037,0,0,1.225-2.12,2.6-.821a12.4,12.4,0,0,0,1.815-7.937c-.434-4.861-4.444-12.625-5.9-14.332s-12.331-5.224-22.5-1.579-13.305,19.679-9.388,24.944l.448-.757a2.053,2.053,0,0,1,1.506-.99Z" transform="translate(-1825.181 -1010.573)" fill="#69afe1"/>
    <path id="Path_362" data-name="Path 362" d="M2286.676,1131.565l-.274-.026a2.353,2.353,0,0,0-.662-1.99,4.8,4.8,0,0,1-1.148-2.737c-.332-2.812-5.936-5.871-5.992-5.9l.13-.241a24.623,24.623,0,0,1,2.922,1.916c1.984,1.531,3.065,2.941,3.212,4.189a4.465,4.465,0,0,0,1.094,2.6A2.616,2.616,0,0,1,2286.676,1131.565Z" transform="translate(-2009.173 -1066.951)" fill="#f3fafe"/>
    <path id="Path_363" data-name="Path 363" d="M2096.054,1149.511l-.264-.072c.517-1.871,2.206-3.712,5.02-5.474a27.811,27.811,0,0,1,4.064-2.084l.1.255C2104.9,1142.17,2097.246,1145.2,2096.054,1149.511Z" transform="translate(-1851.381 -1085.258)" fill="#f3fafe"/>
    <path id="Path_364" data-name="Path 364" d="M2076.673,1165.013l-.263-.078a13.716,13.716,0,0,1,4.653-6.7l.156.224A13.409,13.409,0,0,0,2076.673,1165.013Z" transform="translate(-1834.654 -1099.379)" fill="#f3fafe"/>
    <path id="Path_365" data-name="Path 365" d="M2340.791,1591.86s-2.736,4.726-1.577,8.685,1.3,5.25-1.161,7.061-4.63,4.141-4.363,5.981l7.1,2.113,4.226-1.891.137-6.105Z" transform="translate(-2056.703 -1473.656)" fill="#4189c8"/>
    <path id="Path_366" data-name="Path 366" d="M2056.75,1635.76s3.31,2.413,3.2,4.634-1.728,3.926-.548,6.742,1.277,4.07,4.369,4.991a12.57,12.57,0,0,1,4.976,2.843l-15.3,2.478" transform="translate(-1814.828 -1511.548)" fill="#4189c8"/>
    <path id="Path_367" data-name="Path 367" d="M2315.62,1695.262l8.75-6.5a2.29,2.29,0,0,1,1.3-.937l12.653-3.481c.122-.033.313.41.332.477.156.6-.373,1.161-.773,1.522-1.712,1.544-4.043,2.132-6.043,3.186a.755.755,0,0,0-.3.234.273.273,0,0,0,.035.35.364.364,0,0,0,.226.048,8.426,8.426,0,0,0,2.368-.634c.861-.293,1.714-.6,2.574-.9,1.245-.43,2.846-1.195,4.2-1.069,1.745.164-1.528,3.256-5.346,4.165a6.607,6.607,0,0,0-1.811.635c-.149.086-.315.227-.274.4a.388.388,0,0,0,.168.211,1.187,1.187,0,0,0,.774.225c2.045-.137,4.055-1.935,6.216-1.466,1.124.243-.958,1.505-1.217,1.642a12.759,12.759,0,0,1-2.259.958c-.756.239-1.544.319-2.293.591-.06.021-.127.052-.136.114-.026.112.136.166.249.166,1.709,0,3.526-.46,5.219-.146a1.232,1.232,0,0,1,.617.256.36.36,0,0,1,.137.283c-.034.37-.863.576-1.136.694-.507.219-1.022.426-1.538.623a27.805,27.805,0,0,1-6.443,1.943,56.072,56.072,0,0,1-5.977.149c-2.552.037-5.656.072-8.211.108C2317.42,1699.095,2315.876,1695.259,2315.62,1695.262Z" transform="translate(-2041.126 -1553.477)" fill="#fffaf8"/>
    <path id="Path_368" data-name="Path 368" d="M2204.109,1807.58a19.937,19.937,0,0,1-4.533-.579l-47.176-10.127,3.833-7.021h.119l32.717-.423v.41l-32.6.421-3.442,6.331,46.646,10.01c.071.018,6.192,1.589,8.807-.621s1.1-9.911,1.074-9.99l.4-.081c.066.327,1.579,8.024-1.211,10.383A7.312,7.312,0,0,1,2204.109,1807.58Z" transform="translate(-1900.244 -1644.187)" fill="#c2def4"/>
    <rect id="Rectangle_86" data-name="Rectangle 86" width="0.411" height="17.503" transform="translate(282.711 114.064) rotate(-15.69)" fill="#c2def4"/>
    <path id="Path_369" data-name="Path 369" d="M1990.437,1790.115l-.267-.312a7.693,7.693,0,0,1,5.741-2.108l8.459-1.475.071.411-8.526,1.488h-.033A7.268,7.268,0,0,0,1990.437,1790.115Z" transform="translate(-1760.216 -1641.416)" fill="#c2def4"/>
    <rect id="Rectangle_87" data-name="Rectangle 87" width="7.334" height="0.411" transform="translate(240.899 129.365) rotate(-78.35)" fill="#c2def4"/>
    <path id="Path_370" data-name="Path 370" d="M2121.949,1500.587c-5.561-.907-7.868-4.868-8.824-8.032a19.768,19.768,0,0,1-.746-6.675l.411.037a19.364,19.364,0,0,0,.735,6.531c1.343,4.432,4.2,7.033,8.493,7.734Z" transform="translate(-1865.671 -1382.18)" fill="#c2def4"/>
    <rect id="Rectangle_88" data-name="Rectangle 88" width="4.233" height="0.411" transform="translate(238.416 145.787) rotate(-81.2)" fill="#c2def4"/>
    <path id="Path_371" data-name="Path 371" d="M2282.24,1867.52s3.5,5.31,8.965,6.089,11.47,1.029,14.018,6,9.991,9.032,9.991,9.032l-3.519-14.434Z" transform="translate(-2012.315 -1711.59)" fill="#4189c8"/>
    <path id="Path_372" data-name="Path 372" d="M1859.183,1033.4l-2.167-4.523-22.937,2.789-.049-.408,23.23-2.823,2.294,4.789Z" transform="translate(-1583.036 -887.681)" fill="#c2def4"/>
    <path id="Path_373" data-name="Path 373" d="M2106.608,2047.987l-.411-.026a5.276,5.276,0,0,0-1.628-4.388c-3.246-3.051-11.2-3.728-24.322-2.071-4.042.509-9.662.11-13.465-4.7a14.574,14.574,0,0,1-2.821-6.044l.4-.068a14.483,14.483,0,0,0,2.75,5.87c2.959,3.732,7.36,5.258,13.082,4.535,13.248-1.673,21.313-.958,24.655,2.18A5.668,5.668,0,0,1,2106.608,2047.987Z" transform="translate(-1823.908 -1852.429)" fill="#c2def4"/>
    <path id="Path_374" data-name="Path 374" d="M2496.722,2179.937h-.41c0-1.022-1.386-4.842-5.672-10.12a9.435,9.435,0,0,1-1.655-8.293,14.922,14.922,0,0,1,1.642-4.2l.349.216c-.043.069-4.176,6.9-.015,12.021a38.377,38.377,0,0,1,4.5,6.753A10.039,10.039,0,0,1,2496.722,2179.937Z" transform="translate(-2190.506 -1961.728)" fill="#c2def4"/>
    <path id="Path_375" data-name="Path 375" d="M1930.417,1912a14.9,14.9,0,0,1-4.271,11.359c-4.939,4.713-7.4,9.089-8.759,20.553s-9.717,19.623-9.717,19.623l9.093-49.663Z" transform="translate(-1689.007 -1749.982)" fill="#4189c8"/>
    <path id="Path_376" data-name="Path 376" d="M1878.4,1875.524c-3.583,0-5.917-1.095-6.787-3.209l.379-.156c2.163,5.255,13.47,1.89,13.583,1.855h.022l42.181-7.964.077.411-42.164,7.957a30.437,30.437,0,0,1-6.105,1.077C1879.17,1875.512,1878.78,1875.524,1878.4,1875.524Z" transform="translate(-1657.882 -1710.321)" fill="#c2def4"/>
    <path id="Path_377" data-name="Path 377" d="M2010.437,1690.047c-.364-.062-4-.486-4-.486l-9.648-14.321a3.139,3.139,0,0,0-2.366-1.335c-1.7-.182-10.675-.668-10.619,0s2.548,1.152,6.188,1.941,5.765,1.7,4.243,1.822-8.131.06-9.406.3-2.427,2-.242,2,8.374-.485,8.314,0-3.7.668-3.884.668-5.546,1.214-5.655,2.064.861.484,2.19.3,8.131-.728,7.767-.364-6.8,1.642-7.282,2.064,0,1.152,1.456,1.095,6.554-.668,6.554-.668,1.4,4.79,4.612,6.858,8.131,4.732,8.131,4.732Z" transform="translate(-1754.328 -1544.178)" fill="#fffaf8"/>
    <path id="Path_378" data-name="Path 378" d="M1227.91,1378.96h95.473a175.808,175.808,0,0,1-7.451-31.584c-1.943-15.792-9.394-30.473-9.394-30.473,19.921,11.633,13.445-22.732,13.445-22.732-.03-.144-.057-.273-.083-.41a124.064,124.064,0,0,0-6.183-20.347c-2.1-5.593-5.707-11.017-10.949-14.1-5.2-3.059-12.357-3.272-16.912-7.262-2.382-2.084-1.792-4.79-.356-7.319,2.6-4.585,2.68-11.47,2.317-18.351s-37.136-10.279-36.081,7.736c0,0,.4,8.9,4.819,13.4,1.406,1.433,2.645,3.442,1.871,5.489-.8,2.121-6.3,2.76-8.19,3.546a24.834,24.834,0,0,0-9.22,6.87c-3.58,4.19-5.778,9.36-7.723,14.459a73.51,73.51,0,0,0-3.754,16.286s-5.121,20.363,3.14,24.635c3.1,1.6,7.044,1.144,10.768-.056,0,0-6.071,12.691-7.043,18.583S1227.91,1378.96,1227.91,1378.96Z" transform="translate(-1102.277 -1153.417)" fill="#fcfdfb"/>
    <path id="Path_379" data-name="Path 379" d="M1411.336,1179.768s-3-.561-2.222,3.082,1.495,4.485,3.775,4.724c0,0,1.642,16.215,14.1,15.973s12.989-16.013,12.989-16.013,3.222-.273,3.7-5.035-2.77-2.347-2.77-2.347,2.2-16.551-13.361-16.97S1411.336,1179.768,1411.336,1179.768Z" transform="translate(-1258.57 -1103.639)" fill="#f8afac"/>
    <circle id="Ellipse_43" data-name="Ellipse 43" cx="2.889" cy="2.889" r="2.889" transform="translate(174.559 80.951)" fill="#f48c94"/>
    <circle id="Ellipse_44" data-name="Ellipse 44" cx="2.889" cy="2.889" r="2.889" transform="translate(157.31 80.711)" fill="#f48c94"/>
    <ellipse id="Ellipse_45" data-name="Ellipse 45" cx="1.226" cy="0.745" rx="1.226" ry="0.745" transform="matrix(0.014, -1, 1, 0.014, 173.382, 78.227)" fill="#3f3092"/>
    <path id="Path_380" data-name="Path 380" d="M1570.676,1250.623a.275.275,0,0,1-.146-.042,4.953,4.953,0,0,0-5.037-.073.274.274,0,0,1-.286-.467,5.5,5.5,0,0,1,5.611.077.274.274,0,0,1-.141.505Z" transform="translate(-1393.298 -1177.972)" fill="#3f3092"/>
    <ellipse id="Ellipse_46" data-name="Ellipse 46" cx="1.226" cy="0.745" rx="1.226" ry="0.745" transform="matrix(0.014, -1, 1, 0.014, 160.288, 78.044)" fill="#3f3092"/>
    <path id="Path_381" data-name="Path 381" d="M1475.12,1249.242a.275.275,0,0,1-.146-.042,4.954,4.954,0,0,0-5.039-.073.274.274,0,0,1-.285-.467,5.5,5.5,0,0,1,5.611.076.274.274,0,0,1-.146.505Z" transform="translate(-1310.83 -1176.781)" fill="#3f3092"/>
    <path id="Path_382" data-name="Path 382" d="M1534.077,1287.477c-1.323-1.291-1.2-6.15-1.2-6.357l.274.008c0,.049-.123,4.945,1.117,6.159Z" transform="translate(-1365.504 -1205.443)" fill="#f37f85"/>
    <path id="Path_383" data-name="Path 383" d="M1414.775,1298.759c-.316,0-.6-.212-.886-.646a7.118,7.118,0,0,1-1.069-2.317,1.527,1.527,0,0,1,.153-1.231.9.9,0,0,1,.642-.374,1.022,1.022,0,0,1,.787.248.887.887,0,0,1,.266.716.291.291,0,0,1-.256.2.356.356,0,0,1-.174-.025,1.641,1.641,0,0,1-.539-.346.137.137,0,1,1,.181-.205,1.42,1.42,0,0,0,.449.294.166.166,0,0,0,.047.011c.023,0,.029-.008.029-.008.043-.052-.082-.345-.183-.437a.743.743,0,0,0-.573-.179.624.624,0,0,0-.449.257,1.291,1.291,0,0,0-.109,1.026,6.866,6.866,0,0,0,1.032,2.225c.231.359.446.53.672.519a.137.137,0,1,1,.007.274Z" transform="translate(-1261.833 -1216.719)" fill="#f37f85"/>
    <path id="Path_384" data-name="Path 384" d="M1421,1281.85a.933.933,0,0,0,.367.911,7.959,7.959,0,0,1,2.537,4.215,5.821,5.821,0,0,1-.665,3.021s1.642,16.215,14.1,15.973,12.989-16.012,12.989-16.012c.569-2.665.81-6.063,1.368-6.776s.43-1.075.43-1.075l-.87.469c-2.053,1.28-1.382,2.339-2.239,4.2s-5.243,3.871-8.194,2.1-2.816-1.493-7.768.03-8.129-1.359-8.517-3.3-2.859-3.422-2.859-3.422A.614.614,0,0,0,1421,1281.85Z" transform="translate(-1268.917 -1206.062)" fill="#69afe1"/>
    <path id="Path_385" data-name="Path 385" d="M1444.329,1341.546c.822,2.945,4,12.421,11.382,13.235a.5.5,0,0,0,.547-.486l.323-14.325a.5.5,0,0,0-.718-.46c-1.725.843-6.237,2.667-10.925,1.421a.5.5,0,0,0-.609.614Z" transform="translate(-1289.062 -1255.798)" fill="#4189c8"/>
    <path id="Path_386" data-name="Path 386" d="M1642.976,1297.376h-.051a.137.137,0,0,1-.081-.24.136.136,0,0,1,.1-.033c.222.018.446-.148.684-.5a6.931,6.931,0,0,0,1.095-2.19,1.3,1.3,0,0,0-.08-1.029.626.626,0,0,0-.442-.274.746.746,0,0,0-.577.163c-.106.089-.237.379-.2.431a.055.055,0,0,0,.029.01.118.118,0,0,0,.048-.01,1.4,1.4,0,0,0,.456-.282.137.137,0,0,1,.176.211,1.636,1.636,0,0,1-.548.331.372.372,0,0,1-.174.021.293.293,0,0,1-.25-.212.89.89,0,0,1,.285-.708,1.026,1.026,0,0,1,.795-.226.894.894,0,0,1,.631.39,1.551,1.551,0,0,1,.119,1.242,7.1,7.1,0,0,1-1.134,2.287C1643.572,1297.172,1643.284,1297.376,1642.976,1297.376Z" transform="translate(-1460.384 -1215.548)" fill="#f37f85"/>
    <path id="Path_387" data-name="Path 387" d="M1411.12,1102.671s14.312-1.823,13.747,11.155l-.324,7.254s5.281.628,4.134-10.926c-.772-7.765-.676-11.2-2.6-13.305s-4.766-5.834-7.8-7.616-5.875-4.05-8.992-2.592a25.587,25.587,0,0,0-10.728,8.261c-3.4,4.7-7.288,12.958-7.45,17.006s3.359,9.58,6.352,9.21c0,0,.806-.786.665-3.02-.1-1.582-.978-4.1-.9-6.242.062-1.726-.215-3.861,1.621-5.13C1403.7,1103.355,1411.12,1102.671,1411.12,1102.671Z" transform="translate(-1243.133 -1037.177)" fill="#fcfdfb"/>
    <g id="Group_175" data-name="Group 175" transform="translate(152.258 68.099)">
      <path id="Path_388" data-name="Path 388" d="M1422.972,1229.25c-.921,2.366-.462,5.748.252,7.9.9,2.7,2.965,4.619,5.918,4.575h.016a17.171,17.171,0,0,0,7.461-1.709c1.369-.672,2.428-1.022,3.85-.231a22.489,22.489,0,0,0,2.992,1.7,7.015,7.015,0,0,0,4.275.2c3.157-.875,4.662-3.6,5.28-6.609.547-2.685.684-6.407-1.766-8.24a6.267,6.267,0,0,0-3.266-1.055,13.119,13.119,0,0,0-5.657.792c-1.753.656-3.382,1.676-5.338,1.409-1.481-.2-2.773-1.074-4.164-1.617-2.775-1.084-7.143-.9-9.155,1.642A4.852,4.852,0,0,0,1422.972,1229.25Z" transform="translate(-1422.457 -1225.741)" fill="#fffaf8"/>
    </g>
    <path id="Path_389" data-name="Path 389" d="M1444.233,1240.424a7.4,7.4,0,0,1-2.569-.461,10.012,10.012,0,0,1-2-1.095c-.334-.215-.677-.438-1.028-.632-1.24-.684-2.147-.471-3.6.24a17.5,17.5,0,0,1-7.576,1.737h-.018c-2.874.04-5.179-1.738-6.182-4.762-.777-2.343-1.155-5.748-.246-8.084h0a5.076,5.076,0,0,1,.738-1.314c2.024-2.557,6.491-2.885,9.468-1.723.472.185.935.41,1.382.621a9.3,9.3,0,0,0,2.722.981,7.482,7.482,0,0,0,4.014-.907c.386-.166.787-.337,1.189-.487a13.483,13.483,0,0,1,5.777-.81,6.422,6.422,0,0,1,3.406,1.11c2.729,2.042,2.344,6.212,1.871,8.516-.754,3.676-2.647,6.032-5.474,6.815A7.021,7.021,0,0,1,1444.233,1240.424Zm-7.062-3.148a3.491,3.491,0,0,1,1.73.485c.367.2.719.43,1.059.65a9.42,9.42,0,0,0,1.894,1.036,6.741,6.741,0,0,0,4.106.2c2.654-.735,4.364-2.888,5.084-6.4.447-2.176.821-6.105-1.661-7.967a5.931,5.931,0,0,0-3.125-1,12.912,12.912,0,0,0-5.538.776c-.391.146-.786.316-1.167.479a7.993,7.993,0,0,1-4.3.945,9.749,9.749,0,0,1-2.885-1.029c-.438-.211-.891-.428-1.343-.6-2.8-1.1-6.972-.809-8.84,1.552a4.552,4.552,0,0,0-.657,1.173h0c-.86,2.206-.491,5.463.256,7.713.924,2.787,3.037,4.427,5.654,4.388h.016a16.941,16.941,0,0,0,7.345-1.682,5.55,5.55,0,0,1,2.376-.7Z" transform="translate(-1268.498 -1155.868)" fill="#3f3092"/>
    <path id="Path_390" data-name="Path 390" d="M1520.384,1103.326l-2.155-.387,1.077.194-1.077-.193a32.778,32.778,0,0,0-1.789-15.465l2.053-.765A34.4,34.4,0,0,1,1520.384,1103.326Z" transform="translate(-1351.32 -1037.639)" fill="#69afe1"/>
    <path id="Path_391" data-name="Path 391" d="M1566.211,1463.337l-.341-2.162c10.059-1.585,12.882-5.585,12.908-5.625l1.831,1.2C1580.482,1456.947,1577.362,1461.581,1566.211,1463.337Z" transform="translate(-1393.985 -1356.001)" fill="#69afe1"/>
    <path id="Path_392" data-name="Path 392" d="M1435.484,1474.453c-9.545-.757-13.749-5.529-13.924-5.732l1.66-1.427-.83.715.821-.719c.038.044,3.855,4.3,12.44,4.98Z" transform="translate(-1269.424 -1366.134)" fill="#69afe1"/>
    <path id="Path_393" data-name="Path 393" d="M1651.264,1211s4.006,7.448,2.106,10.116-1.852,6.74-1.852,6.74l-1.8-1.8Z" transform="translate(-1466.359 -1144.919)" fill="#fcfdfb"/>
    <path id="Path_394" data-name="Path 394" d="M1755.311,1639.915c-.026-.058-2.676-5.821-3.754-7.819a15.079,15.079,0,0,1-1.232-5.537,2.068,2.068,0,0,1,.109-1.679c.242-.721.322-1.078,0-1.232a.928.928,0,0,1-.483-.571,3.277,3.277,0,0,1,.394-2.017l.363.193a2.816,2.816,0,0,0-.365,1.7.526.526,0,0,0,.274.328c.675.337.424,1.081.2,1.737-.174.516-.353,1.05-.129,1.369l.036.051v.061a15.431,15.431,0,0,0,1.19,5.415c1.084,2.009,3.741,7.783,3.766,7.842Z" transform="translate(-1552.822 -1498.86)" fill="#69afe1"/>
    <path id="Path_395" data-name="Path 395" d="M1737.966,1712.536l-.123-.166a66.028,66.028,0,0,0-12.623-12.266l.24-.334a66.766,66.766,0,0,1,12.591,12.2,5.089,5.089,0,0,1,2.9-.969l-.037.41a5.065,5.065,0,0,0-2.788,1.006Z" transform="translate(-1531.526 -1566.797)" fill="#69afe1"/>
    <path id="Path_396" data-name="Path 396" d="M1490.91,1656.309s3.579-1.273,4.455-3.977,2.784-5.25,3.9-7.716,1.432-3.182,5.171-4.534,4.693.079,3.5.637-3.977,1.114-4.056,2.545-.238,1.033,2.227,1.59,3.5,2.307,3.263,4.137-1.433.874-1.751-.319-2.545-1.505-3.58-1.432-.958,1.916-.079,2.228,4.211,2.706,3.739,5.169-2.068.238-2.387-1.035-2.387-2.068-3.023-1.988.557,2.226,1.505,3.182,2.306,3.818.716,3.1-2.625-1.989-3.421-1.989.318.7-1.273,2.1-6.047,3.227-6.047,3.227Z" transform="translate(-1329.284 -1514.791)" fill="#69afe1"/>
    <path id="Path_397" data-name="Path 397" d="M1611.89,1577.513a22.025,22.025,0,0,0-6.779-9.854c-3.321-2.516-5.885-2.837-5.31-1.422l.573,1.416s-1.391.909-.137,1.836a18.981,18.981,0,0,1,4.166,4.88,11.166,11.166,0,0,0,1.244,3.3c.327,2.327-1.193,2.1-1.8,1.346-.666-.833-2.464-1.351-2.779-.548s2.168,2.928,2.168,2.928a33.842,33.842,0,0,0,3.579,1.79c1.356.515,3.26,5.042,3.442,4.758s6.76-3.991,6.76-3.991S1612.84,1580.458,1611.89,1577.513Z" transform="translate(-1423.196 -1450.817)" fill="#69afe1"/>
    <path id="Path_398" data-name="Path 398" d="M1638.509,1598.63c-1.127-1-2.249-2.621-2.053-3.832.053-.324.123-.654.2-1a14.7,14.7,0,0,0,.411-3.3c-.026-1.734-2.874-6.569-3.728-7.792-.282-.4-.361-.723-.238-.958.186-.35.764-.344.787-.344v.137s-.517,0-.664.274c-.1.182-.019.456.23.811.9,1.28,3.727,6.078,3.753,7.868a14.151,14.151,0,0,1-.411,3.331c-.073.348-.137.685-.2,1-.193,1.157.9,2.737,2,3.7Z" transform="translate(-1451.962 -1464.627)" fill="#fffaf8"/>
    <path id="Path_399" data-name="Path 399" d="M1618.9,1579.6a7.675,7.675,0,0,0-1.124-1.972c-.151-.193-.365-.458-.617-.769a27.974,27.974,0,0,1-3.063-4.242.813.813,0,0,1,0-.821c.32-.441,1.217-.361,1.255-.359l-.012.137c-.009,0-.858-.075-1.131.3a.685.685,0,0,0,.015.684,28.121,28.121,0,0,0,3.042,4.211c.253.312.469.578.62.771a7.851,7.851,0,0,1,1.146,2.015Z" transform="translate(-1435.517 -1456.019)" fill="#fffaf8"/>
    <path id="Path_400" data-name="Path 400" d="M1609.869,1589.618c-.436-2.135-4.675-6.247-4.718-6.288a6.135,6.135,0,0,1-1.062-1.584l.124-.056a6.122,6.122,0,0,0,1.033,1.542c.175.168,4.311,4.182,4.756,6.359Z" transform="translate(-1426.974 -1464.878)" fill="#fffaf8"/>
    <path id="Path_401" data-name="Path 401" d="M1525.087,1507.622l-2.167-.318,1.579-10.787a55.942,55.942,0,0,0,.59-11.865,22.487,22.487,0,0,0-.56-3.992l2.106-.6c.067.236,1.626,5.885.03,16.775Z" transform="translate(-1356.913 -1377.156)" fill="#69afe1"/>
    <path id="Path_402" data-name="Path 402" d="M1502.894,1896.692l-2.19-.062c.009-.335.91-33.559-1.618-42.736-2.647-9.612,2.134-28.621,2.339-29.424l2.121.547c-.048.192-4.842,19.252-2.35,28.3,1.1,4.007,1.724,12.536,1.844,25.35C1503.13,1888.158,1502.9,1896.608,1502.894,1896.692Z" transform="translate(-1335.654 -1674.431)" fill="#69afe1"/>
    <path id="Path_403" data-name="Path 403" d="M1661.241,1505.812c-.214-1.046.723-1.585,2.422-2.566.35-.2.748-.431,1.176-.684a3.3,3.3,0,0,0,1.73-3.536l.4-.105a3.733,3.733,0,0,1-1.916,3.995c-.43.257-.829.489-1.181.691-1.693.977-2.375,1.4-2.225,2.128Z" transform="translate(-1476.277 -1393.435)" fill="#69afe1"/>
    <path id="Path_404" data-name="Path 404" d="M1748.162,2061.406l-.334-.239a54.308,54.308,0,0,0,5.443-10.58c.635-1.6.732-2.7.3-3.44-.673-1.162-2.706-1.456-5.279-1.827a36.607,36.607,0,0,1-7.17-1.575c-2.109-.747-3.1-1.441-3.115-2.19-.023-1.061,1.9-1.837,4.13-2.737a17.882,17.882,0,0,0,4.028-1.989c2.865-2.292.7-6.383.676-6.424l.361-.2a8.213,8.213,0,0,1,.8,2.5,4.527,4.527,0,0,1-1.578,4.441,18.093,18.093,0,0,1-4.129,2.053c-1.916.772-3.891,1.57-3.874,2.348.008.37.508.982,2.841,1.809a35.706,35.706,0,0,0,7.092,1.556c2.682.387,4.8.693,5.574,2.029.5.861.411,2.068-.274,3.8A54.927,54.927,0,0,1,1748.162,2061.406Z" transform="translate(-1542.565 -1852.014)" fill="#69afe1"/>
    <path id="Path_405" data-name="Path 405" d="M1295.619,1575.373l-.349-.216c1.527-2.45.657-5.778.022-8.212-.287-1.1.653-2.913,2.8-5.388a45.311,45.311,0,0,1,3.256-3.357l.274.3c-1.822,1.663-6.432,6.4-5.933,8.333C1296.345,1569.347,1297.24,1572.774,1295.619,1575.373Z" transform="translate(-1160.393 -1444.602)" fill="#69afe1"/>
    <path id="Path_406" data-name="Path 406" d="M1654.344,1707.63s-3.39,6.251.548,11.341,10.973,9.7,9.942,18.573,13.748,12.152,13.755,12.152a106.008,106.008,0,0,0-5.148-12.631h0c-13.485-12.374-17.208-26.356-17.208-26.356Z" transform="translate(-1469.179 -1573.582)" fill="#dfecf2"/>
    <path id="Path_407" data-name="Path 407" d="M1699.124,1758.972a9.106,9.106,0,0,1-3.749-.864,11.723,11.723,0,0,1-2.822-1.787,65.469,65.469,0,0,1-13.705-17.877,46.133,46.133,0,0,1-3.558-8.578l.4-.107a47.1,47.1,0,0,0,3.538,8.509,65.059,65.059,0,0,0,13.611,17.749,11.5,11.5,0,0,0,2.726,1.723,7.568,7.568,0,0,0,6.106.338c4.507-1.805,5.117-9.845,5.123-9.926l.41.029a21.324,21.324,0,0,1-.88,4.4c-.972,3.059-2.528,5.094-4.5,5.885A7.205,7.205,0,0,1,1699.124,1758.972Z" transform="translate(-1488.43 -1592.683)" fill="#69afe1"/>
    <path id="Path_408" data-name="Path 408" d="M1307.657,1805.4l-.357-.2a2.951,2.951,0,0,1,2.2-1.406,4.8,4.8,0,0,1,1.39-.025l-.064.411C1310.8,1804.173,1308.545,1803.835,1307.657,1805.4Z" transform="translate(-1170.802 -1656.525)" fill="#69afe1"/>
    <path id="Path_409" data-name="Path 409" d="M1350.03,1716.185a26.873,26.873,0,0,0-2.782-2.246c-1.7-1.208-4.211.958-7.37.721s-.081-3,.567-4.561-2.19-3.179-2.19-3.179l-.137.054a11.677,11.677,0,0,1-.312,1.583c-.365,1.273-1.7.548-.972,2.721s-1.944,4.389-1.944,4.389c-.673,1.292-1.158,2.35-1.505,3.215a1.916,1.916,0,0,0,2.463,2.5c4.243-1.632,10.1-3.742,14.174-5.2Z" transform="translate(-1193.201 -1572.969)" fill="#dfecf2"/>
    <path id="Path_410" data-name="Path 410" d="M1333.93,1713.2a2.121,2.121,0,0,1-1.952-2.911c.379-.944.888-2.032,1.505-3.233l.019-.037.033-.027c.025-.02,2.555-2.154,1.879-4.165-.464-1.382-.137-1.741.377-2.1a1.246,1.246,0,0,0,.594-.745,15.523,15.523,0,0,0,.435-2.926l.411.019a15.386,15.386,0,0,1-.452,3.02,1.641,1.641,0,0,1-.753.968c-.377.262-.624.434-.222,1.63a3.584,3.584,0,0,1-.725,3.192,8.049,8.049,0,0,1-1.249,1.393c-.611,1.175-1.107,2.238-1.478,3.161a1.705,1.705,0,0,0,2.19,2.229c7.117-2.737,18.859-6.853,18.976-6.893l.137.387c-.118.041-11.859,4.158-18.964,6.889A2.149,2.149,0,0,1,1333.93,1713.2Z" transform="translate(-1191.971 -1564.458)" fill="#69afe1"/>
    <path id="Path_411" data-name="Path 411" d="M1289.024,1870.805s-6.071,12.695-7.042,18.58c-.2,1.187-.659,3.587-1.271,6.661a36.157,36.157,0,0,0,7.2-4.31c3.015-2.474,1.845-4.328,2.327-10.152s2.429-2.922,8.455-8.1,6.56-13.057,6.56-13.057h0a51.439,51.439,0,0,1-16.227,10.372Z" transform="translate(-1147.851 -1705.47)" fill="#dfecf2"/>
    <path id="Path_412" data-name="Path 412" d="M1235.767,1818.134a8.137,8.137,0,0,1-5-1.542c-2.141-1.6-3.558-4.505-4.106-8.4a26.376,26.376,0,0,1-.182-5.439l.411.039a25.966,25.966,0,0,0,.18,5.353c.371,2.637,1.355,6.186,3.944,8.121s6.312,1.946,11.07.042a51.532,51.532,0,0,0,17.679-11.826,39.323,39.323,0,0,0,5.536-6.97l.356.2a39.64,39.64,0,0,1-5.588,7.043,51.941,51.941,0,0,1-17.833,11.933A17.671,17.671,0,0,1,1235.767,1818.134Z" transform="translate(-1100.982 -1651.161)" fill="#69afe1"/>
    <path id="Path_413" data-name="Path 413" d="M1443.248,2021.019l-.4-.1c.045-.174,4.425-17.45,2.162-22.873-.672-1.611-1.232-4.549-.1-9.4a33.215,33.215,0,0,1,1.662-5.146l.376.166c-.038.088-3.816,8.815-1.562,14.221.976,2.339.91,6.947-.194,13.695C1444.376,2016.591,1443.259,2020.976,1443.248,2021.019Z" transform="translate(-1287.801 -1811.697)" fill="#69afe1"/>
    <path id="Path_414" data-name="Path 414" d="M432.909,1157.469a2.967,2.967,0,0,0-1.471.862,7.367,7.367,0,0,1-1.582,1.159,12.608,12.608,0,0,0-3.328-7.854,5.727,5.727,0,0,1,1.965-.419,2.965,2.965,0,0,0,1.649-.431c.274-.274-.318-1.319-1.328-2.327s-2.053-1.6-2.327-1.326a2.971,2.971,0,0,0-.43,1.649,7.577,7.577,0,0,1-.333,2.053,12.605,12.605,0,0,0-7.9-3.265,5.881,5.881,0,0,1,1.118-1.74,2.97,2.97,0,0,0,.862-1.47c0-.391-1.158-.71-2.585-.71s-2.585.319-2.585.71a2.96,2.96,0,0,0,.861,1.47,7.807,7.807,0,0,1,1.245,1.734,12.6,12.6,0,0,0-8.025,3.271,7.647,7.647,0,0,1-.333-2.053,2.958,2.958,0,0,0-.43-1.649c-.274-.274-1.321.316-2.327,1.326s-1.6,2.053-1.326,2.327a2.96,2.96,0,0,0,1.642.431,5.735,5.735,0,0,1,1.967.419,12.6,12.6,0,0,0-3.33,7.853A7.408,7.408,0,0,1,403,1158.33a2.965,2.965,0,0,0-1.47-.862c-.393,0-.71,1.158-.71,2.585s.318,2.585.71,2.585a2.961,2.961,0,0,0,1.47-.862,5.514,5.514,0,0,1,1.573-1.042,12.59,12.59,0,0,0,3.182,7.888,6.738,6.738,0,0,1-1.809.266,2.96,2.96,0,0,0-1.642.43c-.274.273.316,1.321,1.326,2.326s2.053,1.6,2.327,1.326a2.958,2.958,0,0,0,.43-1.642,5.272,5.272,0,0,1,.335-1.73,12.6,12.6,0,0,0,7.839,3.26,6.85,6.85,0,0,1-1.062,1.416,2.961,2.961,0,0,0-.861,1.47c0,.391,1.156.709,2.585.709s2.585-.318,2.585-.709a2.972,2.972,0,0,0-.862-1.47,5.194,5.194,0,0,1-.968-1.422,12.611,12.611,0,0,0,7.745-3.254,5.275,5.275,0,0,1,.335,1.73,2.973,2.973,0,0,0,.43,1.642c.274.273,1.321-.316,2.327-1.326s1.6-2.053,1.328-2.327a2.971,2.971,0,0,0-1.649-.43,7.075,7.075,0,0,1-1.809-.266,12.6,12.6,0,0,0,3.183-7.888,5.543,5.543,0,0,1,1.571,1.042,2.962,2.962,0,0,0,1.471.862c.391,0,.709-1.157.709-2.585S433.3,1157.469,432.909,1157.469Z" transform="translate(-388.38 -1086.786)" fill="#dfedf8"/>
    <ellipse id="Ellipse_47" data-name="Ellipse 47" cx="3.573" cy="2.296" rx="3.573" ry="2.296" transform="translate(24.913 66.089)" fill="#c4def4"/>
    <ellipse id="Ellipse_48" data-name="Ellipse 48" cx="1.597" cy="1.026" rx="1.597" ry="1.026" transform="translate(23.847 74.826)" fill="#c4def4"/>
    <ellipse id="Ellipse_49" data-name="Ellipse 49" cx="1.597" cy="1.026" rx="1.597" ry="1.026" transform="translate(30.463 72.241)" fill="#c4def4"/>
    <ellipse id="Ellipse_50" data-name="Ellipse 50" cx="2.458" cy="1.579" rx="2.458" ry="1.579" transform="translate(32.531 76.685)" fill="#c4def4"/>
    <ellipse id="Ellipse_51" data-name="Ellipse 51" cx="1.771" cy="1.139" rx="1.771" ry="1.139" transform="translate(34.989 73.596)" fill="#c4def4"/>
    <path id="Path_415" data-name="Path 415" d="M1806.218,897.9c-.565,0-1.025-.123-1.123-.48l-.01-.051a3.238,3.238,0,0,1,.479-1.812,4.127,4.127,0,0,0,.439-1.174,12.959,12.959,0,0,1-7.725-.916,4.127,4.127,0,0,0,.137,1.206,3.229,3.229,0,0,1,.023,1.875l-.02.047c-.164.29-.572.354-1.212.193a8.383,8.383,0,0,1-3.308-1.875c-.467-.466-.62-.849-.456-1.139l.029-.041a3.237,3.237,0,0,1,1.622-.944,5.318,5.318,0,0,0,1.155-.465,12.948,12.948,0,0,1-4.8-6.193,4.167,4.167,0,0,0-.781.981,3.233,3.233,0,0,1-1.31,1.341l-.048.018c-.323.089-.656-.153-.993-.72a8.417,8.417,0,0,1-1.013-3.664c0-.66.161-1.039.483-1.128l.05-.008a3.22,3.22,0,0,1,1.813.477,5.5,5.5,0,0,0,1.207.508,12.954,12.954,0,0,1,1.046-7.792,4.439,4.439,0,0,0-1.369.137,3.222,3.222,0,0,1-1.875.022l-.047-.021c-.29-.164-.354-.572-.193-1.211a7.511,7.511,0,0,1,.747-1.76c.524-.924,1.592-2.385,2.266-2l.041.029a3.232,3.232,0,0,1,.944,1.62,5.85,5.85,0,0,0,.557,1.332,12.961,12.961,0,0,1,6.274-4.79,4.7,4.7,0,0,0-1.154-.958,3.231,3.231,0,0,1-1.341-1.31l-.017-.047c-.089-.322.153-.657.72-.994a8.371,8.371,0,0,1,3.664-1.013h0c.656,0,1.032.162,1.121.482l.008.051a3.231,3.231,0,0,1-.479,1.813,6.273,6.273,0,0,0-.58,1.453,12.938,12.938,0,0,1,7.938,1.025,6.322,6.322,0,0,0-.211-1.594,3.247,3.247,0,0,1-.023-1.876l.022-.045c.164-.29.572-.356,1.211-.194a7.472,7.472,0,0,1,1.76.749c.924.523,2.385,1.59,2,2.265l-.029.043a3.242,3.242,0,0,1-1.62.943,4.9,4.9,0,0,0-1.407.684,12.944,12.944,0,0,1,4.886,6.237,6.229,6.229,0,0,0,.949-1.245,3.23,3.23,0,0,1,1.311-1.342l.047-.018c.323-.089.657.153.994.72a8.421,8.421,0,0,1,1.013,3.664c0,.66-.161,1.039-.483,1.128l-.049.01a3.231,3.231,0,0,1-1.813-.479,4.7,4.7,0,0,0-1.418-.5,12.954,12.954,0,0,1-.9,7.846,5.842,5.842,0,0,0,1.429-.205,3.243,3.243,0,0,1,1.876-.022l.046.021c.676.383-.03,2.053-.548,2.973a7.473,7.473,0,0,1-1.126,1.545c-.465.468-.849.621-1.138.457l-.042-.029a3.237,3.237,0,0,1-.943-1.622,4.421,4.421,0,0,0-.583-1.245,12.97,12.97,0,0,1-6.149,4.9,5.594,5.594,0,0,0,1.054.775,3.236,3.236,0,0,1,1.343,1.31l.018.048c.089.322-.153.656-.72.993a7.53,7.53,0,0,1-1.779.716A7.75,7.75,0,0,1,1806.218,897.9Zm-.59-.635a6.224,6.224,0,0,0,4.44-1.226,2.757,2.757,0,0,0-1.074-1.014,7.13,7.13,0,0,1-1.505-1.169l-.323-.312.424-.137a12.4,12.4,0,0,0,6.516-5.179l.218-.352.238.338a5.736,5.736,0,0,1,.9,1.779,2.725,2.725,0,0,0,.721,1.289c.189-.04.822-.558,1.521-1.779a4.081,4.081,0,0,0,.751-2.221,2.738,2.738,0,0,0-1.477.042,7.547,7.547,0,0,1-2.03.241h-.443l.2-.4a12.4,12.4,0,0,0,.958-8.291l-.093-.4.4.065a5.882,5.882,0,0,1,2.017.642,2.773,2.773,0,0,0,1.422.4,6.22,6.22,0,0,0-1.228-4.44,2.762,2.762,0,0,0-1.013,1.074,7.744,7.744,0,0,1-1.355,1.7l-.315.312-.137-.42a12.4,12.4,0,0,0-5.147-6.591l-.339-.214.324-.238a6.08,6.08,0,0,1,1.93-1.007,2.735,2.735,0,0,0,1.289-.721c-.039-.189-.558-.821-1.779-1.521a4.017,4.017,0,0,0-2.221-.751,2.758,2.758,0,0,0,.043,1.477,7.97,7.97,0,0,1,.241,2.206v.446l-.4-.205a12.38,12.38,0,0,0-8.408-1.087l-.431.1.105-.43a7.992,7.992,0,0,1,.759-2.032,2.752,2.752,0,0,0,.4-1.422,6.219,6.219,0,0,0-4.438,1.226,2.736,2.736,0,0,0,1.074,1.014,5.867,5.867,0,0,1,1.586,1.4l.261.312-.387.125a12.4,12.4,0,0,0-6.622,5.077l-.24.374-.226-.382a7.735,7.735,0,0,1-.836-1.867,2.722,2.722,0,0,0-.721-1.289c-.189.04-.822.558-1.521,1.786a4.03,4.03,0,0,0-.751,2.221,2.773,2.773,0,0,0,1.477-.042,5.569,5.569,0,0,1,1.984-.137l.411.03-.19.368a12.4,12.4,0,0,0-1.095,8.25l.094.438-.433-.116a7.085,7.085,0,0,1-1.779-.693,2.746,2.746,0,0,0-1.43-.422,6.237,6.237,0,0,0,1.228,4.438,2.765,2.765,0,0,0,1.014-1.074,5.312,5.312,0,0,1,1.205-1.418l.312-.274.137.4a12.4,12.4,0,0,0,5.1,6.555l.383.245-.394.225a6.819,6.819,0,0,1-1.694.738,2.711,2.711,0,0,0-1.289.721,4.169,4.169,0,0,0,1.779,1.52,4,4,0,0,0,2.221.75,2.755,2.755,0,0,0-.043-1.475,5.382,5.382,0,0,1-.152-1.812l.022-.41.371.182a12.42,12.42,0,0,0,8.162.966l.411-.092-.077.411a5.166,5.166,0,0,1-.6,1.764A2.779,2.779,0,0,0,1805.628,897.266Z" transform="translate(-1585.111 -846.427)" fill="#dfedf8"/>
    <ellipse id="Ellipse_52" data-name="Ellipse 52" cx="2.296" cy="3.573" rx="2.296" ry="3.573" transform="translate(216.419 30.924) rotate(-60.45)" fill="#dfedf8"/>
    <ellipse id="Ellipse_53" data-name="Ellipse 53" cx="1.026" cy="1.597" rx="1.026" ry="1.597" transform="translate(212.437 35.79) rotate(-60.45)" fill="#dfedf8"/>
    <ellipse id="Ellipse_54" data-name="Ellipse 54" cx="1.026" cy="1.597" rx="1.026" ry="1.597" transform="translate(219.466 36.804) rotate(-60.45)" fill="#dfedf8"/>
    <ellipse id="Ellipse_55" data-name="Ellipse 55" cx="1.579" cy="2.458" rx="1.579" ry="2.458" transform="translate(218.527 42.651) rotate(-60.45)" fill="#dfedf8"/>
    <ellipse id="Ellipse_56" data-name="Ellipse 56" cx="1.139" cy="1.771" rx="1.139" ry="1.771" transform="translate(222.625 40.411) rotate(-60.45)" fill="#dfedf8"/>
    <path id="Path_416" data-name="Path 416" d="M1228.365,1109.083a1.448,1.448,0,0,0-.356.754,3.613,3.613,0,0,1-.318.906,6.16,6.16,0,0,0-3.514-2.25,2.8,2.8,0,0,1,.684-.713,1.457,1.457,0,0,0,.547-.629c.036-.188-.492-.445-1.18-.573s-1.271-.079-1.307.108a1.45,1.45,0,0,0,.282.786,3.722,3.722,0,0,1,.435.922,6.171,6.171,0,0,0-4.09.865,2.88,2.88,0,0,1-.029-1.011,1.448,1.448,0,0,0-.059-.831c-.108-.159-.664.033-1.24.427s-.958.843-.847,1a1.458,1.458,0,0,0,.754.355,3.835,3.835,0,0,1,.981.356,6.173,6.173,0,0,0-2.335,3.539,3.775,3.775,0,0,1-.7-.739,1.451,1.451,0,0,0-.63-.548c-.188-.034-.445.493-.574,1.18s-.079,1.271.108,1.307a1.456,1.456,0,0,0,.786-.282,2.786,2.786,0,0,1,.909-.374,6.158,6.158,0,0,0,.821,4.089,3.563,3.563,0,0,1-.958-.03,1.453,1.453,0,0,0-.832.059c-.157.108.034.662.429,1.24s.843.958,1,.847a1.453,1.453,0,0,0,.354-.754,2.715,2.715,0,0,1,.348-.856,6.16,6.16,0,0,0,3.465,2.3,3.474,3.474,0,0,1-.657.606,1.454,1.454,0,0,0-.547.629c-.034.189.493.446,1.18.575s1.271.079,1.307-.109a1.448,1.448,0,0,0-.282-.784,2.612,2.612,0,0,1-.344-.791,6.166,6.166,0,0,0,4.066-.851,3.356,3.356,0,0,1-.037.865,1.456,1.456,0,0,0,.059.832c.108.159.663-.033,1.232-.428s.958-.843.849-1a1.449,1.449,0,0,0-.754-.356,2.524,2.524,0,0,1-.784-.307,6.159,6.159,0,0,0,2.227-3.454,2.572,2.572,0,0,1,.613.606,1.453,1.453,0,0,0,.63.547c.189.036.446-.492.575-1.179s.079-1.271-.11-1.307a1.446,1.446,0,0,0-.779.289,3.448,3.448,0,0,1-.8.393,6.171,6.171,0,0,0-.9-4.065,2.7,2.7,0,0,1,.922-.014,1.451,1.451,0,0,0,.832-.059c.159-.108-.033-.664-.428-1.24S1228.522,1108.975,1228.365,1109.083Z" transform="translate(-1090.958 -1054.726)" fill="#fcfdfb"/>
    <ellipse id="Ellipse_57" data-name="Ellipse 57" cx="1.537" cy="1.124" rx="1.537" ry="1.124" transform="translate(128.166 57.97) rotate(-34.4)" fill="#cbe6f5"/>
    <ellipse id="Ellipse_58" data-name="Ellipse 58" cx="0.687" cy="0.502" rx="0.687" ry="0.502" transform="translate(130.202 61.755) rotate(-34.4)" fill="#cbe6f5"/>
    <ellipse id="Ellipse_59" data-name="Ellipse 59" cx="0.687" cy="0.502" rx="0.687" ry="0.502" transform="translate(131.837 59.104) rotate(-34.4)" fill="#cbe6f5"/>
    <ellipse id="Ellipse_60" data-name="Ellipse 60" cx="1.058" cy="0.773" rx="1.058" ry="0.773" transform="translate(133.798 60.396) rotate(-34.4)" fill="#cbe6f5"/>
    <ellipse id="Ellipse_61" data-name="Ellipse 61" cx="0.762" cy="0.557" rx="0.762" ry="0.557" transform="translate(133.818 58.551) rotate(-34.4)" fill="#cbe6f5"/>
    <path id="Path_417" data-name="Path 417" d="M2679.674,1212.555a1.23,1.23,0,0,0-.708-.057,3.151,3.151,0,0,1-.822.016,5.262,5.262,0,0,0,.747-3.483,2.4,2.4,0,0,1,.772.328,1.233,1.233,0,0,0,.667.249c.161-.029.21-.527.106-1.115s-.317-1.04-.479-1.011a1.231,1.231,0,0,0-.547.46,3.218,3.218,0,0,1-.607.624,5.265,5.265,0,0,0-1.916-3.011,2.425,2.425,0,0,1,.8-.327,1.23,1.23,0,0,0,.647-.3c.095-.137-.224-.52-.713-.862s-.958-.512-1.053-.378a1.241,1.241,0,0,0-.059.709,3.229,3.229,0,0,1,.009.891,5.263,5.263,0,0,0-3.527-.807,3.177,3.177,0,0,1,.381-.783,1.261,1.261,0,0,0,.249-.668c-.029-.16-.528-.208-1.115-.105s-1.04.318-1.013.478a1.248,1.248,0,0,0,.461.547,2.4,2.4,0,0,1,.571.615,5.262,5.262,0,0,0-3.022,1.886,3.058,3.058,0,0,1-.262-.776,1.234,1.234,0,0,0-.3-.647c-.136-.094-.52.225-.862.713s-.512.958-.379,1.054a1.244,1.244,0,0,0,.71.058,2.316,2.316,0,0,1,.787.022,5.255,5.255,0,0,0-.8,3.46,2.952,2.952,0,0,1-.684-.344,1.231,1.231,0,0,0-.667-.249c-.161.029-.208.529-.105,1.115s.316,1.04.479,1.011a1.238,1.238,0,0,0,.547-.46,2.193,2.193,0,0,1,.529-.51,5.265,5.265,0,0,0,1.9,2.994,2.868,2.868,0,0,1-.7.23,1.237,1.237,0,0,0-.647.3c-.093.137.226.52.714.862s.958.512,1.054.378a1.23,1.23,0,0,0,.057-.709,2.158,2.158,0,0,1,.011-.718,5.271,5.271,0,0,0,3.422.746,2.2,2.2,0,0,1-.3.67,1.241,1.241,0,0,0-.249.668c.029.16.527.208,1.114.105s1.042-.317,1.013-.478a1.229,1.229,0,0,0-.46-.547,2.908,2.908,0,0,1-.554-.524,5.263,5.263,0,0,0,2.979-1.933,2.267,2.267,0,0,1,.288.734,1.25,1.25,0,0,0,.3.647c.137.093.521-.226.864-.714S2679.808,1212.65,2679.674,1212.555Z" transform="translate(-2344.317 -1137.905)" fill="#dfedf8"/>
    <ellipse id="Ellipse_62" data-name="Ellipse 62" cx="0.959" cy="1.312" rx="0.959" ry="1.312" transform="translate(328.601 69.897) rotate(-54.93)" fill="#c4def4"/>
    <ellipse id="Ellipse_63" data-name="Ellipse 63" cx="0.428" cy="0.586" rx="0.428" ry="0.586" transform="translate(326.794 71.79) rotate(-54.93)" fill="#c4def4"/>
    <ellipse id="Ellipse_64" data-name="Ellipse 64" cx="0.428" cy="0.586" rx="0.428" ry="0.586" transform="translate(329.403 72.301) rotate(-54.93)" fill="#c4def4"/>
    <ellipse id="Ellipse_65" data-name="Ellipse 65" cx="0.66" cy="0.903" rx="0.66" ry="0.903" transform="translate(328.691 74.634) rotate(-54.93)" fill="#c4def4"/>
    <ellipse id="Ellipse_66" data-name="Ellipse 66" cx="0.475" cy="0.65" rx="0.475" ry="0.65" transform="translate(330.383 73.797) rotate(-54.93)" fill="#c4def4"/>
    <path id="Path_418" data-name="Path 418" d="M512.09,1483.846a9.87,9.87,0,0,0,1.947.09c.371-.019,4.423-.327,4.444-.457l-3.163,20.3-6.083,35.065h96.491l-7.649-53.434c15.062-1.686,5.337-37.671-7.289-61.144s-48.059-17.519-48.059-17.519-24.5,6.352-30.656,24.8c-2.176,6.523-4.332,13.059-6.046,19.721-1.642,6.4-3.107,13.109-2.834,19.755.17,4.143,1.006,8.544,4.6,11.1A9.882,9.882,0,0,0,512.09,1483.846Z" transform="translate(-476.714 -1313.295)" fill="#69afe1"/>
    <path id="Path_419" data-name="Path 419" d="M756.892,1463.23c1.705,16.012-.9,66.851-1.369,75.6h21.02c.3-11.558,2.463-97.631.036-129.393-14.348-5.4-30.407-2.7-30.407-2.7s-2.239.261-7.312,2.644l.445,1.006S755.028,1445.69,756.892,1463.23Z" transform="translate(-680.157 -1313.291)" fill="#fffaf8"/>
    <path id="Path_420" data-name="Path 420" d="M952.313,1442.748c-.155-11.222-.469-21.156-1.016-28.329a51.005,51.005,0,0,0-10.018-2.578l2.775,1.9s-.008,4.106,3.148,5.625,4.01,4.79,3.285,8.074S950.74,1440.68,952.313,1442.748Z" transform="translate(-854.874 -1318.273)" fill="#dfe4f3"/>
    <path id="Path_421" data-name="Path 421" d="M815.86,1370.414s-1.143,4.3,1.184,7.2a1.853,1.853,0,0,1,.361,1.553l-4.215,19.4a.958.958,0,0,1-1.718.346L797.8,1379.441a1.575,1.575,0,0,1,.116-1.965c.739-.806,1.657-2.394,1.8-5.368C799.834,1369.871,815.86,1370.414,815.86,1370.414Z" transform="translate(-730.785 -1282.466)" fill="#f8afac"/>
    <path id="Path_422" data-name="Path 422" d="M799.725,1372.108c-.146,2.974-1.065,4.561-1.8,5.368a1.575,1.575,0,0,0-.116,1.965l3.789,5.4h0c-.843-2.416,1.845-5.595,6.995-6.777s7.116-6.875,7.116-6.875h0a7.9,7.9,0,0,1,.151-.776S799.834,1369.871,799.725,1372.108Z" transform="translate(-730.785 -1282.466)" fill="#f26a66"/>
    <path id="Path_423" data-name="Path 423" d="M730.125,1117.366s-3.122-.583-2.312,3.205,1.553,4.661,3.925,4.911c0,0,1.708,16.858,14.66,16.606s13.505-16.646,13.505-16.646,3.349-.274,3.85-5.234-2.874-2.442-2.874-2.442,2.29-17.207-13.891-17.648S730.125,1117.366,730.125,1117.366Z" transform="translate(-670.506 -1049.206)" fill="#f8afac"/>
    <ellipse id="Ellipse_67" data-name="Ellipse 67" cx="1.276" cy="0.775" rx="1.276" ry="0.775" transform="matrix(0.014, -1, 1, 0.014, 81.047, 70.34)" fill="#3f3092"/>
    <path id="Path_424" data-name="Path 424" d="M895.033,1190.34a.406.406,0,0,1-.219-.063,5.032,5.032,0,0,0-5.1-.074.411.411,0,0,1-.428-.7,5.861,5.861,0,0,1,5.972.08.41.41,0,0,1-.22.757Z" transform="translate(-809.822 -1125.679)" fill="#3f3092"/>
    <ellipse id="Ellipse_68" data-name="Ellipse 68" cx="1.276" cy="0.775" rx="1.276" ry="0.775" transform="matrix(0.014, -1, 1, 0.014, 67.432, 70.151)" fill="#3f3092"/>
    <path id="Path_425" data-name="Path 425" d="M795.563,1188.955a.411.411,0,0,1-.219-.064,5.094,5.094,0,0,0-5.1-.072.411.411,0,0,1-.429-.7,5.855,5.855,0,0,1,5.973.081.411.411,0,0,1-.22.757Z" transform="translate(-723.965 -1124.482)" fill="#3f3092"/>
    <path id="Path_426" data-name="Path 426" d="M856.854,1229.446c-1.418-1.382-1.292-6.49-1.286-6.706l.547.015c-.04,1.41.086,5.29,1.122,6.3Z" transform="translate(-780.888 -1155.052)" fill="#f37f85"/>
    <path id="Path_427" data-name="Path 427" d="M732.869,1240.357a1.362,1.362,0,0,1-1.03-.731,7.545,7.545,0,0,1-1.13-2.454,1.728,1.728,0,0,1,.181-1.389,1.06,1.06,0,0,1,.759-.443,1.181,1.181,0,0,1,.922.29,1.059,1.059,0,0,1,.313.88.432.432,0,0,1-.375.3.494.494,0,0,1-.241-.031,1.8,1.8,0,0,1-.6-.386.274.274,0,1,1,.363-.411,1.82,1.82,0,0,0,.274.214.578.578,0,0,0-.969-.1,1.214,1.214,0,0,0-.093.958,6.952,6.952,0,0,0,1.054,2.268c.211.327.41.49.584.48a.274.274,0,1,1,.023.547Z" transform="translate(-673.068 -1165.92)" fill="#f37f85"/>
    <path id="Path_428" data-name="Path 428" d="M740.165,1223.5a.969.969,0,0,0,.383.946,8.284,8.284,0,0,1,2.637,4.379,6.094,6.094,0,0,1-.684,3.139s1.708,16.858,14.66,16.606,13.5-16.646,13.5-16.646c-.514-1.822.843-6.3,1.429-7.044s.446-1.118.446-1.118l-.9.487c-2.142,1.33-1.437,2.433-2.327,4.363s-5.451,4.025-8.519,2.19-2.927-1.552-8.075.032-8.451-1.413-8.855-3.422-2.971-3.558-2.971-3.558A.637.637,0,0,0,740.165,1223.5Z" transform="translate(-681.262 -1155.695)" fill="#fffaf8"/>
    <path id="Path_429" data-name="Path 429" d="M764.422,1285.585c.847,3.062,4.155,12.915,11.834,13.761a.519.519,0,0,0,.571-.506l.335-14.892a.519.519,0,0,0-.746-.479c-1.794.876-6.486,2.773-11.359,1.477a.519.519,0,0,0-.635.639Z" transform="translate(-702.204 -1207.425)" fill="#dfe4f3"/>
    <path id="Path_430" data-name="Path 430" d="M970.12,1238.926h-.06a.274.274,0,1,1,.038-.547c.176.015.378-.137.6-.464a7.01,7.01,0,0,0,1.117-2.238,1.229,1.229,0,0,0-.066-.967.517.517,0,0,0-.368-.223.638.638,0,0,0-.5.136.618.618,0,0,0-.107.16,2.016,2.016,0,0,0,.288-.205.274.274,0,0,1,.35.42,1.814,1.814,0,0,1-.616.368.493.493,0,0,1-.242.025.434.434,0,0,1-.365-.314,1.052,1.052,0,0,1,.338-.872,1.181,1.181,0,0,1,.929-.264,1.06,1.06,0,0,1,.747.464,1.729,1.729,0,0,1,.137,1.393,7.518,7.518,0,0,1-1.2,2.422A1.353,1.353,0,0,1,970.12,1238.926Z" transform="translate(-879.495 -1164.71)" fill="#f37f85"/>
    <path id="Path_431" data-name="Path 431" d="M938.721,1152.793s-1.223,3.491.988,5.4a11.156,11.156,0,0,1,3.033,4.309s2.481-5.551.216-9.058C942.958,1153.449,940.257,1150.558,938.721,1152.793Z" transform="translate(-852.374 -1093.946)" fill="#3f3092"/>
    <path id="Path_432" data-name="Path 432" d="M746.3,1170.777a3.2,3.2,0,0,1-1.058,3.6,12.239,12.239,0,0,0-2.58,3.046,10.937,10.937,0,0,1,.5-7.675S746.143,1169.32,746.3,1170.777Z" transform="translate(-683.041 -1109.26)" fill="#3f3092"/>
    <path id="Path_433" data-name="Path 433" d="M728.337,1049.9s-4.958,4.734-8.114,3.331-2.936-3.331-2.936-3.331a19.288,19.288,0,0,1-9.347,5.084c-5.777,1.226-21.731-12.1-3.491-17.883s22.191,6.662,22.191,6.662,5.1-3.506,8.11-.175-1.035,5.084-1.035,5.084,2.792,4.033,0,5.086S728.212,1053.236,728.337,1049.9Z" transform="translate(-643.127 -993.5)" fill="#3f3092"/>
    <path id="Path_434" data-name="Path 434" d="M908.062,1054.7l-.547-.041a10.332,10.332,0,0,0-1.623-6.022.274.274,0,0,1,.441-.326,10.387,10.387,0,0,1,1.7,4.965c.707-1.2,2.376-2.874,6.287-3.558a.274.274,0,1,1,.094.539C908.542,1051.3,908.078,1054.559,908.062,1054.7Z" transform="translate(-824.283 -1004.397)" fill="#3f3092"/>
    <path id="Path_435" data-name="Path 435" d="M740.55,1072.625a11.726,11.726,0,0,1-7.04-2.318,4.749,4.749,0,0,1-1.908-3.457c-.079-1.755,1.54-3.224,4.68-4.252a26.738,26.738,0,0,1,4.754-1.028l.03.274c-.094.01-9.371,1.045-9.191,5a4.409,4.409,0,0,0,1.806,3.259,11.584,11.584,0,0,0,8.1,2.169l.042.274A8.538,8.538,0,0,1,740.55,1072.625Z" transform="translate(-673.89 -1015.94)" fill="#6169b0"/>
    <path id="Path_436" data-name="Path 436" d="M871.882,1126.362a3.675,3.675,0,0,1-.846-.1,5.23,5.23,0,0,1-3.026-2.358l.24-.136A5.04,5.04,0,0,0,871.1,1126a4.274,4.274,0,0,0,3.421-.842l.155.226A4.948,4.948,0,0,1,871.882,1126.362Z" transform="translate(-791.632 -1069.627)" fill="#6169b0"/>
    <path id="Path_437" data-name="Path 437" d="M944.477,1150.03a2.143,2.143,0,0,1-1.149-.294,1.718,1.718,0,0,1-.777-1.162l.274-.033-.137.016.137-.018a1.467,1.467,0,0,0,.654.966,3,3,0,0,0,2.532-.056l.092.259A4.994,4.994,0,0,1,944.477,1150.03Z" transform="translate(-855.97 -1091.007)" fill="#6169b0"/>
    <path id="Path_438" data-name="Path 438" d="M639.809,1903.27s-1.548-1.779-5.314-2.259-10.03,4.852-12.825,7.584-15.526,8.547-19.12,9.163l1.719-11.013,35.48-10.294Z" transform="translate(-562.502 -1736.56)" fill="#4189c8"/>
    <path id="Path_439" data-name="Path 439" d="M874.36,1874.483l7.6-3.483,12.714,7-.231,13.549s-2.61-.323-3.011-4.21.486-5.328-2.51-6.066-8.1-1.385-10.69-.574a9.32,9.32,0,0,1-3.807.607Z" transform="translate(-797.113 -1714.593)" fill="#dfe4f3"/>
    <path id="Path_440" data-name="Path 440" d="M1021.331,1904.922s-.137,6.176-.231,13.549c-.015,1.292,2.931.125,3.442-.051,1.809-.62,3.6-1.779,5.567-1.779s3.661,1.176,5.432,1.837c3.274,1.221,6.989,2.165,10.423.951l-.831-5.8-15.014-11.437Z" transform="translate(-923.77 -1741.515)" fill="#4189c8"/>
    <path id="Path_441" data-name="Path 441" d="M624.047,1752.6s32.053-9.457,49.037-10.166l2.307,7.166s-15.346,14.7-60.281,24.207" transform="translate(-573.343 -1603.619)" fill="#69afe1"/>
    <path id="Path_442" data-name="Path 442" d="M614.885,1772.734l-.085-.4c23.173-4.9,38.3-11.21,46.915-15.637,7.3-3.753,11.742-7.1,13.174-8.429l-2.22-6.891c-16.8.753-48.512,10.058-48.831,10.152l-.116-.394c.32-.094,32.271-9.472,49.086-10.174h.156l2.4,7.438-.093.089c-1.334,1.278-5.84,4.715-13.338,8.572C653.291,1761.494,638.119,1767.818,614.885,1772.734Z" transform="translate(-573.075 -1602.35)" fill="#c3dff5"/>
    <path id="Path_443" data-name="Path 443" d="M941.629,1716.09s1.252,12.8,2.254,13.915l-15.788.354s-5.352,3.2-7.182,4.177c-1.924,1.031-7.832,3.855-7.832,3.855l36.312,14.265s8.032,2.445,9.717-7.646Z" transform="translate(-830.534 -1580.884)" fill="#69afe1"/>
    <path id="Path_444" data-name="Path 444" d="M1024.944,1742.43s10.824,2.774,10.7,10.375h-6.569l-6.31.29,4.488-3.5Z" transform="translate(-925.203 -1603.619)" fill="#f8afac"/>
    <path id="Path_445" data-name="Path 445" d="M736.359,1758.643s-8.868-2.643-10.7-2.643-5.1,6.762-5.1,6.762Z" transform="translate(-664.361 -1615.332)" fill="#f8afac"/>
    <path id="Path_446" data-name="Path 446" d="M414.913,778.276l-10-12.622,2.377-7.422-7.13-1.143,1.57-18.529.409.036L400.6,756.744l7.226,1.158-2.455,7.668,9.865,12.45Z" transform="translate(-345.401 -637.482)" fill="#c2def4"/>
    <path id="Path_447" data-name="Path 447" d="M731.332,781.886l-.342-.227,7.93-11.964-6.4-4.716,6.4-1.495-6.117-17,.386-.14,6.274,17.44-5.986,1.4,5.994,4.419Z" transform="translate(-630.955 -644.197)" fill="#c2def4"/>
    <path id="Path_448" data-name="Path 448" d="M1052.216,2014.986c-4.207-13-1.983-45.115-1.96-45.436l.411.03c-.023.322-2.241,32.36,1.942,45.281Z" transform="translate(-948.411 -1799.656)" fill="#c2def4"/>
    <path id="Path_449" data-name="Path 449" d="M653.236,2159.4l-15.436-.62v-3.324h16.345Zm-15.025-1.014,14.7.592.717-3.111H638.211Z" transform="translate(-592.928 -1960.123)" fill="#c2def4"/>
    <path id="Path_450" data-name="Path 450" d="M1091.6,2150.2l1.112-3.344,12.021-1.381V2149Zm1.419-2.966-.83,2.5,12.133-1.111v-2.687Z" transform="translate(-984.622 -1951.509)" fill="#c2def4"/>
    <path id="Path_451" data-name="Path 451" d="M948.225,1753a7.932,7.932,0,0,1-2.129-.274h-.015l-36.75-14.443.426-.2c.059-.027,5.925-2.835,7.823-3.851,1.805-.969,7.117-4.141,7.174-4.173l.047-.029,15.5-.348c-.966-2.22-1.991-12.464-2.112-13.7l.411-.041c.5,5.12,1.505,13.02,2.2,13.8l.3.333-16.181.364c-.531.316-5.421,3.23-7.145,4.154-1.6.861-6.022,2.989-7.414,3.656l35.863,14.088a7.647,7.647,0,0,0,5.685-.745c1.954-1.214,3.223-3.482,3.769-6.741l.411.068c-.567,3.383-1.9,5.748-3.969,7.025A7.35,7.35,0,0,1,948.225,1753Z" transform="translate(-827.297 -1580.754)" fill="#c2def4"/>
    <path id="Path_452" data-name="Path 452" d="M779.969,1424.6a10.71,10.71,0,0,1-6.453-2.141,11.2,11.2,0,0,1-2.8-2.97l-.034-.067c-.027-.064-2.755-6.585-5.41-13.482-1.339-3.478-5.41-14.057-5.2-16.538a3.364,3.364,0,0,1,1.232-2.38c1.975-1.652,5.637-1.329,5.792-1.315a.55.55,0,1,1-.1,1.095h0c-.034,0-3.367-.295-4.989,1.066a2.27,2.27,0,0,0-.838,1.63c-.249,2.976,7.49,22.24,10.515,29.467a10.475,10.475,0,0,0,2.529,2.644,9.652,9.652,0,0,0,7.649,1.734c.079-.015,8.566-1.662,9.36-7.793.8-6.2-1.752-26.052-1.984-27.832-.326-.455-2.015-2.478-5.9-1.97a.548.548,0,1,1-.137-1.086c5.02-.656,6.96,2.44,7.04,2.572l.06.1.015.113c0,.053.723,5.454,1.323,11.592.81,8.269,1.037,13.872.684,16.653-.374,2.886-2.28,5.314-5.513,7.022a18.373,18.373,0,0,1-4.739,1.708A12.191,12.191,0,0,1,779.969,1424.6Z" transform="translate(-698.458 -1294.737)" fill="#3f3092"/>
    <path id="Path_453" data-name="Path 453" d="M928.854,1674.548c-5.474,0-10.546-3.9-12.711-5.812a.548.548,0,0,1,.725-.821c2.439,2.158,8.759,6.98,14.815,5.121a11.683,11.683,0,0,0,1.307-.525,7.181,7.181,0,0,1,2.789-.822h.044a5.672,5.672,0,0,1,3.33,1.607c.114.09.223.178.331.261a.548.548,0,1,1-.672.865c-.111-.086-.225-.177-.341-.274a4.833,4.833,0,0,0-2.648-1.369h-.027a6.514,6.514,0,0,0-2.358.731,12.929,12.929,0,0,1-1.433.573A10.684,10.684,0,0,1,928.854,1674.548Z" transform="translate(-833.017 -1539.183)" fill="#3f3092"/>
    <rect id="Rectangle_89" data-name="Rectangle 89" width="6.472" height="0.411" transform="translate(102.049 135.001)" fill="#c2def4"/>
    <path id="Path_454" data-name="Path 454" d="M1079,1726.308a1.269,1.269,0,1,1,1.269-1.269A1.269,1.269,0,0,1,1079,1726.308Zm0-2.127a.858.858,0,1,0,.858.858A.858.858,0,0,0,1079,1724.181Z" transform="translate(-972.65 -1587.513)" fill="#c2def4"/>
    <path id="Path_455" data-name="Path 455" d="M681.913,1700.772a3.808,3.808,0,0,1-3.026-1.284c-1.278-1.457-.5-3.886,0-6.777s-2.439-4.722-2.439-4.722c-1.3,5.324-4.243,18.339-1.837,17.616q2.845-.854,5.53-1.614Z" transform="translate(-623.91 -1556.629)" fill="#4189c8"/>
    <path id="Path_456" data-name="Path 456" d="M720.349,1691.974l-.253-.324,4.379-3.41-2.221-6.879c-1.79.092-18.958,1.183-48.831,10.149a.684.684,0,0,1-.706-.153c-.809-.78-.575-4.281.716-10.7.939-4.668,2.112-9.183,2.124-9.227l.4.1c-1.872,7.189-4.2,18.321-2.951,19.53a.275.275,0,0,0,.3.056,291.586,291.586,0,0,1,36.486-8.674,114.96,114.96,0,0,1,12.6-1.505h.155l2.4,7.45Z" transform="translate(-622.661 -1542.336)" fill="#c2def4"/>
    <path id="Path_457" data-name="Path 457" d="M798.031,1983.981l-.391-.123c3.995-12.784,5.759-53.744,5.775-54.157l.411.018C803.808,1930.131,802.043,1971.146,798.031,1983.981Z" transform="translate(-730.892 -1765.26)" fill="#c2def4"/>
    <path id="Path_458" data-name="Path 458" d="M551.3,2216.55s.332,16.58,3.743,17.229,17.277,4.456,17.277,4.456l-24.809.16Z" transform="translate(-514.994 -2012.852)" fill="#4189c8"/>
    <path id="Path_459" data-name="Path 459" d="M614.353,1819.393l-.283-.3c4.605-4.388,8.919-4,9.1-3.979l-.043.41C623.093,1815.519,618.814,1815.143,614.353,1819.393Z" transform="translate(-572.445 -1666.343)" fill="#c2def4"/>
    <path id="Path_460" data-name="Path 460" d="M1142.5,1821.7a9.95,9.95,0,0,1-3.862-2.624,18.6,18.6,0,0,1-1.7-1.95l.331-.242c.026.036,2.658,3.594,5.354,4.425Z" transform="translate(-1023.757 -1667.88)" fill="#c2def4"/>
    <rect id="Rectangle_90" data-name="Rectangle 90" width="311.425" height="0.821" transform="translate(19.772 224.873)" fill="#e7f3fc"/>
    <path id="Path_461" data-name="Path 461" d="M2606.675,1639.9l-.5-.656c15.035-11.349,23.06-24.025,23.849-37.677a41.687,41.687,0,0,0-1.941-14.894,54.4,54.4,0,0,0-5.491-11.954,58.85,58.85,0,0,0-8.385-10.838l.567-.594a59.646,59.646,0,0,1,8.507,10.982,55.26,55.26,0,0,1,5.579,12.141,42.48,42.48,0,0,1,1.985,15.191C2630.048,1615.518,2621.915,1628.395,2606.675,1639.9Z" transform="translate(-2291.921 -1448.996)" fill="#e7f3fc"/>
  </g>
</svg>
