<svg xmlns="http://www.w3.org/2000/svg" width="422.264" height="388.662" viewBox="0 0 422.264 388.662">
  <g id="Layer_1" data-name="Layer 1" transform="translate(0.006 -36.285)">
    <rect id="Rectangle_230" data-name="Rectangle 230" width="1.142" height="422.262" transform="translate(-0.006 365.364) rotate(-89.89)" fill="#e7f3fc"/>
    <path id="Path_987" data-name="Path 987" d="M1173.941,2353.862s-41.652,10.057-29.4,23.686,49.952,4,63.516,10.125,70.063,4.688,63.714-10.8S1242.771,2348.086,1173.941,2353.862Z" transform="translate(-999.239 -1966.101)" fill="#aaceed"/>
    <rect id="Rectangle_231" data-name="Rectangle 231" width="104.389" height="104.389" rx="43.7" transform="translate(238.391 47.295)" fill="#f3fafe"/>
    <rect id="Rectangle_232" data-name="Rectangle 232" width="58.249" height="58.249" rx="22.99" transform="translate(86.328 89.435)" fill="#f3fafe"/>
    <rect id="Rectangle_233" data-name="Rectangle 233" width="83.119" height="83.119" rx="22.99" transform="translate(47.26 184.752)" fill="#f3fafe"/>
    <rect id="Rectangle_234" data-name="Rectangle 234" width="60.145" height="60.145" rx="22.99" transform="translate(312.707 174.933)" fill="#f3fafe"/>
    <path id="Path_988" data-name="Path 988" d="M1507.058,2375.669c.6.818,12.479,5.643,17.534,6.32s6.994-.308,8.932-1.294-2.413-3.944-2.43-3.955c-6.024-2.665-10.82-4.1-11.99-4.948-1.523-1.125-1.7-4.882-1.7-4.882l-13.458-.19-.067,4.758C1505.3,2371.592,1506.461,2374.85,1507.058,2375.669Z" transform="translate(-1292.014 -1977.627)" fill="#f8afac"/>
    <path id="Path_989" data-name="Path 989" d="M1539.166,2401.579a5.638,5.638,0,0,0-1.977-1.749,39,39,0,0,0-6.3-2.837c.723.527,4.1,2.978,2.322,3.882-1.937.986-3.877,1.972-8.93,1.294s-16.938-5.5-17.536-6.323-1.76-4.075-3.18-4.187l-.07,5.066c-.03,2.181,1.277,3.511,3.112,4.465,6.237,3.236,13.115,5.04,19.968,6.6a25.228,25.228,0,0,0,5.394.811c3.079.019,8.374-1.787,7.693-5.776a3.294,3.294,0,0,0-.5-1.249Z" transform="translate(-1291.704 -1997.821)" fill="#332f84"/>
    <path id="Path_990" data-name="Path 990" d="M1296.617,2354.976c-.447.909-11.33,7.7-16.194,9.232s-6.943.895-9.021.255,1.713-4.3,1.713-4.315c5.479-3.654,9.96-5.888,10.967-6.937,1.315-1.372.837-5.1.837-5.1l13.227-2.489.881,4.676C1297.656,2350.66,1297.064,2354.066,1296.617,2354.976Z" transform="translate(-1103.277 -1960.543)" fill="#f8afac"/>
    <path id="Path_991" data-name="Path 991" d="M1242.662,2386a5.658,5.658,0,0,1,1.65-2.063,39.239,39.239,0,0,1,5.71-3.875c-.622.643-3.528,3.637-1.623,4.223,2.078.64,4.157,1.279,9.021-.255s15.745-8.323,16.193-9.23,1.035-4.318,2.413-4.68l.938,4.979c.4,2.145-.657,3.679-2.3,4.933-5.59,4.265-12.057,7.211-18.543,9.925a24.733,24.733,0,0,1-5.175,1.713c-3.03.548-8.564-.323-8.564-4.377A3.286,3.286,0,0,1,1242.662,2386Z" transform="translate(-1080.283 -1980.38)" fill="#332f84"/>
    <path id="Path_992" data-name="Path 992" d="M1336.672,1637.717l-41.328-6.391v.518c-15.505-2.056-31.639-2.094-41.092,6.281,0,0-2.352,8.7,1.4,32.263s8.347,99.058,8.347,99.058l25.857,3.085,5.995-70.436a.661.661,0,0,1,1.319.048l.8,70.5,25.933.362s7.744-94.618,10.348-104.123S1336.672,1637.717,1336.672,1637.717Z" transform="translate(-1089.306 -1381.685)" fill="#5356a5"/>
    <path id="Path_993" data-name="Path 993" d="M1507.142,1640.391,1465.814,1634v.518l-1.2-.154c-2.352,2.2,3.616,5.295,3.974,5.55,1.256.894.472,15.486.472,15.486l-1.418,49.413.8,70.5,10.884-.887s-2.116-31.926,5.308-48.912,20.088-53.965,20.088-53.965C1507.334,1662.051,1507.142,1640.391,1507.142,1640.391Z" transform="translate(-1259.776 -1384.359)" fill="#332f84"/>
    <rect id="Rectangle_235" data-name="Rectangle 235" width="27.595" height="0.381" transform="translate(208.615 304.995) rotate(-89.22)" fill="#fffaf8"/>
    <rect id="Rectangle_236" data-name="Rectangle 236" width="65.097" height="0.381" transform="matrix(0.1, -0.995, 0.995, 0.1, 230.596, 385.088)" fill="#fffaf8"/>
    <rect id="Rectangle_237" data-name="Rectangle 237" width="0.381" height="86.695" transform="translate(171.601 294.873) rotate(-4.75)" fill="#fffaf8"/>
    <rect id="Rectangle_238" data-name="Rectangle 238" width="0.571" height="11.457" transform="matrix(0.99, -0.141, 0.141, 0.99, 241.697, 179.803)" fill="#027aaa"/>
    <path id="Path_994" data-name="Path 994" d="M1311.2,1123.161c-2.855-17.563,6.945-37.124-14.556-41.9-1.991-.282-3.883-.533-5.38-.746-9.788-1.393-15.226-1.332-24.382,1.239l-3.839,1.077s-11.039,6.385-25.962,52.511l23.822-7.282s-3.473,26.959-16.318,62.975c0,0,31.049,14.538,73.4-.356C1317.983,1190.683,1314.057,1140.722,1311.2,1123.161Z" transform="translate(-1075.992 -935.481)" fill="#fcfdfb"/>
    <path id="Path_995" data-name="Path 995" d="M1400.588,1047.706s2.429,4.486-1.918,7.141c.974,2.737,1.3,5.767,2.708,8.342,1.624,2.961,5.759,4.162,8.945,4.031a8.6,8.6,0,0,0,4.248-1.214,10.963,10.963,0,0,0,3.911-5.42c.3-.729,2.533-6.806,2.406-6.867a6.981,6.981,0,0,1-3.77-5.782C1417.11,1047.936,1406.917,1044.052,1400.588,1047.706Z" transform="translate(-1206.828 -908.38)" fill="#f8afac"/>
    <path id="Path_996" data-name="Path 996" d="M1400.588,1047.706s2.429,4.486-1.918,7.141l1.839,6.366a19.419,19.419,0,0,0,1.88-4.625c.916-3.4,3.949-2.115,9.212-2.84a6.3,6.3,0,0,0,5.519-5.812S1406.917,1044.052,1400.588,1047.706Z" transform="translate(-1206.828 -908.38)" fill="#f26a66"/>
    <path id="Path_997" data-name="Path 997" d="M1504.114,870.32s12.323,27.174,4.227,35.257a12.747,12.747,0,0,1-6.57,3.831c-2.065.343-5.007-.4-5.934-2.493a3.507,3.507,0,0,1-.282-1.332,6.7,6.7,0,0,1,1.192-3.6,31.867,31.867,0,0,0,2.094-3.218,20.72,20.72,0,0,0,1.1-3.839c.617-2.5,1.452-5.58,1.056-8.184C1500.618,884.234,1504.114,870.32,1504.114,870.32Z" transform="translate(-1285.273 -766.022)" fill="#3f3092"/>
    <path id="Path_998" data-name="Path 998" d="M1504.743,986.989c-2.065-.19-.151-1.226,1.06-3.976s-2.326-3.194-2.326-3.194a3.9,3.9,0,0,0-2.687-.084c-.234,1.264-.554,2.5-.832,3.631a20.737,20.737,0,0,1-1.1,3.839,33.027,33.027,0,0,1-2.094,3.218,6.74,6.74,0,0,0-1.191,3.6,3.5,3.5,0,0,0,.282,1.332c.927,2.094,3.869,2.836,5.934,2.493a12.761,12.761,0,0,0,6.57-3.831,6.747,6.747,0,0,0,.6-.678C1509.035,990.028,1506.235,987.126,1504.743,986.989Z" transform="translate(-1285.289 -854.457)" fill="#2f2e7a"/>
    <path id="Path_999" data-name="Path 999" d="M1336.137,867.93s-13.073,26.82-5.205,35.127a12.755,12.755,0,0,0,6.471,4.012c2.053.4,5.017-.257,6-2.328a3.494,3.494,0,0,0,.318-1.332,6.7,6.7,0,0,0-1.091-3.629,33.338,33.338,0,0,1-2.008-3.273,20.749,20.749,0,0,1-.99-3.867c-.546-2.522-1.3-5.62-.83-8.21C1339.235,881.938,1336.137,867.93,1336.137,867.93Z" transform="translate(-1149.942 -764.087)" fill="#3f3092"/>
    <path id="Path_1000" data-name="Path 1000" d="M1353.308,1002.823a3.489,3.489,0,0,0,.318-1.332,6.7,6.7,0,0,0-1.091-3.629,33.306,33.306,0,0,1-2.008-3.273,20.742,20.742,0,0,1-.99-3.867c-.11-.506-.227-1.035-.343-1.578-2.4-.548-3.688,1.9-3.536,5.085.19,4-1.464,3.334-3.968,1.713s.381,6.374.381,6.374a11.427,11.427,0,0,0,5.236,2.826C1349.36,1005.55,1352.324,1004.894,1353.308,1002.823Z" transform="translate(-1159.865 -862.168)" fill="#2f2e7a"/>
    <path id="Path_1001" data-name="Path 1001" d="M1361.457,872.361s-3.077-.571-2.284,3.161,1.523,4.6,3.871,4.844c0,0,1.684,16.63,14.464,16.383s13.322-16.421,13.322-16.421,3.3-.274,3.807-5.163-2.84-2.409-2.84-2.409,2.257-16.975-13.7-17.409S1361.457,872.361,1361.457,872.361Z" transform="translate(-1174.742 -753.892)" fill="#f8afac"/>
    <circle id="Ellipse_156" data-name="Ellipse 156" cx="2.963" cy="2.963" r="2.963" transform="translate(209.066 123.413)" fill="#f48c94"/>
    <circle id="Ellipse_157" data-name="Ellipse 157" cx="2.963" cy="2.963" r="2.963" transform="translate(191.376 123.168)" fill="#f48c94"/>
    <ellipse id="Ellipse_158" data-name="Ellipse 158" cx="1.258" cy="0.763" rx="1.258" ry="0.763" transform="matrix(0.014, -1, 1, 0.014, 207.861, 120.621)" fill="#3f3092"/>
    <path id="Path_1002" data-name="Path 1002" d="M1479.526,919.875a.381.381,0,0,1-.2-.059,4.989,4.989,0,0,0-5.061-.072.381.381,0,0,1-.4-.651,5.755,5.755,0,0,1,5.866.08.381.381,0,0,1-.2.7Z" transform="translate(-1267.563 -804.882)" fill="#3f3092"/>
    <ellipse id="Ellipse_159" data-name="Ellipse 159" cx="1.258" cy="0.763" rx="1.258" ry="0.763" transform="matrix(0.014, -1, 1, 0.014, 194.433, 120.432)" fill="#3f3092"/>
    <path id="Path_1003" data-name="Path 1003" d="M1408.969,918.9a.364.364,0,0,1-.2-.061,5,5,0,0,0-5.061-.072.381.381,0,0,1-.4-.649,5.755,5.755,0,0,1,5.866.08.381.381,0,0,1-.2.7Z" transform="translate(-1210.435 -804.088)" fill="#3f3092"/>
    <path id="Path_1004" data-name="Path 1004" d="M1451.415,948.9c-1.374-1.332-1.252-6.343-1.247-6.557l.381.011c0,.049-.124,5.049,1.13,6.281Z" transform="translate(-1248.521 -824.336)" fill="#f37f85"/>
    <path id="Path_1005" data-name="Path 1005" d="M1470.613,940.4h-.067a4.71,4.71,0,1,1,.067,0Zm0-8.515a3.877,3.877,0,0,0-.053,7.754h.055a3.877,3.877,0,0,0,.053-7.754Z" transform="translate(-1261.234 -815.13)" fill="#f0577c"/>
    <path id="Path_1006" data-name="Path 1006" d="M1398.853,939.4h-.067a4.714,4.714,0,1,1,.067,0Zm0-8.515a3.877,3.877,0,1,0,3.879,3.932h0a3.884,3.884,0,0,0-3.823-3.932Z" transform="translate(-1203.132 -814.32)" fill="#f0577c"/>
    <path id="Path_1007" data-name="Path 1007" d="M1363.688,956.48c-.508,0-.839-.514-.952-.685a7.391,7.391,0,0,1-1.1-2.394,1.627,1.627,0,0,1,.166-1.307.952.952,0,0,1,.693-.4,1.093,1.093,0,0,1,.847.266.942.942,0,0,1,.287.784.352.352,0,0,1-.3.246.4.4,0,0,1-.2-.029,1.753,1.753,0,0,1-.571-.365.19.19,0,1,1,.249-.278,1.444,1.444,0,0,0,.443.291h.019a.818.818,0,0,0-.179-.367.71.71,0,0,0-.55-.169.584.584,0,0,0-.424.242,1.314,1.314,0,0,0-.1,1.014,7.028,7.028,0,0,0,1.05,2.265c.227.352.438.518.647.51a.19.19,0,1,1,.015.381Z" transform="translate(-1176.792 -831.9)" fill="#f37f85"/>
    <path id="Path_1008" data-name="Path 1008" d="M1445.589,951.618a5.068,5.068,0,0,0-4.758-.076l-.381-.657a5.778,5.778,0,0,1,5.519.067Z" transform="translate(-1240.656 -830.713)" fill="#f0577c"/>
    <path id="Path_1009" data-name="Path 1009" d="M1367.9,942.872a.956.956,0,0,0,.381.935,8.165,8.165,0,0,1,2.6,4.324,5.965,5.965,0,0,1-.681,3.1s1.684,16.63,14.464,16.383,13.323-16.421,13.323-16.421c-.508-1.8.832-6.218,1.408-6.95s.442-1.1.442-1.1l-.893.48c-2.113,1.313-1.418,2.4-2.3,4.305s-5.377,3.97-8.4,2.154-2.889-1.523-7.969.03-8.336-1.393-8.734-3.382-2.933-3.5-2.933-3.5A.626.626,0,0,0,1367.9,942.872Z" transform="translate(-1181.892 -824.753)" fill="#fffaf8"/>
    <path id="Path_1010" data-name="Path 1010" d="M1391.382,838.609s-2.685,4.219-13.336,4.5-13.225,5.538-13.081,8.564-.725,4.478-1.749,1.591-6.167-15.935,2.375-21.565,22.918-6.484,28.7,2.7S1391.382,838.609,1391.382,838.609Z" transform="translate(-1176.123 -731.328)" fill="#3f3092"/>
    <path id="Path_1011" data-name="Path 1011" d="M1519.3,879.7s1.633,6.168-1.113,9.625c0,0-4.187-4.806-4.143-9.722S1518.817,875.994,1519.3,879.7Z" transform="translate(-1300.239 -770.945)" fill="#3f3092"/>
    <path id="Path_1012" data-name="Path 1012" d="M1521.2,922.749s.466,8.052,3.567,2.807C1524.767,925.556,1523.187,922.646,1521.2,922.749Z" transform="translate(-1306.038 -808.471)" fill="#3f3092"/>
    <path id="Path_1013" data-name="Path 1013" d="M1385.129,987.511c.836,3.02,4.1,12.74,11.674,13.574a.508.508,0,0,0,.571-.5l.331-14.691a.512.512,0,0,0-.735-.472c-1.77.864-6.4,2.737-11.206,1.458a.512.512,0,0,0-.636.63Z" transform="translate(-1195.849 -859.178)" fill="#dfe4f3"/>
    <path id="Path_1014" data-name="Path 1014" d="M1322.253,922.687a.19.19,0,0,1-.19-.143c-2.341-9.223,4.743-22.856,4.811-22.995a.19.19,0,1,1,.337.177c-.072.137-7.084,13.64-4.773,22.722a.19.19,0,0,1-.137.23Z" transform="translate(-1144.416 -789.604)" fill="#3f3092"/>
    <path id="Path_1015" data-name="Path 1015" d="M1539.259,861.537a.19.19,0,0,1-.19-.169c-.485-4.275-2.52-6.146-2.541-6.165l-.08-.07.019-.107c.485-2.558-3.374-7.042-3.829-7.47a.19.19,0,0,1,.244-.291c.048.036,4.419,4.758,3.978,7.729a10.6,10.6,0,0,1,2.588,6.332.19.19,0,0,1-.167.209Z" transform="translate(-1315.249 -747.324)" fill="#3f3092"/>
    <path id="Path_1016" data-name="Path 1016" d="M1369.548,874.989l-.308-.225c3.1-4.24,10.388-4.984,16.242-5.582.974-.1,1.9-.19,2.775-.3a10.889,10.889,0,0,0,8.447-5.742l.348.156a11.305,11.305,0,0,1-8.755,5.965c-.883.107-1.806.2-2.782.3C1379.742,870.155,1372.55,870.884,1369.548,874.989Z" transform="translate(-1182.999 -760.209)" fill="#6169b0"/>
    <path id="Path_1017" data-name="Path 1017" d="M1526.509,908.864a2.056,2.056,0,0,1-.265-.011c-1.191-.114-2.063-.961-2.044-1.644l.381.011c-.013.493.742,1.163,1.7,1.252a2.512,2.512,0,0,0,.261.013c3.02,0,4.1-5.139,4.358-6.743.79-4.84-1.317-11.558-3.222-16.343a87.741,87.741,0,0,0-4.377-9.339l.333-.19a88.316,88.316,0,0,1,4.4,9.381c1.924,4.83,4.05,11.621,3.247,16.558a11.769,11.769,0,0,1-2.191,5.734A3.473,3.473,0,0,1,1526.509,908.864Z" transform="translate(-1307.738 -770.516)" fill="#6169b0"/>
    <path id="Path_1018" data-name="Path 1018" d="M1350.284,993.3c-3.157-1.115-4.878-3.942-4.979-8.172a21.861,21.861,0,0,1,.8-6.064l.365.11c-.034.112-3.317,11.2,3.943,13.766Z" transform="translate(-1163.619 -854.067)" fill="#6169b0"/>
    <path id="Path_1019" data-name="Path 1019" d="M1381.448,850.248l-.318-.209c4.92-7.478,18.08-7.491,18.21-7.489v.381C1399.2,842.938,1386.253,842.948,1381.448,850.248Z" transform="translate(-1192.626 -743.538)" fill="#6169b0"/>
    <rect id="Rectangle_239" data-name="Rectangle 239" width="4.887" height="0.761" transform="translate(213.451 120.373) rotate(-28.17)" fill="#f0577c"/>
    <rect id="Rectangle_240" data-name="Rectangle 240" width="0.758" height="5.875" transform="translate(184.329 118.8) rotate(-67.557)" fill="#f0577c"/>
    <path id="Path_1020" data-name="Path 1020" d="M1531.468,955.5h-.053a.191.191,0,0,1,.027-.381c.207.015.424-.145.66-.491a7.029,7.029,0,0,0,1.113-2.234,1.284,1.284,0,0,0-.076-1.016.586.586,0,0,0-.419-.255.712.712,0,0,0-.554.156.811.811,0,0,0-.19.36H1532a1.449,1.449,0,0,0,.451-.278.191.191,0,1,1,.244.293,1.768,1.768,0,0,1-.58.348.449.449,0,0,1-.2.023.353.353,0,0,1-.3-.253.961.961,0,0,1,.308-.778,1.1,1.1,0,0,1,.855-.242.951.951,0,0,1,.681.423,1.634,1.634,0,0,1,.13,1.313,7.358,7.358,0,0,1-1.171,2.362C1532.3,955.01,1531.965,955.5,1531.468,955.5Z" transform="translate(-1314.165 -831.14)" fill="#f37f85"/>
    <path id="Path_1021" data-name="Path 1021" d="M1695.532,1029.976c1.368-3.336-1.376-3.376-1.376-3.376,1.25-2.118-1.785-3.236-1.785-3.236.74-2.074-1.595-2.411-1.174-3.321s1.176-4.256-.761-4.486-5.86,4.5-5.86,4.5-.716-14.35-2.954-14.274-2.63,13.593-3.312,18.668c-1.012,7.556,2.082,15.525-.072,22.839-2.048,6.947-4.884,12.8-7.6,19.5l1.882,17.913s14.173,7.647,18.2-31.5c.242-2.64-.98-9.878-.143-11.6S1694.164,1033.313,1695.532,1029.976Z" transform="translate(-1427.036 -875.701)" fill="#f8afac"/>
    <path id="Path_1022" data-name="Path 1022" d="M1728.51,1079.4a.532.532,0,0,1-.209-.35c-.12-.519.089-1.686,1.774-4.275a10.882,10.882,0,0,0,1.437-7.818c-.927-2.193.678-4.36,2.094-6.281a18.092,18.092,0,0,0,1.315-1.939,2.4,2.4,0,0,0,.381-1.25c-.03-.423-.181-.727-.419-.817-.771-.289-2.474,1.075-3.361,1.928-.655.632-1.283,1.315-1.89,1.976q-.32.348-.639.691c-1.955,2.094-3.489,7.822-3.5,7.879l-.367-.1c.063-.24,1.574-5.875,3.593-8.041q.32-.343.635-.689c.613-.664,1.245-1.353,1.9-1.993.6-.571,2.642-2.43,3.757-2.01a1.2,1.2,0,0,1,.664,1.142,2.668,2.668,0,0,1-.419,1.464,17.635,17.635,0,0,1-1.346,1.985c-1.357,1.837-2.9,3.917-2.042,5.913v.028a11.287,11.287,0,0,1-1.485,8.132c-2.259,3.477-1.677,4.1-1.669,4.1Z" transform="translate(-1471.148 -916.573)" fill="#f37f85"/>
    <rect id="Rectangle_241" data-name="Rectangle 241" width="5.708" height="0.381" transform="translate(260.373 150.216) rotate(-58.78)" fill="#f37f85"/>
    <path id="Path_1023" data-name="Path 1023" d="M1759.321,1110.727l-.141-.354a7.042,7.042,0,0,0,3.572-3.949l.48-1.292c.04-.1.07-.19.1-.251.011-.03.019-.053.021-.061h0c.07-.152.12-.169.242-.124s.147.1.1.251h0a.475.475,0,0,0-.023.061c-.021.063-.05.141-.086.238h0c-.086.229-.232.626-.485,1.308A7.309,7.309,0,0,1,1759.321,1110.727Z" transform="translate(-1498.725 -955.774)" fill="#f37f85"/>
    <path id="Path_1024" data-name="Path 1024" d="M1758.811,1129.775a1.123,1.123,0,0,1-.931-.409c-.731-.952,1.416-4.1,1.854-4.722l.31.219c-1.022,1.452-2.284,3.738-1.861,4.271a.761.761,0,0,0,.677.261,4.515,4.515,0,0,0,3.02-2.111,21.061,21.061,0,0,0,1.869-3.544l.354.137a21.226,21.226,0,0,1-1.9,3.616,4.9,4.9,0,0,1-3.323,2.284Z" transform="translate(-1497.551 -971.211)" fill="#f37f85"/>
    <path id="Path_1025" data-name="Path 1025" d="M1776.521,1138.558a1.6,1.6,0,0,1-1.161-.5l.289-.247a1.226,1.226,0,0,0,1,.364c.588-.059,1.534-.556,2.708-2.6l.329.19c-1.009,1.76-2.023,2.7-3.011,2.79A1.408,1.408,0,0,1,1776.521,1138.558Z" transform="translate(-1511.826 -980.79)" fill="#f37f85"/>
    <path id="Path_1026" data-name="Path 1026" d="M1492.8,1088.3a33.1,33.1,0,0,1,4.739,1.412h0s24.6,6.728,30.261,40.053l-12.042,3.833c2.792,21.386,14.261,125.924,14.261,125.924-11.166,3.928-30.87,2.474-41.575,3.161l-9.09-106.4Z" transform="translate(-1272.153 -942.516)" fill="#69afe1"/>
    <path id="Path_1027" data-name="Path 1027" d="M1649.746,1181.11c-.676,0-1.142.152-1.142.6,0,1.62-1.654,5.1-3.7,4.333s-3.407,1.456-3.407,1.456l5.563,21.242,7.314-19.527a51.336,51.336,0,0,0-4.63-8.107Z" transform="translate(-1403.442 -1017.663)" fill="#4189c8"/>
    <path id="Path_1028" data-name="Path 1028" d="M1211.457,1092.08s-23.162-.044-38.087,46.08l26.032,3.18s-18.023,54.711-17.439,121.582c0,0,23.912.62,42.441,2.094l7.215-106.53Z" transform="translate(-1024.407 -945.577)" fill="#69afe1"/>
    <path id="Path_1029" data-name="Path 1029" d="M1292.157,1260.4l-3.683,17.727s-5.177,14.23-4.434,18.581,14.963-9.668,14.963-9.668,1.542-1.169-1.3-5.184-3.272-3.1-1.523-7.826S1292.157,1260.4,1292.157,1260.4Z" transform="translate(-1113.956 -1081.862)" fill="#4189c8"/>
    <path id="Path_1030" data-name="Path 1030" d="M1189.459,1348.556c-1.348.742-2.459,1.772-4.084,1.915-3.6.314-3.235-3.6-2.855-5.879.411-2.407.875-4.807,1.311-7.211l-26.032-3.18c-4.4,12.533-5.169,26.6-.451,32.528,10.332,12.993,43.37-11.349,43.37-11.349l-6.09-9.668Z" transform="translate(-1008.836 -1141.617)" fill="#69afe1"/>
    <path id="Path_1031" data-name="Path 1031" d="M1246,1414.452l-.369-.436c5.59-4.747,10.995-3.426,11.229-3.372l-.141.554C1256.657,1411.183,1251.353,1409.906,1246,1414.452Z" transform="translate(-1082.914 -1203.343)" fill="#c2def4"/>
    <path id="Path_1032" data-name="Path 1032" d="M1304.022,1290.719a2.662,2.662,0,0,1-1.936-.689c-1.1-1.077-.965-3.144-.855-4.806.015-.245.031-.48.042-.7.19-3.768,3.363-19.911,4.532-24.494l.552.141c-1.163,4.568-4.334,20.638-4.514,24.38,0,.225-.025.463-.042.712-.1,1.543-.228,3.466.685,4.358a2.29,2.29,0,0,0,1.9.51,6.416,6.416,0,0,0,2.92-1.241c.339-.215.687-.436,1.052-.638l4.827-2.664.276.5-4.828,2.665c-.348.19-.689.409-1.02.619a6.964,6.964,0,0,1-3.176,1.332C1304.3,1290.713,1304.158,1290.719,1304.022,1290.719Z" transform="translate(-1127.876 -1081.563)" fill="#c2def4"/>
    <path id="Path_1033" data-name="Path 1033" d="M1242.915,1458.918l24.959-13.418,14.619,9.672-.13,1.9c-.03.4-5.78.091-6.22.078a35.434,35.434,0,0,1-6.621-.358c-2.251-.506-4.324-1.627-6.61-2.012-5.71-.952-12.561,2.339-15.574,7.232-1.7,2.743-2.284,5.957-3.1,9.033-1,3.818-2.271,7.559-3.546,11.293-.636,1.863-1.281,3.725-1.892,5.6a37.067,37.067,0,0,0-1.724,5.232s1.157-8.519,2.7-17.77C1240.844,1468.957,1242.266,1461.582,1242.915,1458.918Z" transform="translate(-1075.992 -1231.734)" fill="#4189c8"/>
    <path id="Path_1034" data-name="Path 1034" d="M962.713,876.031,942.9,830.195l4.225-3.258-6.109.192-1.962-20.543.567-.055,1.913,20.01,7.337-.23-5.27,4.065L963.236,875.8Z" transform="translate(-760.334 -653.031)" fill="#c2def4"/>
    <path id="Path_1035" data-name="Path 1035" d="M1107.828,879.623l-.548-.16,13.33-46.242-4.969-3.778,6.907.213,3.627-16.737.558.122-3.726,17.2-5.6-.173,3.86,2.935-.053.188Z" transform="translate(-896.547 -658.205)" fill="#c2def4"/>
    <path id="Path_1036" data-name="Path 1036" d="M1336.563,1097.356h-.04a.571.571,0,0,1-.531-.617l.814-11.419c.248-3.441,1.483-6.033,3.675-7.7,3.911-2.979,9.4-1.922,9.63-1.875a.571.571,0,1,1-.223,1.119h0c-.053,0-5.226-1-8.72,1.667-1.917,1.462-3,3.774-3.222,6.872l-.817,11.419A.571.571,0,0,1,1336.563,1097.356Z" transform="translate(-1156.077 -932.172)" fill="#3f3092"/>
    <path id="Path_1037" data-name="Path 1037" d="M1306.2,1199.2a.571.571,0,0,1-.571-.5,25.692,25.692,0,0,0-2.55-9.135c-1.622-2.971-3.879-4.41-6.693-4.278-3.409.16-7.5,2.562-7.647,13.1a.571.571,0,0,1-1.142-.015,23.252,23.252,0,0,1,1.65-9.084c1.465-3.26,3.848-4.992,7.086-5.139,3.293-.156,5.9,1.484,7.75,4.87a26.774,26.774,0,0,1,2.68,9.547.571.571,0,0,1-.5.636Z" transform="translate(-1116.896 -1020.114)" fill="#3f3092"/>
    <path id="Path_1038" data-name="Path 1038" d="M1290.6,1275.924h-.078c-.19-.025-4.526-.655-5.04-3.34-.451-2.356.268-15.5.3-16.054a.572.572,0,0,1,1.142.063c-.259,4.68-.66,14-.32,15.776.3,1.563,3.045,2.284,4.074,2.425a.572.572,0,0,1-.078,1.142Z" transform="translate(-1115.06 -1078.292)" fill="#3f3092"/>
    <path id="Path_1039" data-name="Path 1039" d="M1357.944,1276.74a.572.572,0,0,1-.063-1.142c1.035-.114,3.807-.761,4.141-2.309.381-1.764.223-10.869.08-15.437a.571.571,0,1,1,1.142-.036c.017.546.413,13.376-.1,15.719-.59,2.665-4.948,3.178-5.139,3.2Z" transform="translate(-1173.364 -1079.323)" fill="#3f3092"/>
    <circle id="Ellipse_160" data-name="Ellipse 160" cx="1.8" cy="1.8" r="1.8" transform="translate(173.44 195.181)" fill="#3f3092"/>
    <circle id="Ellipse_161" data-name="Ellipse 161" cx="1.8" cy="1.8" r="1.8" transform="translate(182.716 195.311)" fill="#3f3092"/>
    <path id="Path_1040" data-name="Path 1040" d="M1512.975,1096.912a.571.571,0,0,1-.571-.571c0-.2-.173-20.126-10.11-20.471a.571.571,0,1,1,.04-1.142c4.617.16,8.02,4,9.842,11.086a47.838,47.838,0,0,1,1.37,10.523.571.571,0,0,1-.571.571Z" transform="translate(-1290.284 -931.528)" fill="#3f3092"/>
    <circle id="Ellipse_162" data-name="Ellipse 162" cx="4.627" cy="4.627" r="4.627" transform="translate(218 164.814)" fill="#dfe4f3"/>
    <circle id="Ellipse_163" data-name="Ellipse 163" cx="2.307" cy="2.307" r="2.307" transform="translate(220.32 167.134)" fill="#cbcee0"/>
    <path id="Path_1041" data-name="Path 1041" d="M1678.921,1207.76s6.134,5.2,11.851,5.095a70.562,70.562,0,0,1-3.135,25.3c-4.29,13.878-15.049,10.087-15.049,10.087l-1.878-17.915Z" transform="translate(-1427.093 -1039.241)" fill="#69afe1"/>
    <path id="Path_1042" data-name="Path 1042" d="M1691.2,1299.955a74.405,74.405,0,0,0,3.045-15.865c-1.831,3.978-6.776,13.675-12.371,15.865-3.454,1.351-5.535.894-6.764.07l1.418,11.324S1686.912,1313.826,1691.2,1299.955Z" transform="translate(-1430.656 -1101.044)" fill="#4189c8"/>
    <path id="Path_1043" data-name="Path 1043" d="M1259.159,902.959,1254.35,878l.56-.109,4.419,22.934,7.856-21.594.536.2Z" transform="translate(-1015.626 -710.81)" fill="#c2def4"/>
    <path id="Path_1044" data-name="Path 1044" d="M1398.281,1226.817l6.781-23.436a2.59,2.59,0,0,1,2.744-1.856l31.938,3.209a2.588,2.588,0,0,1,2.238,3.254l-12.791,50.6a2.588,2.588,0,0,1-3.011,1.856l-32.465-3.314a2.588,2.588,0,0,1-2-3.144Z" transform="translate(-1201.136 -1034.182)" fill="#f0577c"/>
    <path id="Path_1045" data-name="Path 1045" d="M1501.284,1184.28a3.059,3.059,0,0,0-1.768,3.744l5.885.59S1505.09,1185.728,1501.284,1184.28Z" transform="translate(-1288.361 -1020.229)" fill="#90bde6"/>
    <path id="Path_1046" data-name="Path 1046" d="M1509.43,1184.28s9.516,2.665,1.171,18.916l29.355,2.156s6.621-16.4-3.926-19.548Z" transform="translate(-1296.508 -1020.229)" fill="#b4daf4"/>
    <path id="Path_1047" data-name="Path 1047" d="M1562.351,1270.5c-.238-.013-23.779-1.332-24.171-1.342v-.571c.322,0,23.219,1.289,24.186,1.344Z" transform="translate(-1319.786 -1088.494)" fill="#fffaf8"/>
    <path id="Path_1048" data-name="Path 1048" d="M1566.041,1260.245c-.238-.013-23.779-1.332-24.171-1.344v-.571c.324,0,23.219,1.288,24.188,1.344Z" transform="translate(-1322.774 -1080.186)" fill="#fffaf8"/>
    <path id="Path_1049" data-name="Path 1049" d="M1568.171,1246.9c-.238-.013-23.79-1.332-24.171-1.332V1245c.323,0,23.219,1.289,24.186,1.344Z" transform="translate(-1324.499 -1069.393)" fill="#fffaf8"/>
    <path id="Path_1050" data-name="Path 1050" d="M1366.89,1329.668c.36-.666,1.6-4.075,3.942-5.71,2.533-1.772,2.893-2.331,4.223-5.5s2.689-5.4,3.308-3.157-3.123,6.058-1.028,5.628c3.334-.683,6.144-2.979,9.354-4.031.413-.135,2.316-.708,2.025.346a1.242,1.242,0,0,1-.38.527,31,31,0,0,1-2.556,2.156c-.445.335-.9.661-1.361.971-.318.213-.714.44-.761.855q3.884-1.538,7.872-2.807c.284-.089.813-.287,1.1-.137.6.312-.24.908-.541,1.142-.67.508-1.378.952-2.094,1.414-.432.278-3.728,2.2-3.565,2.474,1.54-.381,3.02-1.142,4.547-1.6.474-.141,3.713-1.243,3.6-.247-.051.451-1.172,1.062-1.509,1.332q-.951.725-1.918,1.406-1.989,1.389-4.105,2.588a2.251,2.251,0,0,0-.809.6c-.244.381-.03.571.4.468,1.479-.381,2.906-.895,4.364-1.332a7.6,7.6,0,0,1,1.757-.436c1.18-.065.695.969.129,1.545a18.028,18.028,0,0,1-4.187,2.927,47.606,47.606,0,0,0-4.256,2.781,31.6,31.6,0,0,1-5.367,3.365,34.737,34.737,0,0,1-6.09,2.126Z" transform="translate(-1181.096 -1125.574)" fill="#f8afac"/>
    <path id="Path_1051" data-name="Path 1051" d="M1289.628,1747.619a11.111,11.111,0,0,1-1.486-.1,8.632,8.632,0,0,1-6.347-3.866c-1.81-2.76-2.493-6.84-2.031-12.133a43.535,43.535,0,0,1,1.231-7.116l.068-.242,20.555,3.171v.247a41.9,41.9,0,0,1-.843,7c-.725,3.5-2.244,8.237-5.352,10.907A8.638,8.638,0,0,1,1289.628,1747.619Zm-8.148-22.818c-.455,1.77-3.045,12.7.792,18.535a8.082,8.082,0,0,0,5.946,3.616,8.285,8.285,0,0,0,6.829-1.9c5.282-4.537,5.919-15.45,5.988-17.235Z" transform="translate(-1110.438 -1457.359)" fill="#c2def4"/>
    <path id="Path_1052" data-name="Path 1052" d="M1552.894,1747.619a8.639,8.639,0,0,1-5.79-2.132c-3.108-2.664-4.625-7.4-5.352-10.907a42.159,42.159,0,0,1-.843-7v-.247l20.555-3.171.069.242a43.671,43.671,0,0,1,1.229,7.116c.463,5.293-.221,9.373-2.029,12.133a8.633,8.633,0,0,1-6.347,3.866A11.151,11.151,0,0,1,1552.894,1747.619Zm-11.4-19.793c.069,1.785.706,12.7,5.988,17.235a8.344,8.344,0,0,0,6.827,1.9,8.077,8.077,0,0,0,5.947-3.616c3.829-5.841,1.247-16.766.792-18.536Z" transform="translate(-1321.996 -1457.359)" fill="#c2def4"/>
    <path id="Path_1053" data-name="Path 1053" d="M1558.229,1744.616c-1.686,0-2.838-.076-2.979-.086l.04-.571a52.66,52.66,0,0,0,6.09-.017c4.415-.266,7.917-1.079,10.129-2.352l.285.5C1568.028,1744.258,1561.879,1744.616,1558.229,1744.616Z" transform="translate(-1333.607 -1471.472)" fill="#c2def4"/>
    <rect id="Rectangle_242" data-name="Rectangle 242" width="33.131" height="0.571" transform="matrix(0.093, -0.996, 0.996, 0.093, 213.726, 261.873)" fill="#c2def4"/>
    <path id="Path_1054" data-name="Path 1054" d="M1308.109,1748.38c-5.2,0-14.763-2.029-15.2-2.122l.12-.558c.114.023,11.419,2.425,16.141,2.073l.042.571C1308.874,1748.368,1308.5,1748.38,1308.109,1748.38Z" transform="translate(-1121.196 -1474.8)" fill="#c2def4"/>
    <rect id="Rectangle_243" data-name="Rectangle 243" width="0.571" height="41.714" transform="translate(199.862 225.425) rotate(-1.18)" fill="#c2def4"/>
    <path id="Path_1055" data-name="Path 1055" d="M1575.834,1970.6a98.08,98.08,0,0,1-15.334-1.178l.1-.561c.148.027,14.986,2.617,29.033,0l.1.561A76.356,76.356,0,0,1,1575.834,1970.6Z" transform="translate(-1337.858 -1655.488)" fill="#c2def4"/>
    <path id="Path_1056" data-name="Path 1056" d="M1274.436,1961.611c-6.427,0-15.264-.381-21.316-2.113l.158-.548c10.372,2.988,29.119,1.9,29.309,1.888l.034.571C1282.547,1961.413,1279.137,1961.611,1274.436,1961.611Z" transform="translate(-1088.979 -1647.464)" fill="#c2def4"/>
    <rect id="Rectangle_244" data-name="Rectangle 244" width="0.571" height="32.657" transform="translate(243.331 191.117) rotate(-5.53)" fill="#90bde6"/>
    <path id="Path_1057" data-name="Path 1057" d="M1878.9,643.72l.8,14.976,4.8,5.83-1.6,6.281-6.745-7.318-5.259,7.318-2.172-7.546,4.343-4.343-.343-14.063s.229-2.284,2.284-2.514S1878.838,642.466,1878.9,643.72Z" transform="translate(-1587.426 -581.379)" fill="#f0577c"/>
    <path id="Path_1058" data-name="Path 1058" d="M1950.615,719.841a3.616,3.616,0,0,0-4.545,1.1,15.174,15.174,0,0,0-2.339,6.077l-1.6,6.281a176.89,176.89,0,0,0,0,18.52c.571,8.46-.457,19.55,2.174,21.15s4.229.457,6.515-1.142a4.322,4.322,0,0,1,6.28.915c1.713,2.057,5.489,4,7.775-1.713s2.855-20.121,0-26.293C1962.223,739,1959.368,724.2,1950.615,719.841Z" transform="translate(-1646.651 -643.871)" fill="#f0577c"/>
    <path id="Path_1059" data-name="Path 1059" d="M1769.727,719.47s-2.9.929-5.487,6.416-6.707,12.2-9.147,14.329-3.806,7.927-3.962,12.042-2.284,19.055,0,20.579,4.115,2.438,7.927,0,6.553-.915,8.375,0,5.944,1.37,7.164-3.806.609-12.651,0-16.463.19-9.449.7-12.955-.969-7.994-1.523-9.9S1773.232,721.284,1769.727,719.47Z" transform="translate(-1491.357 -643.882)" fill="#f0577c"/>
    <rect id="Rectangle_245" data-name="Rectangle 245" width="0.381" height="18.471" transform="matrix(0.553, -0.833, 0.833, 0.553, 267.768, 91.215)" fill="#f5939c"/>
    <path id="Path_1060" data-name="Path 1060" d="M1412.207,531.234l-.227-.306,6.678-4.933,3.637-8.454.35.15-3.679,8.547-.042.03Z" transform="translate(-1143.256 -419.042)" fill="#f5939c"/>
    <path id="Path_1061" data-name="Path 1061" d="M1374.746,593.482l-1.983-3.315.767-3.928-9.88-6.48.209-.318,10.093,6.621-.79,4.037,1.911,3.19Z" transform="translate(-1104.124 -469.161)" fill="#f5939c"/>
    <path id="Path_1062" data-name="Path 1062" d="M1428.127,611.907l-5.689-3.2-5.873,1-.065-.375,6.007-1.028,5.807,3.266Z" transform="translate(-1146.916 -492.536)" fill="#f5939c"/>
    <path id="Path_1063" data-name="Path 1063" d="M1579.225,445.525l-.365-.1,1.572-5.725,4.783-4.115-3.194-4.743,5.59-7.28.3.23-5.422,7.063,3.23,4.8-4.95,4.261Z" transform="translate(-1278.375 -342.948)" fill="#f5939c"/>
    <path id="Path_1064" data-name="Path 1064" d="M1606.446,500.954l-1.814-2.383-4-1.391.126-.36,4.109,1.429,1.884,2.474Z" transform="translate(-1296.002 -402.265)" fill="#f5939c"/>
    <rect id="Rectangle_246" data-name="Rectangle 246" width="18.933" height="0.381" transform="matrix(0.818, -0.575, 0.575, 0.818, 303.692, 114.868)" fill="#f5939c"/>
    <path id="Path_1065" data-name="Path 1065" d="M1616.284,585.447l-.284-.253,2.862-3.19.944-6.324.377.055-.961,6.438Z" transform="translate(-1308.447 -466.116)" fill="#f5939c"/>
    <path id="Path_1066" data-name="Path 1066" d="M1638.119,606.01l-.373-.076,1.29-6.244-5.656-4.06.221-.31,5.858,4.2Z" transform="translate(-1322.519 -482.018)" fill="#f5939c"/>
    <path id="Path_1067" data-name="Path 1067" d="M2094.977,813.086c-.484,0-1.608-.068-1.608-.717v-.07a1.77,1.77,0,0,1,.524-.906c.025-.023.051-.051.08-.082a6.426,6.426,0,0,1-2.811-1.18,1.041,1.041,0,0,0,0,.129,1.789,1.789,0,0,1-.271,1.011l-.046.055c-.139.139-.4.247-.879-.025a4.229,4.229,0,0,1-1.37-1.368c-.27-.476-.162-.742-.023-.881l.053-.044a1.747,1.747,0,0,1,1.012-.27,1.4,1.4,0,0,0,.15,0,6.4,6.4,0,0,1-1.142-2.855,1.236,1.236,0,0,0-.143.124,1.779,1.779,0,0,1-.906.525h-.07c-.647,0-.718-1.123-.718-1.606s.07-1.608.718-1.608h.07a1.769,1.769,0,0,1,.906.523,1.6,1.6,0,0,0,.162.147,6.411,6.411,0,0,1,1.224-2.855,1.274,1.274,0,0,0-.251-.021,1.777,1.777,0,0,1-1.012-.27l-.053-.046c-.139-.139-.248-.4.023-.879a4.213,4.213,0,0,1,1.37-1.37c.476-.27.741-.162.879-.023l.046.053a1.789,1.789,0,0,1,.271,1.011,1.655,1.655,0,0,0,.017.276,6.382,6.382,0,0,1,2.91-1.188,1.7,1.7,0,0,0-.19-.221,1.768,1.768,0,0,1-.523-.906v-.07c0-.647,1.125-.718,1.608-.718s1.606.07,1.606.718v.07a1.769,1.769,0,0,1-.524.906,1.236,1.236,0,0,0-.19.223,6.414,6.414,0,0,1,2.9,1.186,1.9,1.9,0,0,0,.017-.276,1.774,1.774,0,0,1,.27-1.011l.046-.055c.457-.457,1.3.289,1.642.63a3.793,3.793,0,0,1,.605.761c.272.476.164.74.025.879l-.055.046a1.788,1.788,0,0,1-1.01.27,1.256,1.256,0,0,0-.251.021,6.431,6.431,0,0,1,1.224,2.855,1.4,1.4,0,0,0,.16-.147,1.775,1.775,0,0,1,.906-.523h.07c.649,0,.718,1.125.718,1.608s-.069,1.606-.718,1.606h-.07a1.789,1.789,0,0,1-.906-.525,1.226,1.226,0,0,0-.141-.124,6.424,6.424,0,0,1-1.142,2.855,1.4,1.4,0,0,0,.15,0,1.759,1.759,0,0,1,1.01.27l.055.044c.139.139.247.405-.025.881a3.788,3.788,0,0,1-.605.761c-.341.343-1.186,1.087-1.642.63l-.046-.055a1.772,1.772,0,0,1-.27-1.011.817.817,0,0,0,0-.129,6.417,6.417,0,0,1-2.807,1.18.8.8,0,0,0,.078.082,1.767,1.767,0,0,1,.523.906v.07C2096.583,813.017,2095.46,813.086,2094.977,813.086Zm-.775-.847a3.545,3.545,0,0,0,1.549,0,1.03,1.03,0,0,0-.217-.289,2.7,2.7,0,0,1-.535-.773l-.01.017a3.443,3.443,0,0,1-.571.761A1.057,1.057,0,0,0,2094.2,812.239Zm-4.948-2.691a3.5,3.5,0,0,0,1.094,1.1,1.024,1.024,0,0,0,.051-.356,2.718,2.718,0,0,1,.168-.927,3.424,3.424,0,0,1-.952.135,1.067,1.067,0,0,0-.358.061Zm10.123-.19a2.742,2.742,0,0,1,.169.927,1.028,1.028,0,0,0,.049.356,3.527,3.527,0,0,0,1.1-1.1,1.066,1.066,0,0,0-.356-.051,3.434,3.434,0,0,1-.955-.126Zm-8.41-.4.229.208a5.636,5.636,0,0,0,3.483,1.448l.318.017.314-.019a5.647,5.647,0,0,0,3.441-1.446l.229-.208.2-.224a5.628,5.628,0,0,0,1.414-3.506l.011-.276-.015-.278a5.627,5.627,0,0,0-1.481-3.491l-.169-.19-.19-.169a5.631,5.631,0,0,0-3.512-1.452l-.248-.011h-.234a5.623,5.623,0,0,0-3.567,1.454l-.19.169-.169.19a5.64,5.64,0,0,0-1.479,3.491l-.015.278v.276a5.635,5.635,0,0,0,1.416,3.506Zm10.26-4.016a2.783,2.783,0,0,1,.771.535,1.03,1.03,0,0,0,.289.217,3.544,3.544,0,0,0,0-1.549,1.019,1.019,0,0,0-.289.215,3.642,3.642,0,0,1-.767.586Zm-13.568-.8a3.465,3.465,0,0,0,0,1.549,1.055,1.055,0,0,0,.287-.217,2.821,2.821,0,0,1,.773-.535,3.691,3.691,0,0,1-.773-.582,1.047,1.047,0,0,0-.284-.211Zm2-3.806a2.874,2.874,0,0,1,.872.169,3.624,3.624,0,0,1-.135-.952,1.029,1.029,0,0,0-.052-.358,3.084,3.084,0,0,0-.609.487,2.992,2.992,0,0,0-.485.609,1.025,1.025,0,0,0,.356.051Zm9.933-1.142a1.04,1.04,0,0,0-.049.358,3.689,3.689,0,0,1-.135.952,2.773,2.773,0,0,1,.925-.167,1.081,1.081,0,0,0,.356-.052,2.925,2.925,0,0,0-.487-.609,3.075,3.075,0,0,0-.607-.476Zm-5.4-1.593a1.05,1.05,0,0,0,.215.287,3.571,3.571,0,0,1,.583.773,2.831,2.831,0,0,1,.535-.773,1.063,1.063,0,0,0,.217-.287A3.472,3.472,0,0,0,2094.2,797.605Z" transform="translate(-1764.001 -706.462)" fill="#f0577c"/>
    <ellipse id="Ellipse_164" data-name="Ellipse 164" cx="1.696" cy="1.091" rx="1.696" ry="1.091" transform="translate(329.113 95.056)" fill="#f0577c"/>
    <ellipse id="Ellipse_165" data-name="Ellipse 165" cx="0.757" cy="0.487" rx="0.757" ry="0.487" transform="translate(328.606 99.201)" fill="#f0577c"/>
    <ellipse id="Ellipse_166" data-name="Ellipse 166" cx="0.757" cy="0.487" rx="0.757" ry="0.487" transform="translate(331.747 97.975)" fill="#f0577c"/>
    <ellipse id="Ellipse_167" data-name="Ellipse 167" cx="1.167" cy="0.75" rx="1.167" ry="0.75" transform="translate(332.727 100.084)" fill="#f0577c"/>
    <ellipse id="Ellipse_168" data-name="Ellipse 168" cx="0.841" cy="0.541" rx="0.841" ry="0.541" transform="translate(333.892 98.618)" fill="#f0577c"/>
    <path id="Path_1068" data-name="Path 1068" d="M772.825,1391.822a4.633,4.633,0,0,0-2.3,1.347,11.485,11.485,0,0,1-2.474,1.812,19.7,19.7,0,0,0-5.2-12.274,8.913,8.913,0,0,1,3.072-.655,4.633,4.633,0,0,0,2.577-.674c.434-.432-.495-2.063-2.073-3.641s-3.209-2.506-3.641-2.073a4.632,4.632,0,0,0-.674,2.577,11.937,11.937,0,0,1-.518,3.218,19.7,19.7,0,0,0-12.346-5.1,9.16,9.16,0,0,1,1.747-2.72,4.632,4.632,0,0,0,1.348-2.3c0-.613-1.81-1.109-4.041-1.109s-4.04.5-4.04,1.109a4.636,4.636,0,0,0,1.346,2.3,12.224,12.224,0,0,1,1.947,2.71,19.7,19.7,0,0,0-12.544,5.114,12.021,12.021,0,0,1-.52-3.218,4.623,4.623,0,0,0-.672-2.577c-.432-.434-2.063.495-3.641,2.073s-2.506,3.209-2.074,3.641a4.643,4.643,0,0,0,2.579.674,8.826,8.826,0,0,1,3.072.655,19.692,19.692,0,0,0-5.2,12.274,11.49,11.49,0,0,1-2.474-1.812,4.633,4.633,0,0,0-2.3-1.347c-.613,0-1.11,1.81-1.11,4.041s.5,4.042,1.11,4.042a4.632,4.632,0,0,0,2.3-1.347,8.683,8.683,0,0,1,2.457-1.629,19.7,19.7,0,0,0,4.975,12.331,10.946,10.946,0,0,1-2.826.415,4.633,4.633,0,0,0-2.579.672c-.432.434.495,2.063,2.074,3.641s3.209,2.506,3.641,2.074a4.629,4.629,0,0,0,.672-2.577,8.239,8.239,0,0,1,.525-2.706,19.709,19.709,0,0,0,12.251,5.1,10.7,10.7,0,0,1-1.66,2.213,4.637,4.637,0,0,0-1.346,2.3c0,.613,1.808,1.11,4.04,1.11s4.041-.5,4.041-1.11a4.633,4.633,0,0,0-1.348-2.3,8.231,8.231,0,0,1-1.511-2.221,19.7,19.7,0,0,0,12.1-5.089,8.191,8.191,0,0,1,.523,2.706,4.64,4.64,0,0,0,.674,2.577c.432.432,2.063-.495,3.641-2.074s2.506-3.207,2.073-3.641a4.623,4.623,0,0,0-2.577-.672,10.934,10.934,0,0,1-2.826-.415,19.7,19.7,0,0,0,4.973-12.331,8.664,8.664,0,0,1,2.459,1.629,4.632,4.632,0,0,0,2.3,1.347c.613,0,1.11-1.81,1.11-4.042S773.438,1391.822,772.825,1391.822Z" transform="translate(-659.484 -1170.79)" fill="#f0577c"/>
    <ellipse id="Ellipse_169" data-name="Ellipse 169" cx="5.586" cy="3.589" rx="5.586" ry="3.589" transform="translate(82.68 213.854)" fill="#f5939c"/>
    <ellipse id="Ellipse_170" data-name="Ellipse 170" cx="2.495" cy="1.604" rx="2.495" ry="1.604" transform="translate(81.017 227.511)" fill="#f5939c"/>
    <ellipse id="Ellipse_171" data-name="Ellipse 171" cx="2.495" cy="1.604" rx="2.495" ry="1.604" transform="translate(91.357 223.469)" fill="#f5939c"/>
    <ellipse id="Ellipse_172" data-name="Ellipse 172" cx="3.843" cy="2.468" rx="3.843" ry="2.468" transform="translate(94.586 230.417)" fill="#f5939c"/>
    <ellipse id="Ellipse_173" data-name="Ellipse 173" cx="2.769" cy="1.779" rx="2.769" ry="1.779" transform="translate(98.429 225.589)" fill="#f5939c"/>
    <path id="Path_1069" data-name="Path 1069" d="M1696.063,692.92c-.483,0-1.608-.068-1.608-.717v-.069a1.773,1.773,0,0,1,.523-.908.838.838,0,0,0,.08-.082,6.413,6.413,0,0,1-2.809-1.18.79.79,0,0,0,0,.129,1.758,1.758,0,0,1-.271,1.011l-.046.055c-.137.139-.4.247-.879-.025a3.8,3.8,0,0,1-.761-.605,3.739,3.739,0,0,1-.605-.761c-.272-.476-.164-.742-.025-.879l.053-.046a1.788,1.788,0,0,1,1.013-.27,1.369,1.369,0,0,0,.15,0,6.4,6.4,0,0,1-1.142-2.855,1.241,1.241,0,0,0-.143.126,1.763,1.763,0,0,1-.906.523h-.071c-.647,0-.717-1.123-.717-1.606s.07-1.608.717-1.608h.071a1.762,1.762,0,0,1,.906.523,1.65,1.65,0,0,0,.162.147,6.412,6.412,0,0,1,1.224-2.855,1.257,1.257,0,0,0-.251-.021,1.787,1.787,0,0,1-1.013-.27l-.053-.046c-.139-.139-.248-.4.025-.879a3.744,3.744,0,0,1,.605-.761,3.8,3.8,0,0,1,.761-.605c.476-.27.742-.162.879-.023l.046.053a1.775,1.775,0,0,1,.271,1.013,1.87,1.87,0,0,0,.017.274,6.379,6.379,0,0,1,2.91-1.188,1.7,1.7,0,0,0-.19-.221,1.767,1.767,0,0,1-.523-.906v-.07c0-.647,1.125-.718,1.608-.718s1.608.07,1.608.718v.07a1.768,1.768,0,0,1-.523.906,1.232,1.232,0,0,0-.19.223,6.413,6.413,0,0,1,2.9,1.186,1.66,1.66,0,0,0,.017-.274,1.775,1.775,0,0,1,.27-1.013l.046-.053c.459-.459,1.3.287,1.645.628s1.087,1.186.628,1.644l-.053.046a1.786,1.786,0,0,1-1.012.27,1.122,1.122,0,0,0-.251.021,6.411,6.411,0,0,1,1.224,2.855,1.613,1.613,0,0,0,.162-.146,1.761,1.761,0,0,1,.906-.523h.07c.647,0,.718,1.125.718,1.608s-.071,1.606-.718,1.606h-.07a1.761,1.761,0,0,1-.906-.523,1.258,1.258,0,0,0-.143-.126,6.4,6.4,0,0,1-1.142,2.855,1.373,1.373,0,0,0,.15,0,1.753,1.753,0,0,1,1.012.27l.053.046c.459.457-.287,1.3-.628,1.642s-1.186,1.089-1.645.63l-.046-.055a1.768,1.768,0,0,1-.27-1.011.764.764,0,0,0,0-.129,6.405,6.405,0,0,1-2.828,1.17.8.8,0,0,0,.078.082,1.771,1.771,0,0,1,.523.908v.069C1697.671,692.853,1696.546,692.92,1696.063,692.92Zm-.774-.847a3.545,3.545,0,0,0,1.549,0,1.025,1.025,0,0,0-.215-.287,2.7,2.7,0,0,1-.537-.775l-.01.017a3.458,3.458,0,0,1-.571.761A1.058,1.058,0,0,0,1695.288,692.073Zm-4.948-2.691a3.478,3.478,0,0,0,1.1,1.1,1.029,1.029,0,0,0,.049-.356,2.666,2.666,0,0,1,.169-.925,3.5,3.5,0,0,1-.952.135,1.035,1.035,0,0,0-.36.049Zm10.123-.19a2.683,2.683,0,0,1,.169.925,1.035,1.035,0,0,0,.05.356,2.876,2.876,0,0,0,.611-.487,2.919,2.919,0,0,0,.486-.609,1.019,1.019,0,0,0-.356-.049,3.575,3.575,0,0,1-.956-.129Zm-8.41-.4.229.207a5.634,5.634,0,0,0,3.483,1.448l.318.017.314-.019a5.646,5.646,0,0,0,3.441-1.446l.228-.207.2-.225a5.622,5.622,0,0,0,1.414-3.506l.011-.276-.015-.278a5.64,5.64,0,0,0-1.479-3.491l-.169-.19-.19-.169a5.635,5.635,0,0,0-3.511-1.452l-.246-.011-.236.01a5.63,5.63,0,0,0-3.567,1.454l-.19.171-.169.19a5.64,5.64,0,0,0-1.479,3.49l-.015.28.012.274a5.62,5.62,0,0,0,1.414,3.506Zm-3.308-4.813a3.472,3.472,0,0,0,0,1.549,1,1,0,0,0,.287-.217,2.813,2.813,0,0,1,.773-.535,3.7,3.7,0,0,1-.773-.582,1.028,1.028,0,0,0-.284-.209Zm13.568.8a2.816,2.816,0,0,1,.773.535,1,1,0,0,0,.287.217,3.472,3.472,0,0,0,0-1.549,1.031,1.031,0,0,0-.287.215,3.692,3.692,0,0,1-.769.588Zm-11.562-4.6a2.926,2.926,0,0,1,.87.167,3.625,3.625,0,0,1-.135-.952,1.023,1.023,0,0,0-.049-.356,3.448,3.448,0,0,0-1.1,1.094,1.028,1.028,0,0,0,.356.051Zm9.931-1.142a1.018,1.018,0,0,0-.05.356,3.615,3.615,0,0,1-.135.952,2.784,2.784,0,0,1,.925-.168,1.033,1.033,0,0,0,.356-.051,3.451,3.451,0,0,0-1.1-1.094Zm-5.394-1.6a1.088,1.088,0,0,0,.215.287,3.556,3.556,0,0,1,.583.773,2.8,2.8,0,0,1,.537-.773,1.052,1.052,0,0,0,.215-.287A3.471,3.471,0,0,0,1695.288,677.437Z" transform="translate(-1441.012 -609.171)" fill="#f0577c"/>
    <ellipse id="Ellipse_174" data-name="Ellipse 174" cx="1.696" cy="1.091" rx="1.696" ry="1.091" transform="translate(253.188 72.181)" fill="#f0577c"/>
    <ellipse id="Ellipse_175" data-name="Ellipse 175" cx="0.757" cy="0.487" rx="0.757" ry="0.487" transform="translate(252.684 76.328)" fill="#f0577c"/>
    <ellipse id="Ellipse_176" data-name="Ellipse 176" cx="0.757" cy="0.487" rx="0.757" ry="0.487" transform="translate(255.822 75.1)" fill="#f0577c"/>
    <ellipse id="Ellipse_177" data-name="Ellipse 177" cx="1.167" cy="0.75" rx="1.167" ry="0.75" transform="translate(256.802 77.209)" fill="#f0577c"/>
    <ellipse id="Ellipse_178" data-name="Ellipse 178" cx="0.841" cy="0.541" rx="0.841" ry="0.541" transform="translate(257.969 75.744)" fill="#f0577c"/>
    <path id="Path_1070" data-name="Path 1070" d="M892.932,888.412h-.011a1.523,1.523,0,0,1-1.492-1.226l-2-9.75-.346,1.484a1.523,1.523,0,0,1-1.494,1.186H884v-2.093h3.157l.824-3.538a1.534,1.534,0,0,1,3,.04l1.966,9.672,5.07-23.1a1.536,1.536,0,0,1,3.009.048l2.7,14.5,1.165-2.855a1.534,1.534,0,0,1,2.895.15l1.479,5.085h6.105l3.264-7.974a1.534,1.534,0,0,1,2.933.325l1.73,10.2.407-2.36a1.532,1.532,0,0,1,1.513-1.273h4.526v2.094h-4.056l-.883,5.11a1.534,1.534,0,0,1-3.026,0l-1.947-11.486-2.664,6.511a1.522,1.522,0,0,1-1.42.952h-6.9a1.542,1.542,0,0,1-1.473-1.106l-1.142-3.947-1.275,3.135a1.536,1.536,0,0,1-2.931-.3l-2.547-13.665-5.045,22.983A1.523,1.523,0,0,1,892.932,888.412Z" transform="translate(-790.11 -757.572)" fill="#f0577c"/>
    <ellipse id="Ellipse_179" data-name="Ellipse 179" cx="17.574" cy="5.226" rx="17.574" ry="5.226" transform="translate(323.472 386.094)" fill="#aaceed"/>
    <path id="Path_1071" data-name="Path 1071" d="M2067.952,2136H2049.83l7.9,46.044a.382.382,0,0,0-.078.219c0,1,4.587,1.816,10.245,1.816s10.243-.813,10.243-1.816l7.936-46.263Z" transform="translate(-1734.059 -1790.818)" fill="#f3fafe"/>
    <ellipse id="Ellipse_180" data-name="Ellipse 180" cx="18.122" cy="3.376" rx="18.122" ry="3.376" transform="translate(315.771 341.81)" fill="#aaceed"/>
    <path id="Path_1072" data-name="Path 1072" d="M2162.667,1937.844s-5.459-19.413-1.667-18.349,4.853,3.184,4.549-3.791-2.427-18.5,2.427-16.834,3.791,4.7,8.037,1.212,10.768-6.673,12.133-2.427-6.218,5.308-7.28,8.184,1.214,1.214,2.881,5.006-3.336,3.576-5.913,5.883-1.523,2.609-.455,5.188-2.731,10.311-6.825,12.89A21.189,21.189,0,0,1,2162.667,1937.844Z" transform="translate(-1822.986 -1596.188)" fill="#9ac0dd"/>
    <path id="Path_1073" data-name="Path 1073" d="M2152.8,1958.656l-.211-.316.1.158-.106-.158c.4-.293,9.927-11.326,10.534-16.929.152-1.424.179-2.836.206-4.2.078-4.046.156-8.232,3.462-13.473,4.377-6.939,12.125-11.1,12.2-11.137l.179.337c-.078.04-7.742,4.153-12.061,11-3.249,5.152-3.327,9.282-3.4,13.277-.027,1.374-.053,2.794-.209,4.233C2162.88,1947.2,2153.224,1958.376,2152.8,1958.656Z" transform="translate(-1817.261 -1609.936)" fill="#fffaf8"/>
    <path id="Path_1074" data-name="Path 1074" d="M2004.613,1919.04c0-.3,3.841-24.226-.738-22.9s-9.6,5.023-8.125-1.92,1.182-10.784-2.069-9.75-3.546-3.668-2.51-6.56-1.477-5.849-5.466-5.257-3.251,10.635-2.215,14.773.885,4.431-2.217,6.646-.3,4.432,2.807,6.8,8.717,4.579,6.2,5.909-6.5,3.4-1.625,6.646S2004.613,1919.04,2004.613,1919.04Z" transform="translate(-1677.457 -1577.531)" fill="#9ac0dd"/>
    <path id="Path_1075" data-name="Path 1075" d="M2035.25,1948.782c-.664-5.082-1.789-6.509-5.139-10.747-1.625-2.063-3.852-4.885-6.8-9.135-8.9-12.811-9.01-28.167-9.01-28.329h.38c0,.152.107,15.4,8.945,28.11,2.944,4.237,5.165,7.053,6.789,9.113,3.39,4.3,4.531,5.748,5.209,10.934Z" transform="translate(-1705.291 -1600.195)" fill="#fffaf8"/>
    <path id="Path_1076" data-name="Path 1076" d="M2085.923,1853.443s-14.259-26.567-8.705-27.025,5.021-1.051,3.711-5.253-5.295-12.907,0-12.751,5.294-2.855,5.593-5.709,2.552-10.806,9.457-9.606.148,11.105,0,13.357-.251,3.6,3.1,3,3.806,2.094,2.449,5.1-9.605,10.658-9,13.208,2.251,1.051,4.948,1.65,2.855,3.452.6,6.153S2086.672,1848.339,2085.923,1853.443Z" transform="translate(-1755.194 -1513.078)" fill="#aaceed"/>
    <path id="Path_1077" data-name="Path 1077" d="M2128.128,1885.823c-4.314-7.1-4.041-14.759-3.441-31.542q.061-1.728.126-3.584c.651-18.859,7.512-27.89,7.582-27.977l.3.234c-.068.088-6.852,9.035-7.5,27.758q-.063,1.858-.125,3.584c-.6,16.7-.87,24.331,3.384,31.331Z" transform="translate(-1794.396 -1537.161)" fill="#fffaf8"/>
    <rect id="Rectangle_247" data-name="Rectangle 247" width="74.048" height="1.142" transform="translate(283.716 250.134)" fill="#e7f3fc"/>
    <rect id="Rectangle_248" data-name="Rectangle 248" width="74.048" height="1.142" transform="translate(283.716 257.669)" fill="#e7f3fc"/>
    <rect id="Rectangle_249" data-name="Rectangle 249" width="74.048" height="1.142" transform="translate(283.716 265.202)" fill="#e7f3fc"/>
    <rect id="Rectangle_250" data-name="Rectangle 250" width="74.048" height="1.142" transform="translate(113.968 36.285)" fill="#e7f3fc"/>
    <rect id="Rectangle_251" data-name="Rectangle 251" width="74.048" height="1.142" transform="translate(113.968 45.702)" fill="#e7f3fc"/>
    <rect id="Rectangle_252" data-name="Rectangle 252" width="74.048" height="1.142" transform="translate(113.968 55.121)" fill="#e7f3fc"/>
    <rect id="Rectangle_253" data-name="Rectangle 253" width="74.048" height="1.142" transform="translate(113.968 64.54)" fill="#e7f3fc"/>
    <rect id="Rectangle_254" data-name="Rectangle 254" width="74.048" height="1.142" transform="translate(113.968 73.959)" fill="#e7f3fc"/>
    <rect id="Rectangle_255" data-name="Rectangle 255" width="10.791" height="26.732" rx="5.396" transform="translate(349.676 192.421) rotate(50.86)" fill="#f0577c"/>
    <path id="Path_1078" data-name="Path 1078" d="M2134.131,1364.15a5.934,5.934,0,0,1-.609-.03,5.872,5.872,0,0,1-3.108-10.4l12.371-10.062a5.871,5.871,0,0,1,7.413,9.107l-12.371,10.064A5.829,5.829,0,0,1,2134.131,1364.15Zm12.34-20.851a4.895,4.895,0,0,0-3.1,1.1L2131,1354.463a4.924,4.924,0,0,0-.71,6.922h0a4.924,4.924,0,0,0,6.922.71l12.371-10.064a4.918,4.918,0,0,0-3.11-8.732Z" transform="translate(-1797.552 -1148.211)" fill="#f0577c"/>
    <path id="Path_1079" data-name="Path 1079" d="M2187.085,1346.679l-.19-.232a5.245,5.245,0,0,0-7.381-.761l-6.4,5.213,6.814,8.374,6.4-5.213A5.247,5.247,0,0,0,2187.085,1346.679Z" transform="translate(-1833.876 -1149.964)" fill="#f3fafe"/>
    <path id="Path_1080" data-name="Path 1080" d="M2177.023,1357.9l-7.413-9.107,6.773-5.519a5.721,5.721,0,0,1,8.049.826l.19.232a5.723,5.723,0,0,1-.826,8.051Zm-6.075-8.97,6.212,7.632,6.035-4.912a4.771,4.771,0,0,0,.689-6.711l-.19-.232a4.771,4.771,0,0,0-6.711-.689Z" transform="translate(-1831.042 -1147.927)" fill="#f0577c"/>
  </g>
</svg>
